<?xml version="1.0" encoding="utf-8"?>
<!-- Generator: Adobe Illustrator 18.0.0, SVG Export Plug-In . SVG Version: 6.00 Build 0)  -->
<!DOCTYPE svg PUBLIC "-//W3C//DTD SVG 1.1//EN" "http://www.w3.org/Graphics/SVG/1.1/DTD/svg11.dtd">
<svg version="1.1" id="Camada_1" xmlns="http://www.w3.org/2000/svg" xmlns:xlink="http://www.w3.org/1999/xlink" x="0px" y="0px"
	 viewBox="0 596 700 104" enable-background="new 0 596 700 104" xml:space="preserve">
<g opacity="0.28">
	<g>
		<path d="M676.1,690c-5.2,8.3-18.6,7.5-22.5,0.3l-19.4-35.2l-13.7,38.1H606l17.8-49.5c4.5-14.3,29-16,35.9-0.8l12.1,21l10.6-29.9
			h13.9C689.5,652.8,682.8,671.5,676.1,690z"/>
		<path d="M564.9,641.5c-3.6-0.4-6.9,0.4-10,2.2v-9.2c3.3-0.3,6.6-0.4,10.2-0.2c23.7,1.3,34.5,10.2,35.9,20.8v5
			c-1.8,15-20.2,31.5-46.1,34.5v-9.7C569.3,674.9,580.3,643.3,564.9,641.5z M554.8,643.7c-15.9,8.9-24.4,40.9-10.9,44.1
			c3.6,0.9,7.3-0.3,10.9-2.8v9.7c-2.8,0.3-5.6,0.5-8.6,0.5c-25.1,0-36.4-9-37.9-20.2v-5.2c1.8-15.5,20.4-32.9,46.4-35.4L554.8,643.7
			L554.8,643.7L554.8,643.7z"/>
		<polygon points="506.1,644.5 482.2,644.5 464.4,693.3 436,693.3 453.6,644.4 429.9,644.5 433.8,634.1 509.6,634.1 		"/>
		<path d="M411.5,644.5H395c-8.7,0.2-16.6,1.3-16.6,6.1c0,8.9,40,0.5,31.3,23.7c-5.3,13.9-22.6,19-40.3,19h-30.7l4-10.3h20.7
			c7.4-0.1,19.4,1.7,19.4-6.2c0-6.7-16.4-4.1-27.8-10.1c-9.6-5-7.3-14-1.1-20.6c10.1-10.9,27.3-11.7,41-11.8h20.3L411.5,644.5z"/>
		<path d="M323.6,673c-6.8,19-23.2,22.6-38.9,22.1c-20.3-0.5-38.3-6.6-32.8-22.4l13.7-38.7h29.5l-14.9,41.3
			c-2.6,7.4,3.8,9.7,10.3,9.7c11.3,0,17.5-5.5,19.9-12.2l14.2-38.8h12.9L323.6,673z"/>
		<path d="M199.4,642c-2.8-0.2-5.6,0.5-8.4,2.2v-9.7c3-0.3,6.1-0.4,9.3-0.3c24.5,0.7,35.9,9.4,37.8,20.2v6
			c-2.3,14.9-20.5,31.2-47.1,34.1v-8.6C205.9,676.7,216.8,643.6,199.4,642z M191,644.2c-15.6,9.4-25.6,45.6-7.4,44.2
			c2.5,0,5-0.9,7.4-2.4v8.6c-3,0.3-6.1,0.5-9.3,0.4c-23-0.2-34.1-9-35.9-19.9v-6.8c2.4-15,19.5-31.1,45.3-33.8L191,644.2L191,644.2z
			"/>
		<polygon points="118.4,693.3 81.1,693.3 95.3,654.1 55,654.1 40.8,693.3 3.7,693.3 36.1,604.3 73.1,604.3 59.7,642.7 99.8,642.7 
			113.7,604.3 151.1,604.3 		"/>
	</g>
</g>
<g>
	<g>
		<path fill="#FF0000" d="M676.1,686.8c-5.2,8.3-18.6,7.5-22.5,0.3l-19.4-35.2L620.5,690H606l17.8-49.5c4.5-14.3,29-16,35.9-0.8
			l12.1,21l10.6-29.9h13.9C689.5,649.6,682.8,668.3,676.1,686.8z"/>
		<path fill="#FF0000" d="M564.9,638.3c-3.6-0.4-6.9,0.4-10,2.2v-9.2c3.3-0.3,6.6-0.4,10.2-0.2c23.7,1.3,34.5,10.2,35.9,20.8v5
			c-1.8,15-20.2,31.5-46.1,34.5v-9.7C569.3,671.7,580.3,640.1,564.9,638.3z M554.8,640.5c-15.9,8.9-24.4,40.9-10.9,44.1
			c3.6,0.9,7.3-0.3,10.9-2.8v9.7c-2.8,0.3-5.6,0.5-8.6,0.5c-25.1,0-36.4-9-37.9-20.2v-5.2c1.8-15.5,20.4-32.9,46.4-35.4L554.8,640.5
			L554.8,640.5L554.8,640.5z"/>
		<polygon fill="#FF0000" points="506.1,641.3 482.2,641.3 464.4,690.1 436,690.1 453.6,641.2 429.9,641.3 433.8,630.9 509.6,630.9 
					"/>
		<path fill="#FF0000" d="M411.5,641.3H395c-8.7,0.2-16.6,1.3-16.6,6.1c0,8.9,40,0.5,31.3,23.7c-5.3,13.9-22.6,19-40.3,19h-30.7
			l4-10.3h20.7c7.4-0.1,19.4,1.7,19.4-6.2c0-6.7-16.4-4.1-27.8-10.1c-9.6-5-7.3-14-1.1-20.6c10.1-10.9,27.3-11.7,41-11.8h20.3
			L411.5,641.3z"/>
		<path fill="#FF0000" d="M323.6,669.8c-6.8,19-23.2,22.6-38.9,22.1c-20.3-0.5-38.3-6.6-32.8-22.4l13.7-38.7h29.5l-14.9,41.3
			c-2.6,7.4,3.8,9.7,10.3,9.7c11.3,0,17.5-5.5,19.9-12.2l14.2-38.8h12.9L323.6,669.8z"/>
		<path fill="#FF0000" d="M199.4,638.8c-2.8-0.2-5.6,0.5-8.4,2.2v-9.7c3-0.3,6.1-0.4,9.3-0.3c24.5,0.7,35.9,9.4,37.8,20.2v6
			c-2.3,14.9-20.5,31.2-47.1,34.1v-8.6C205.9,673.5,216.8,640.4,199.4,638.8z M191,641c-15.6,9.4-25.6,45.6-7.4,44.2
			c2.5,0,5-0.9,7.4-2.4v8.6c-3,0.3-6.1,0.5-9.3,0.4c-23-0.2-34.1-9-35.9-19.9v-6.8c2.4-15,19.5-31.1,45.3-33.8L191,641L191,641z"/>
		<polygon fill="#FF0000" points="118.4,690.1 81.1,690.1 95.3,650.9 55,650.9 40.8,690.1 3.7,690.1 36.1,601.1 73.1,601.1 
			59.7,639.5 99.8,639.5 113.7,601.1 151.1,601.1 		"/>
	</g>
</g>
</svg>
