<?xml version="1.0" encoding="utf-8"?>
<!-- Generator: Adobe Illustrator 22.0.1, SVG Export Plug-In . SVG Version: 6.00 Build 0)  -->
<svg version="1.2" baseProfile="tiny" id="Layer_1" xmlns="http://www.w3.org/2000/svg" xmlns:xlink="http://www.w3.org/1999/xlink"
	 x="0px" y="0px" width="502px" height="126px" viewBox="0 0 502 126" xml:space="preserve">
<g>
	<path fill="#101016" d="M256.8,6.6h17.1v39.2c0,0-0.5,10.5-9.1,16.2c-10,6.5-16.6,5-16.6,5V52.2c0,0,3.9-0.3,5.9-1.9
		c2.3-1.9,2.8-3.4,2.8-4.9C256.8,43.8,256.8,6.6,256.8,6.6L256.8,6.6L256.8,6.6z"/>
	<polygon fill="#101016" points="277.7,66.9 277.7,6.6 311.5,6.6 311.5,21 294,21 294,28.9 309.5,28.9 309.5,43.2 293.8,43.2 
		293.8,52.4 310.8,52.4 310.8,66.7 277.7,66.9 277.7,66.9 	"/>
	<polygon fill="#101016" points="357.7,6.5 373.3,6.5 373.3,66.7 357.7,66.7 357.7,6.5 357.7,6.5 	"/>
	<path fill-rule="evenodd" fill="#101016" d="M165.7,21.5c9,0,16.3,7.3,16.3,16.3c0,9-7.3,16.4-16.3,16.4c-9,0-16.3-7.3-16.3-16.4
		C149.3,28.8,156.6,21.5,165.7,21.5L165.7,21.5L165.7,21.5z M165.4,6.3c17.2,0,31.2,14,31.2,31.2c0,17.3-14,31.2-31.2,31.2
		c-17.3,0-31.3-14-31.3-31.2C134.1,20.3,148.1,6.3,165.4,6.3L165.4,6.3L165.4,6.3z"/>
	<path fill-rule="evenodd" fill="#101016" d="M463.2,21.5c9,0,16.3,7.3,16.3,16.3c0,9-7.3,16.4-16.3,16.4c-9,0-16.3-7.3-16.3-16.4
		C446.8,28.8,454.1,21.5,463.2,21.5L463.2,21.5L463.2,21.5z M462.9,6.3c17.2,0,31.3,14,31.3,31.2c0,17.3-14,31.2-31.3,31.2
		c-17.3,0-31.3-14-31.3-31.2C431.6,20.3,445.6,6.3,462.9,6.3L462.9,6.3L462.9,6.3z"/>
	<polygon fill="#101016" points="401.3,66.7 376.5,6.5 393.7,6.5 407.3,39.3 420.9,6.5 438.1,6.5 413.3,66.7 401.3,66.7 401.3,66.7 
			"/>
	<path fill-rule="evenodd" fill="#101016" d="M201.9,6.6v60.1h25c0,0,18.3-2.4,18.3-16.3c0-10.7-11.6-15.3-11.6-15.3s8-3.3,8-12
		c0-15.2-17.5-16.5-17.5-16.5H201.9L201.9,6.6L201.9,6.6z M217.2,43.8V53h7.7c0,0,4.8-0.3,4.8-4.4c0-4.5-3.2-4.9-3.2-4.9H217.2
		L217.2,43.8L217.2,43.8z M217.2,20.1v9.2h5.8c0,0,4.3-0.4,4.3-4.5c0-4.6-3.9-4.8-3.9-4.8H217.2L217.2,20.1L217.2,20.1z"/>
	<polygon fill="#101016" points="314.8,6.6 314.8,20.9 327.1,20.9 327.1,66.7 342.7,66.7 342.7,20.9 355,20.9 355,6.6 314.8,6.6 
		314.8,6.6 	"/>
	<path fill="#101016" d="M24,21.2c8.9,0,16,7.2,16,16c0,8.9-7.2,16-16,16c-8.9,0-16-7.2-16-16C8,28.4,15.2,21.2,24,21.2L24,21.2
		L24,21.2z"/>
	<polygon fill="#101016" points="16.3,6.3 28,6.3 59.2,37.5 28.3,67.7 15.7,67.7 46.6,37.4 16.3,6.3 16.3,6.3 	"/>
	<path fill="#101016" d="M77.7,7.8c2.7-0.7,5.5-1.1,8.4-1.1c17.2,0,31.1,13.9,31.1,31.1c0,17.2-13.9,31.1-31.1,31.1
		c-2.9,0-5.7-0.4-8.3-1.1l29.9-29.7L77.7,7.8L77.7,7.8L77.7,7.8z"/>
	<path fill-rule="evenodd" fill="#101016" d="M69.4,11.5L95,37.9L69,63.8c-8.5-5.6-14.1-15.1-14.1-26C54.9,26.7,60.6,17,69.4,11.5
		L69.4,11.5L69.4,11.5z M72.4,21.7c8.8,0,16,7.2,16,16c0,8.8-7.2,16-16,16c-8.9,0-16-7.2-16-16C56.4,28.9,63.6,21.7,72.4,21.7
		L72.4,21.7L72.4,21.7z"/>
	<g>
		<path fill="#101016" d="M24.6,94.9h-11v6.6h10.6v3.9H13.6v9.1h11v3.9H9.5V91h15.1V94.9z"/>
		<path fill="#101016" d="M30,118.3V91h5.7c2.8,0,4.9,0.3,6.5,0.8c1.7,0.5,3.3,1.4,4.7,2.7c2.8,2.6,4.2,6,4.2,10.1
			s-1.5,7.6-4.4,10.2c-1.5,1.3-3,2.2-4.6,2.7c-1.5,0.5-3.6,0.8-6.4,0.8H30z M34.1,114.4h1.9c1.9,0,3.4-0.2,4.6-0.6
			c1.2-0.4,2.3-1.1,3.3-2c2-1.9,3-4.3,3-7.2c0-3-1-5.4-3-7.3c-1.8-1.7-4.4-2.5-8-2.5h-1.9V114.4z"/>
		<path fill="#101016" d="M60.4,91v16.4c0,2.4,0.4,4.1,1.1,5.1c1.1,1.6,2.8,2.4,4.8,2.4c2.1,0,3.7-0.8,4.9-2.4
			c0.8-1,1.2-2.8,1.2-5.1V91h4.1v17.6c0,2.9-0.9,5.3-2.7,7.1c-2,2.1-4.5,3.1-7.4,3.1c-2.9,0-5.4-1-7.4-3.1c-1.8-1.9-2.7-4.2-2.7-7.1
			V91H60.4z"/>
		<path fill="#101016" d="M103.2,92.5v4.9c-2.4-2-4.8-3-7.4-3c-2.8,0-5.2,1-7.1,3c-1.9,2-2.9,4.5-2.9,7.4c0,2.9,1,5.3,2.9,7.3
			c1.9,2,4.3,3,7.1,3c1.5,0,2.7-0.2,3.7-0.7c0.6-0.3,1.2-0.6,1.7-1c0.6-0.4,1.3-0.9,1.9-1.4v5c-2.4,1.3-4.8,2-7.4,2
			c-3.9,0-7.2-1.4-10-4.1c-2.7-2.7-4.1-6.1-4.1-9.9c0-3.5,1.2-6.6,3.5-9.3c2.8-3.3,6.5-5,11-5C98.6,90.5,101,91.1,103.2,92.5z"/>
		<path fill="#101016" d="M125.1,111.7h-11.7l-3,6.6H106l13.5-29l13.1,29H128L125.1,111.7z M123.5,107.8l-4.1-9.3l-4.2,9.3H123.5z"
			/>
		<path fill="#101016" d="M154.9,92.5v4.9c-2.4-2-4.8-3-7.4-3c-2.8,0-5.2,1-7.1,3c-1.9,2-2.9,4.5-2.9,7.4c0,2.9,1,5.3,2.9,7.3
			c1.9,2,4.3,3,7.1,3c1.5,0,2.7-0.2,3.7-0.7c0.5-0.3,1.1-0.6,1.7-1c0.6-0.4,1.3-0.9,1.9-1.4v5c-2.3,1.3-4.8,2-7.4,2
			c-3.9,0-7.2-1.4-10-4.1c-2.7-2.7-4.1-6.1-4.1-9.9c0-3.5,1.1-6.6,3.5-9.3c2.8-3.3,6.5-5,11-5C150.2,90.5,152.6,91.1,154.9,92.5z
			 M149.3,122.1l-4.7,5.4l-2.6-1.4l3.7-5.7L149.3,122.1z"/>
		<path fill="#101016" d="M176.1,111.7h-11.7l-3,6.6h-4.5l13.5-29l13,29H179L176.1,111.7z M165.5,88.3l-2.3-2l0.5-0.7
			c0.3-0.5,0.7-0.9,1-1.2c0.3-0.3,0.6-0.6,0.9-0.8c0.3-0.2,0.7-0.3,1-0.4c0.3-0.1,0.7-0.1,1.1-0.1c0.9,0,2,0.3,3.2,0.9
			c1.2,0.6,2,0.9,2.3,0.9c0.7,0,1.4-0.6,2.2-1.9l2.2,1.9c-1.1,2.2-2.7,3.4-4.6,3.4c-0.7,0-1.7-0.3-3.3-1c-1.1-0.5-1.9-0.8-2.4-0.8
			C166.8,86.4,166.1,87,165.5,88.3z M174.4,107.8l-4.1-9.3l-4.2,9.3H174.4z"/>
		<path fill="#101016" d="M184.3,104.5c0-3.9,1.4-7.2,4.2-9.9c2.8-2.8,6.2-4.1,10.1-4.1c3.9,0,7.2,1.4,10,4.2
			c2.8,2.8,4.2,6.1,4.2,10c0,3.9-1.4,7.2-4.2,10c-2.8,2.8-6.2,4.1-10.2,4.1c-3.5,0-6.7-1.2-9.5-3.7
			C185.8,112.5,184.3,108.9,184.3,104.5z M188.5,104.6c0,3,1,5.5,3,7.4c2,2,4.4,2.9,7,2.9c2.9,0,5.3-1,7.3-3c2-2,2.9-4.4,2.9-7.3
			c0-2.9-1-5.3-2.9-7.3c-2-2-4.4-3-7.2-3c-2.9,0-5.2,1-7.2,3C189.4,99.3,188.5,101.7,188.5,104.6z"/>
		<path fill="#101016" d="M229.2,118.3V91h5.7c2.7,0,4.9,0.3,6.5,0.8c1.7,0.5,3.3,1.4,4.7,2.7c2.8,2.6,4.2,6,4.2,10.1
			s-1.5,7.6-4.4,10.2c-1.5,1.3-3,2.2-4.7,2.7c-1.5,0.5-3.6,0.8-6.4,0.8H229.2z M233.4,114.4h1.9c1.9,0,3.4-0.2,4.6-0.6
			c1.2-0.4,2.3-1.1,3.3-2c2-1.9,3-4.3,3-7.2c0-3-1-5.4-3-7.3c-1.8-1.7-4.5-2.5-8-2.5h-1.9V114.4z"/>
		<path fill="#101016" d="M270.6,94.9h-11v6.6h10.6v3.9h-10.6v9.1h11v3.9h-15.1V91h15.1V94.9z"/>
		<path fill="#101016" d="M315,118.8h-5.2l-2.1-2.2c-2.3,1.5-4.8,2.2-7.6,2.2c-3.6,0-6.9-1.2-9.7-3.7c-3-2.7-4.6-6.1-4.6-10.3
			c0-4.1,1.5-7.6,4.3-10.3c2.8-2.7,6.1-4,10-4c3.5,0,6.6,1.2,9.3,3.5c3.3,2.8,5,6.5,5,11c0,3.6-1.3,6.7-3.9,9.5L315,118.8z
			 M303.7,107.5l4,3.9c1.7-1.8,2.6-4.1,2.6-6.7c0-2.9-1-5.4-2.9-7.4c-2-2-4.4-3-7.3-3c-2.9,0-5.3,1-7.2,3c-1.9,2-2.9,4.5-2.9,7.5
			c0,2.9,1,5.3,3,7.2c2,1.9,4.4,2.9,7,2.9c1.8,0,3.4-0.4,4.8-1.2l-6.4-6.2H303.7z"/>
		<path fill="#101016" d="M323.7,91v16.4c0,2.4,0.4,4.1,1.2,5.1c1.1,1.6,2.7,2.4,4.8,2.4c2.1,0,3.7-0.8,4.8-2.4
			c0.8-1,1.2-2.8,1.2-5.1V91h4.1v17.6c0,2.9-0.9,5.3-2.7,7.1c-2,2.1-4.5,3.1-7.4,3.1c-2.9,0-5.4-1-7.4-3.1c-1.8-1.9-2.7-4.2-2.7-7.1
			V91H323.7z"/>
		<path fill="#101016" d="M361.3,111.7h-11.7l-3,6.6h-4.4l13.5-29l13,29h-4.5L361.3,111.7z M359.6,107.8l-4-9.3l-4.2,9.3H359.6z"/>
		<path fill="#101016" d="M376.2,91v23.4h8v3.9H372V91H376.2z"/>
		<path fill="#101016" d="M392.2,91v27.3h-4.1V91H392.2z"/>
		<path fill="#101016" d="M398.8,118.3V91h5.7c2.7,0,4.9,0.3,6.5,0.8c1.7,0.5,3.3,1.4,4.7,2.7c2.8,2.6,4.2,6,4.2,10.1
			s-1.5,7.6-4.4,10.2c-1.5,1.3-3,2.2-4.6,2.7c-1.5,0.5-3.7,0.8-6.4,0.8H398.8z M402.9,114.4h1.9c1.9,0,3.4-0.2,4.6-0.6
			c1.2-0.4,2.3-1.1,3.3-2c2-1.9,3-4.3,3-7.2c0-3-1-5.4-3-7.3c-1.8-1.7-4.5-2.5-8-2.5h-1.9V114.4z"/>
		<path fill="#101016" d="M439.8,111.7h-11.7l-3,6.6h-4.4l13.5-29l13,29h-4.5L439.8,111.7z M438.1,107.8l-4.1-9.3l-4.2,9.3H438.1z"
			/>
		<path fill="#101016" d="M450.6,118.3V91h5.7c2.8,0,4.9,0.3,6.5,0.8c1.7,0.5,3.3,1.4,4.7,2.7c2.8,2.6,4.2,6,4.2,10.1
			s-1.5,7.6-4.4,10.2c-1.5,1.3-3,2.2-4.6,2.7c-1.5,0.5-3.6,0.8-6.4,0.8H450.6z M454.7,114.4h1.9c1.9,0,3.4-0.2,4.6-0.6
			c1.2-0.4,2.3-1.1,3.3-2c2-1.9,3.1-4.3,3.1-7.2c0-3-1-5.4-3-7.3c-1.8-1.7-4.5-2.5-8-2.5h-1.9V114.4z"/>
		<path fill="#101016" d="M492,94.9h-10.9v6.6h10.6v3.9h-10.6v9.1H492v3.9h-15.1V91H492V94.9z"/>
	</g>
</g>
</svg>
