<?xml version="1.0" encoding="utf-8"?>
<!-- Generator: Adobe Illustrator 22.0.1, SVG Export Plug-In . SVG Version: 6.00 Build 0)  -->
<svg version="1.1" id="Layer_1" xmlns="http://www.w3.org/2000/svg" xmlns:xlink="http://www.w3.org/1999/xlink" x="0px" y="0px"
	 width="167px" height="110px" viewBox="0 0 167 110" style="enable-background:new 0 0 167 110;" xml:space="preserve">
<style type="text/css">
	.st0{fill:none;stroke:#F8CA11;stroke-miterlimit:10;}
	.st1{fill:#F8CA11;}
</style>
<title>baixo</title>
<path class="st0" d="M5.2,71.7c0,0-3.1-13.4,0.1-19.7s13.7-9.3,21.6-8.4s14.4,2.7,23.8-7s18.1-4,18.1-4s3.4,3.4-2.1,6
	s-8.6,4.5-7.4,7s2.4,3.4,4,3.5l2.8,7.2c0,0-7.7,3.4-8.2,4.6s-3.4,8.3,8.4,6.5s0.9,7,0.9,7s-9.1,5.2-13,5S42.4,78.3,38,83.6
	s-7.5,10-9.7,11.4s-9.5,3.5-13.2,0.6S7.7,81.5,7.7,81.5L5.2,71.7z"/>
<path class="st0" d="M40.5,72.8c-0.3-0.7-1.1-1.1-1.8-0.8c-0.7,0.3-1.1,1.1-0.8,1.8c0.3,0.7,1.1,1.1,1.8,0.8c0,0,0,0,0,0
	C40.5,74.3,40.8,73.5,40.5,72.8z"/>
<path class="st0" d="M35.8,80.9c0.8-0.3,1.2-1.2,0.9-2s-1.2-1.2-2-0.9s-1.2,1.2-0.9,2c0,0,0,0,0,0C34.1,80.8,35,81.2,35.8,80.9z"/>
<path class="st0" d="M28.1,85.5c-0.4-1.1-1.7-1.7-2.8-1.2c-1.1,0.4-1.7,1.7-1.2,2.8c0.4,1.1,1.7,1.7,2.8,1.2
	C28,87.9,28.5,86.6,28.1,85.5z"/>
<path class="st0" d="M151.1,25c1.2-1.1,2.8-2.5,4.6-1.7s7.6,1,7.5-3.3s-3.5-4.6-3.5-4.6l-3,0.2l-0.1-1c0.7-0.2,1.2-0.9,1.2-1.7
	c-0.3-0.9-1.3-1.5-2.2-1.2c-1.1,0.2-1.9,1-1.8,1.8c0.2,0.7,0.9,1.3,1.6,1.3l0.1,0.9l-2.1,0.1l-2.7,0.3l-0.1-1
	c0.7-0.2,1.2-0.9,1.2-1.7c-0.3-0.9-1.3-1.5-2.2-1.2c-1.1,0.2-1.9,1-1.8,1.8c0.2,0.7,0.9,1.3,1.6,1.3l0.1,1l-4.7,0.6l-0.1-1
	c0.7-0.2,1.2-0.9,1.2-1.7c-0.3-0.9-1.3-1.5-2.2-1.2c-1.1,0.2-1.9,1-1.8,1.8c0.2,0.7,0.9,1.3,1.6,1.3l0.1,0.9l-4.7,0.7l-0.1-0.9
	c0.8-0.2,1.3-0.9,1.2-1.7c-0.3-0.9-1.3-1.5-2.2-1.2c-1.1,0.2-1.9,1-1.8,1.8c0.2,0.7,0.9,1.3,1.6,1.3l0.1,0.9c-1.1,0.2-2,0.3-2.2,0.4
	c-0.8,0.2-1.4,0.8-1.8,1.5l-0.1,4.5l1.8,4.6c0.9-0.2,1.9-0.3,2.8-0.4c1.5,0.2,2.8,1,3.8,2.2C143.4,32,149.9,26.1,151.1,25z"/>
<path class="st0" d="M29.9,74.5l-1.3-3.3l0.6-0.2c0.2-0.1,0.2-0.3,0.2-0.4L29,69.6c-0.1-0.2-0.2-0.2-0.4-0.2L28,69.7l-1.8-4.5
	l0.6-0.2c0.2-0.1,0.2-0.3,0.1-0.4l-0.4-0.9c-0.1-0.2-0.2-0.3-0.4-0.2l-0.6,0.2l-1.3-3.3c-0.1-0.2-0.2-0.2-0.4-0.2L21.9,61
	c-0.2,0.1-0.2,0.3-0.1,0.4l1.3,3.3l-0.6,0.2c-0.2,0.1-0.2,0.3-0.1,0.4l0.4,0.9c0.1,0.2,0.2,0.2,0.4,0.2c0,0,0,0,0,0l0.6-0.2l1.8,4.5
	L24.8,71c-0.2,0.1-0.2,0.2-0.2,0.4l0.4,0.9c0.1,0.2,0.2,0.2,0.4,0.2l0.6-0.2l1.3,3.3c0.1,0.2,0.2,0.2,0.4,0.2l2.1-0.8
	C29.9,74.8,30,74.6,29.9,74.5z"/>
<path class="st0" d="M16.4,77.9c-0.1,0-0.3-0.1-0.3-0.2l-4.1-10.4c-0.1-0.1,0-0.3,0.1-0.3l6-2.3c0.1,0,0.3,0,0.3,0.2l4.1,10.5
	c0.1,0.1,0,0.3-0.1,0.3c0,0,0,0,0,0L16.4,77.9z"/>
<rect x="134.2" y="22.1" transform="matrix(0.9321 -0.3621 0.3621 0.9321 -0.1753 50.4713)" class="st1" width="0.7" height="7.1"/>
<path class="st0" d="M41.8,56.5l1.7-0.6c0.5-0.2,1,0.1,1.2,0.5l2.9,7.3c0.2,0.5-0.1,1-0.5,1.2l-1.7,0.6c-0.5,0.2-1-0.1-1.2-0.5
	l-2.9-7.3C41.1,57.2,41.3,56.7,41.8,56.5z"/>
<path class="st0" d="M35.5,59l1.7-0.7c0.5-0.2,1,0.1,1.2,0.5l2.9,7.3c0.2,0.5-0.1,1-0.5,1.2L39,68.1c-0.5,0.2-1-0.1-1.2-0.5
	l-2.9-7.3C34.7,59.7,35,59.1,35.5,59z"/>
<path class="st1" d="M130.8,31.1c-0.1,0-0.1,0-0.2-0.1c0,0,0,0,0,0l-2.6-6.5c0-0.1,0-0.1,0.1-0.2l0,0l0,0c0.1,0,0.1,0,0.2,0.1
	l2.6,6.6C130.9,31,130.9,31.1,130.8,31.1L130.8,31.1z"/>
<path class="st1" d="M124.6,33.5c-0.1,0-0.1,0-0.2-0.1l-2.6-6.6c0-0.1,0-0.1,0-0.2c0,0,0,0,0,0l0,0c0.1,0,0.1,0,0.2,0.1l2.6,6.6
	C124.7,33.4,124.7,33.5,124.6,33.5z"/>
<path class="st1" d="M113.1,38c-0.1,0-0.1,0-0.2-0.1l-2.6-6.6c0,0,0-0.1,0-0.2c0,0,0,0,0,0l0,0c0.1,0,0.1,0,0.2,0.1l2.6,6.6
	C113.2,37.9,113.1,38,113.1,38L113.1,38z"/>
<path class="st1" d="M107.3,40.3c-0.1,0-0.1,0-0.2-0.1l-2.6-6.8c0-0.1,0-0.1,0-0.2l0,0c0.1,0,0.1,0,0.2,0.1l2.6,6.8
	C107.4,40.2,107.4,40.3,107.3,40.3C107.3,40.3,107.3,40.3,107.3,40.3L107.3,40.3z"/>
<path class="st1" d="M119,35.7c-0.1,0-0.1,0-0.2-0.1l-2.6-6.6c0-0.1,0-0.1,0.1-0.2l0,0c0.1,0,0.1,0,0.2,0.1c0,0,0,0,0,0l2.6,6.6
	C119.1,35.6,119.1,35.6,119,35.7L119,35.7z"/>
<path class="st1" d="M100,43.3c-0.1,0-0.1,0-0.2-0.1l-2.7-6.9c0-0.1,0-0.1,0.1-0.2l0,0c0.1,0,0.1,0,0.2,0.1c0,0,0,0,0,0l2.6,6.9
	C100,43.2,100,43.2,100,43.3C99.9,43.3,99.9,43.3,100,43.3L100,43.3z"/>
<path class="st1" d="M93.8,45.8c-0.1,0-0.1,0-0.2-0.1l-2.7-7c0-0.1,0-0.1,0.1-0.2c0,0,0,0,0,0l0,0c0.1,0,0.1,0,0.2,0.1l2.7,7
	C93.9,45.6,93.9,45.7,93.8,45.8z"/>
<path class="st1" d="M87.7,48.2c-0.1,0-0.1,0-0.2-0.1l-2.8-7.2c0-0.1,0-0.2,0.1-0.2c0,0,0,0,0,0l0,0c0.1,0,0.1,0,0.2,0.1l2.8,7.2
	C87.8,48.1,87.8,48.2,87.7,48.2z"/>
<path class="st1" d="M82.9,50.1c-0.1,0-0.1,0-0.2-0.1l-2.8-7.3c0-0.1,0-0.2,0-0.2l0,0c0.1,0,0.1,0,0.2,0.1l2.9,7.3
	C83,50,83,50.1,82.9,50.1C82.9,50.1,82.9,50.1,82.9,50.1L82.9,50.1z"/>
<path class="st1" d="M78.1,52c-0.1,0-0.1,0-0.2-0.1l-2.8-7.3c0-0.1,0-0.2,0.1-0.2l0,0c0.1,0,0.1,0,0.2,0.1l2.8,7.3
	C78.2,51.9,78.2,52,78.1,52z"/>
<path class="st1" d="M74,53.7c-0.1,0-0.2,0-0.2-0.1c0,0,0,0,0,0l-2.9-7.4c0-0.1,0-0.2,0-0.2l0,0c0.1,0,0.1,0,0.2,0.1l3,7.5
	C74.1,53.6,74.1,53.6,74,53.7L74,53.7z"/>
<path class="st1" d="M71.1,54.8c-0.1,0-0.1,0-0.2-0.1L68,47.3c0-0.1,0-0.2,0.1-0.2l0,0c0.1,0,0.1,0,0.2,0.1l2.9,7.5
	C71.2,54.7,71.2,54.8,71.1,54.8L71.1,54.8z"/>
<path class="st1" d="M68,56.1c-0.1,0-0.1,0-0.2-0.1l-2.9-7.5c0-0.1,0-0.2,0.1-0.2l0,0c0.1,0,0.2,0,0.2,0.1c0,0,0,0,0,0l2.9,7.5
	C68,56,68,56,68,56.1L68,56.1z"/>
<path class="st1" d="M65.2,57.2c-0.1,0-0.1,0-0.2-0.1l-3-7.6c-0.1-0.1-0.1-0.1,0-0.2l0,0c0.1,0,0.2,0,0.2,0.1l3,7.6
	C65.2,57.1,65.2,57.2,65.2,57.2L65.2,57.2z"/>
<path class="st1" d="M62.2,58.5c-0.1,0-0.1,0-0.2-0.1l-3-7.9c0-0.1,0-0.2,0-0.2l0,0c0.1,0,0.2,0,0.2,0.1l3,7.9
	C62.2,58.4,62.2,58.5,62.2,58.5z"/>
<path class="st1" d="M60,59.4c0,0-0.1,0-0.2-0.1l-3-7.9c0-0.1,0-0.2,0-0.2c0,0,0,0,0,0l0,0c0.1,0,0.1,0,0.2,0.1l3.1,7.9
	C60.1,59.3,60.1,59.4,60,59.4L60,59.4z"/>
<path class="st1" d="M58,60.2c-0.1,0-0.1,0-0.2-0.1l-3-7.9c0-0.1,0-0.2,0-0.2l0,0c0.1,0,0.1,0,0.2,0.1l3.1,7.9
	C58.1,60,58.1,60.1,58,60.2L58,60.2z"/>
<rect x="8.6" y="46" transform="matrix(0.9321 -0.3621 0.3621 0.9321 -11.7739 29.578)" class="st1" width="128.9" height="0.4"/>
<rect x="10.9" y="51.9" transform="matrix(0.9321 -0.3621 0.3621 0.9321 -13.7708 30.8055)" class="st1" width="128.9" height="0.4"/>
<rect x="10.1" y="49.9" transform="matrix(0.9321 -0.3621 0.3621 0.9321 -13.1035 30.3994)" class="st1" width="128.9" height="0.4"/>
<rect x="9.4" y="48" transform="matrix(0.9321 -0.3621 0.3621 0.9321 -12.4383 29.9878)" class="st1" width="128.9" height="0.4"/>
</svg>
