<?xml version="1.0" encoding="utf-8"?>
<!-- Generator: Adobe Illustrator 22.0.1, SVG Export Plug-In . SVG Version: 6.00 Build 0)  -->
<svg version="1.1" id="Layer_1" xmlns="http://www.w3.org/2000/svg" xmlns:xlink="http://www.w3.org/1999/xlink" x="0px" y="0px"
	 width="167px" height="110px" viewBox="0 0 167 110" style="enable-background:new 0 0 167 110;" xml:space="preserve">
<style type="text/css">
	.st0{fill:#F8CA11;}
</style>
<title>bateria</title>
<path class="st0" d="M75.1,106c-0.1,0-0.2,0-0.2-0.1c0,0-0.1,0-0.1-0.1c-0.5-0.5-0.9-1-1.3-1.6c-0.1-0.1-0.2-0.2-0.2-0.3
	c-0.2-0.3-0.4-0.5-0.6-0.8c-0.1-0.2-0.2-0.4-0.1-0.6c0-0.2,0.1-0.3,0.3-0.4c0.2-0.2,0.5-0.4,0.8-0.5c0.2-0.1,0.4-0.3,0.6-0.4
	c0.1-0.1,0.3-0.2,0.4-0.3c0.1-0.1,0.2-0.1,0.3-0.1c0.2,0,0.5,0.1,0.6,0.3l2.3,2.9c0.1,0.1,0.1,0.2,0.2,0.4c0,0.3-0.2,0.5-0.4,0.6
	l-2.3,1C75.2,106,75.2,106,75.1,106z M73.3,102.8c0.2,0.3,0.3,0.5,0.5,0.8l0.2,0.3c0.3,0.5,0.7,0.9,1.1,1.3l1.9-0.8l-2.1-2.6
	l-0.2,0.2c-0.2,0.2-0.5,0.4-0.8,0.5C73.7,102.5,73.5,102.6,73.3,102.8z"/>
<path class="st0" d="M95.3,96.9c-1,0-2.1,0-3.1-0.2c-5.6-0.9-10.7-3.5-14.7-7.5c-1.1-1-2.1-2-3-3.1c-0.7-1.1-1.3-2.2-1.7-3.4
	L72.5,82c-0.5-1.2-0.8-2.5-1-3.8c-0.1-0.7-0.3-1.4-0.5-2.1c-0.6-2.6-0.4-5.3,0.5-7.8c0.9-2.3,2-4.5,3.4-6.6l0.1-0.1
	c1.1-1.7,2.6-3.2,4.3-4.4c1.6-1,3.2-2,4.9-2.7c1.4-0.5,2.8-1,4.2-1.3c2.2-0.7,4.5-1.1,6.8-1.2c0.1,0,0.1-0.1,0.2-0.1l0,0
	c0.5,0,0.9,0,1.3,0.1s1.2,0.1,2.2,0.1H99l1.4,0.3c2.3,0.5,4.6,1.1,6.8,2c2.8,1,5.3,2.7,7.3,4.9c2.4,3,6.9,8.5,6.3,17.2
	c-0.3,5.2-2.7,10.1-6.6,13.4c-1.9,1.8-4.1,3.2-6.5,4.3C103.8,96.1,99.5,96.9,95.3,96.9z M94.9,52.8c-2.1,0.1-4.3,0.5-6.3,1.1
	c-1.4,0.3-2.8,0.8-4.1,1.3c-1.7,0.8-3.3,1.7-4.8,2.7c-1.6,1.1-3,2.5-4.1,4.1l-0.1,0.1c-1.3,2-2.4,4.1-3.3,6.4
	c-0.9,2.4-1,4.9-0.4,7.4c0.2,0.7,0.3,1.5,0.5,2.2c0.2,1.2,0.5,2.4,1,3.6l0.3,0.7c0.4,1.2,0.9,2.2,1.6,3.3c0.9,1.1,1.9,2.1,2.9,3
	c3.9,3.8,8.9,6.4,14.3,7.3c0.1,0,8,1,15-2.2c2.3-1.1,4.4-2.5,6.3-4.2c3.8-3.2,6.1-7.9,6.4-12.9c0.6-8.4-3.8-13.8-6.1-16.7
	c-1.9-2.1-4.3-3.7-7-4.7c-2.2-0.8-4.4-1.5-6.7-2l-1.3-0.3c-1,0-1.6-0.1-2.2-0.1c-0.4,0-0.8-0.1-1.2-0.1c-0.1,0-0.1,0-0.2,0
	L94.9,52.8z"/>
<path class="st0" d="M119.7,69.7c-0.2,0-0.4-0.2-0.4-0.4c0-5.4-1.2-10.7-3.5-15.6c0,0,0-0.1-0.1-0.1c-1.1-2.1-2.5-4-4.1-5.6
	l-0.3-0.3c-0.2-0.1-0.2-0.4-0.1-0.6s0.4-0.2,0.6-0.1c0,0,0.1,0,0.1,0.1l0.3,0.3c1.7,1.7,3.1,3.7,4.2,5.8l0,0c0.7,1,3.6,7.4,3.7,16
	C120.1,69.4,119.9,69.6,119.7,69.7C119.7,69.6,119.7,69.6,119.7,69.7L119.7,69.7z"/>
<path class="st0" d="M71.3,70.7L71.3,70.7c-0.2,0-0.4-0.2-0.4-0.4c0-0.5,0.1-1,0.2-1.7c0-0.2,0.1-0.4,0.1-0.6v-0.1
	c0.6-3.1,1.4-6.1,2.3-9.1c0.3-1,0.6-1.9,0.8-2.7c0.3-1.3,0.9-2.5,1.6-3.7c1.4-1.7,2.8-3.3,4.4-4.8c0.2-0.2,0.4-0.2,0.6,0
	c0.2,0.2,0.2,0.4,0,0.6c-1.5,1.5-3,3.1-4.3,4.8c-0.7,1-1.2,2.2-1.5,3.4c-0.2,0.8-0.5,1.7-0.8,2.7c-0.9,3-1.7,6-2.3,9V68
	c0,0.2-0.1,0.4-0.1,0.6c-0.1,0.7-0.2,1.2-0.2,1.6C71.7,70.5,71.6,70.7,71.3,70.7C71.3,70.7,71.3,70.7,71.3,70.7z"/>
<path class="st0" d="M85.8,44.4c-0.1,0-0.3-0.1-0.3-0.2c-0.1-0.2,0-0.4,0.2-0.5c1.6-0.9,3.4-1.6,5.2-2c0.6-0.1,1.2-0.2,1.8-0.3
	c1.1-0.1,2.2-0.1,3.2,0l1.1,0.1c0.6,0.1,1.3,0.2,2,0.3c1.5,0.2,3,0.6,4.4,1c0.2,0.1,0.3,0.3,0.2,0.5c-0.1,0.2-0.2,0.3-0.4,0.2
	c-1.4-0.4-2.9-0.8-4.4-1c-0.7-0.1-1.4-0.2-2-0.3l-1.1-0.1c-1-0.1-2-0.1-3.1,0c-0.6,0.1-1.1,0.2-1.7,0.3c-1.8,0.4-3.4,1.1-5,2
	C85.9,44.4,85.9,44.4,85.8,44.4z"/>
<path class="st0" d="M95.5,94.5c-2.3,0-4.6-0.3-6.7-1l-1.6-0.6c-1.4-0.4-2.8-1-4.1-1.7c-0.5-0.3-0.9-0.6-1.3-1l-0.4-0.3l-0.5-0.3
	c-1-0.6-1.8-1.2-2.6-2l-0.2-0.2c-2.3-2.3-4.2-5-5.3-8.1c-0.6-1.7-0.9-3.4-1.1-5.2c-0.2-2.5,0.2-4.9,1-7.2c0.7-1.9,1.5-3.7,2.5-5.4
	c0.2-0.4,0.4-0.8,0.6-1.2c0.1-0.2,0.3-0.3,0.5-0.2c0.2,0.1,0.3,0.3,0.2,0.5c0,0,0,0,0,0c-0.2,0.4-0.4,0.8-0.6,1.2
	c-0.9,1.7-1.7,3.4-2.4,5.3c-0.8,2.2-1.1,4.6-1,6.9c0.1,1.7,0.4,3.4,1,5c1.1,3,2.9,5.6,5.1,7.8l0.2,0.2c0.8,0.7,1.6,1.4,2.5,1.9
	c0.3,0.2,0.4,0.3,0.5,0.3s0.3,0.2,0.4,0.4c0.3,0.3,0.7,0.6,1.1,0.9c1.3,0.7,2.6,1.2,4,1.6l1.6,0.6c3,1.1,7.3,1.2,12.1,0.5
	c6-1.1,11.3-4.5,14.7-9.6c3.5-5.4,4.1-12.2,1.7-18.2c-0.1-0.2,0-0.4,0.2-0.5c0.2-0.1,0.4,0,0.5,0.2c2.6,6.2,1.9,13.3-1.8,18.9
	c-3.5,5.3-9,8.9-15.3,10C99.4,94.3,97.5,94.5,95.5,94.5z"/>
<path class="st0" d="M72.3,25.5c-0.4,0-0.8,0-1.1,0c-0.5,0-0.9,0-1.4,0c-3.7,0.2-7.5-0.3-11-1.6c-0.3-0.1-1.2-0.4-1.2-1.2
	c0-0.5,0.3-1,0.8-1.3c1.5-0.8,3.1-1.3,4.8-1.4l4.8-0.5c1.2-0.2,2.4-0.2,3.6-0.2c0.1,0,0.1,0,0.2,0.1c3.6-0.3,7.2-0.1,10.7,0.8
	l0.4,0.1c1.4,0.3,2.7,0.7,2.9,1.5c0.1,0.9-0.3,1.8-1.1,2.3c-0.7,0.4-1.4,0.6-2.2,0.7c-0.4,0.1-0.8,0.2-1.2,0.2
	c-0.8,0.2-1.6,0.3-2.4,0.4l-1.4,0.1c-0.9,0.1-1.8,0.2-2.8,0.2L72.3,25.5L72.3,25.5z M70.2,24.6c0.4,0,0.7,0,1.1,0s0.7,0,1.1,0h2.4
	c0.9,0,1.8-0.1,2.7-0.2c0.5,0,0.9-0.1,1.4-0.1c0.8,0,1.5-0.1,2.2-0.3c0.4-0.1,0.8-0.2,1.2-0.2c0.7-0.1,1.3-0.3,1.9-0.6
	c0.5-0.3,0.8-0.9,0.7-1.4c-0.1-0.4-1.7-0.8-2.3-0.9l-0.4-0.1c-3.5-0.8-7.1-1.1-10.6-0.7c-0.1,0-0.2,0-0.3-0.1c-1.1,0-2.2,0-3.3,0.2
	l-4.8,0.6c-1.6,0.1-3.1,0.5-4.4,1.2c-0.3,0.2-0.4,0.4-0.4,0.5s0.4,0.4,0.7,0.5c3.4,1.3,7,1.8,10.7,1.6L70.2,24.6z"/>
<path class="st0" d="M72.4,27.9c-10.6,0-12.6-1.1-14.5-2.2l-0.1-0.1c-0.3-0.1-0.5-0.3-0.6-0.6c-0.1-0.2-0.2-0.5-0.1-0.8
	c0-1,0.3-2,0.8-2.8c0.1-0.2,0.3-0.3,0.5-0.2c0.2,0.1,0.3,0.3,0.2,0.5c0,0,0,0,0,0.1c-0.4,0.7-0.7,1.6-0.7,2.4c0,0.1,0,0.2,0,0.3
	c0.1,0.1,0.2,0.2,0.3,0.3l0.1,0.1c1.9,1,3.9,2.1,15,2.1c3.2,0,6.3-0.4,9.4-1.2c0.6-0.1,1.2-0.3,1.7-0.6c0.5-0.3,0.8-0.6,1.1-1.1
	c0-0.1,0-0.3,0-0.4c0-0.1,0-0.1,0-0.2c-0.1-0.4-0.2-0.8-0.3-1.2s-0.1-0.5-0.2-0.8c0-0.2,0.1-0.4,0.3-0.5c0,0,0,0,0,0
	c0.2,0,0.4,0.1,0.5,0.3c0,0.2,0.1,0.5,0.2,0.8s0.2,0.8,0.3,1.2c0,0.1,0,0.1,0,0.2c0.1,0.2,0.1,0.5,0,0.8c-0.3,0.7-0.8,1.2-1.5,1.5
	c-0.6,0.3-1.2,0.5-1.9,0.6c-3.1,0.8-6.3,1.2-9.6,1.2H72.4z"/>
<path class="st0" d="M59.1,43.1c-0.2,0-0.3-0.1-0.4-0.3c-0.2-0.8-0.3-1.7-0.3-2.6l-0.7-14.4c0-0.2,0.2-0.4,0.4-0.4
	c0.2,0,0.4,0.2,0.4,0.4c0,0,0,0,0,0l0.6,14.4c0,0.8,0.1,1.6,0.3,2.4c0.1,0.2-0.1,0.4-0.3,0.5L59.1,43.1z"/>
<path class="st0" d="M84.9,41.2L84.9,41.2c-0.2,0-0.4-0.2-0.4-0.4c0,0,0,0,0,0c0.1-1.5,0.1-2.1,0.1-5.1v-0.8c0-0.2,0.2-0.4,0.4-0.4
	l0,0c0.2,0,0.4,0.2,0.4,0.4v0v0.8c0,3,0,3.6-0.1,5.1C85.3,41.1,85.1,41.2,84.9,41.2z"/>
<path class="st0" d="M85,30.1L85,30.1c-0.2,0-0.4-0.2-0.4-0.4c0,0,0,0,0,0c0-2.2,0-3.1,0.1-4v-0.3c0-0.2,0.2-0.4,0.4-0.4
	c0.2,0,0.4,0.2,0.4,0.4c0,0,0,0,0,0v0.3c0,0.9-0.1,1.8-0.1,4C85.4,29.9,85.2,30.1,85,30.1C85,30.1,85,30.1,85,30.1z"/>
<path class="st0" d="M72,46.6L72,46.6c-3.1,0-6-0.3-9-0.8c-3.1-0.6-4-1.4-4.3-1.7L58.6,44c-0.7-0.6-0.7-1.5-0.2-2.2
	c0.1-0.1,0.2-0.2,0.2-0.2c0.2-0.1,0.4,0,0.5,0.1c0.1,0.2,0.1,0.4-0.1,0.5c-0.2,0.1-0.3,0.3-0.3,0.6c0,0.2,0.1,0.4,0.3,0.6l0.1,0.1
	c0.3,0.2,1,1,4,1.5c2.9,0.5,5.8,0.7,8.8,0.8c0.4,0,0.7,0,1.1-0.1l0.8-0.1h1.7c1.6-0.1,3.2-0.4,4.7-0.9l0.8-0.2
	c1-0.2,1.9-0.7,2.7-1.3c0.7-0.6,1-1.5,0.8-2.4c-0.1-0.2,0-0.4,0.2-0.5c0,0,0,0,0,0c0.2-0.1,0.4,0.1,0.5,0.3c0.3,1.2-0.1,2.4-1.1,3.2
	c-0.9,0.7-1.9,1.2-3,1.4l-0.8,0.2c-1.6,0.6-3.2,0.9-4.9,1h-1.6l-0.8,0C72.7,46.5,72.4,46.6,72,46.6z"/>
<path class="st0" d="M72,49.1c-1.9,0-3.8-0.1-5.6-0.3c-1.2-0.1-2.4-0.3-3.6-0.4c-1.2-0.1-2.4-0.5-3.4-1.2c-1.1-0.7-1.8-1.8-1.9-3.1
	c0-1.1,0.3-2.3,1.3-2.6c0.2-0.1,0.4,0.1,0.5,0.3c0,0,0,0,0,0c0.1,0.2-0.1,0.4-0.3,0.5c0,0,0,0,0,0c-0.5,0.1-0.8,1-0.7,1.8
	c0.1,1,0.7,1.9,1.6,2.5c0.9,0.6,2,0.9,3.1,1c1.1,0.2,2.4,0.3,3.5,0.4c4.2,0.4,8.5,0.4,12.7-0.2c2-0.3,3.9-1.2,5.3-2.6
	c0.7-0.6,1.2-1.4,1.2-2.3c-0.1-0.7-0.5-1.4-1-1.9c-0.1-0.2-0.1-0.4,0.1-0.6c0.2-0.1,0.4-0.1,0.5,0.1c0,0,0,0,0,0
	c0.6,0.6,1,1.4,1.2,2.3c0,1.2-0.5,2.3-1.4,3c-1.6,1.5-3.6,2.5-5.8,2.8C76.8,48.9,74.4,49.1,72,49.1z"/>
<path class="st0" d="M119.9,26.9c-0.8,0-1.5,0-2.3-0.1c-0.4,0-0.8,0-1.2,0c-0.3,0-0.6,0-1,0l-2-0.1c-0.8,0-1.6-0.2-2.3-0.3l-1.1-0.2
	c-0.7-0.1-1.3-0.2-2-0.4l-1-0.3c-0.7-0.1-1.3-0.4-1.9-0.8c-0.7-0.5-1-1.3-0.8-2.1c0.2-0.8,1.3-1,2.5-1.3l0.3-0.1
	c3-0.6,6.1-0.7,9.1-0.3c0,0,0.1,0,0.2,0c1,0,2,0.1,3,0.3l4,0.7c1.4,0.1,2.8,0.6,4,1.4c0.4,0.3,0.6,0.7,0.6,1.2
	c-0.1,0.5-0.4,0.8-1.1,1.1C124.6,26.5,122.2,26.9,119.9,26.9z M116.9,25.9c0.2,0,0.5,0,0.7,0c3,0.3,6.1,0,9-1
	c0.3-0.1,0.6-0.2,0.6-0.4s-0.1-0.3-0.3-0.5c-1.1-0.7-2.4-1.2-3.7-1.3l-4-0.7c-0.9-0.2-1.8-0.3-2.7-0.3c-0.1,0-0.2,0.1-0.3,0.1
	c-3-0.4-6-0.3-9,0.3l-0.4,0.1c-1.2,0.2-1.8,0.5-1.9,0.7c-0.1,0.5,0.1,1,0.6,1.3c0.5,0.3,1,0.5,1.6,0.6c0.3,0.1,0.7,0.2,1,0.3
	c0.6,0.2,1.3,0.4,1.9,0.5l1.2,0.2c0.7,0.1,1.5,0.2,2.3,0.3l2,0.1c0.3,0,0.6,0,0.9,0L116.9,25.9z"/>
<path class="st0" d="M119.1,29.1c-1.3,0-2.8,0-4.5-0.1c-2.7-0.1-5.4-0.6-8.1-1.5c-0.5-0.1-1.1-0.4-1.6-0.7c-0.5-0.4-1-0.9-1.2-1.5
	c-0.1-0.2-0.1-0.5,0-0.7c0,0,0-0.1,0-0.2c0.1-0.4,0.2-0.7,0.3-1.1s0.1-0.5,0.2-0.7c0.1-0.2,0.3-0.3,0.5-0.3c0.2,0,0.3,0.3,0.3,0.5
	c0,0,0,0,0,0c-0.1,0.2-0.1,0.5-0.2,0.7s-0.2,0.7-0.3,1c0,0.1,0,0.1,0,0.2c0,0.1,0,0.2,0,0.3c0.2,0.4,0.5,0.8,0.8,1
	c0.4,0.2,0.9,0.4,1.4,0.6c2.6,0.8,5.2,1.3,7.9,1.4c9.4,0.5,11.1-0.4,12.7-1.3l0.1-0.1c0.1,0,0.2-0.1,0.3-0.2c0-0.1,0-0.2,0-0.3
	c0-0.8-0.2-1.5-0.5-2.2c-0.1-0.2,0-0.4,0.2-0.5c0,0,0,0,0,0c0.2-0.1,0.4,0,0.5,0.2c0.4,0.8,0.6,1.7,0.6,2.6c0,0.2,0,0.5-0.1,0.7
	c-0.1,0.2-0.4,0.4-0.6,0.5l-0.1,0.1C126.3,28.3,124.8,29.1,119.1,29.1z"/>
<path class="st0" d="M125.9,43.1h-0.1c-0.2-0.1-0.3-0.3-0.3-0.5c0.2-0.7,0.3-1.4,0.3-2.1l1.1-13c0-0.2,0.2-0.4,0.4-0.4c0,0,0,0,0,0
	c0.2,0,0.4,0.2,0.4,0.4l-1.1,12.9c0,0.8-0.2,1.5-0.3,2.3C126.3,43,126.1,43.1,125.9,43.1z"/>
<path class="st0" d="M104.2,40.5c-0.2,0-0.4-0.2-0.4-0.4c0,0,0,0,0,0c0-1.2,0.1-3.8,0.2-6c0-0.2,0.2-0.4,0.4-0.4c0,0,0,0,0,0
	c0.2,0,0.4,0.2,0.4,0.4c0,0,0,0,0,0c-0.1,2.2-0.2,4.8-0.2,5.9C104.6,40.3,104.5,40.5,104.2,40.5C104.2,40.5,104.2,40.5,104.2,40.5z"
	/>
<path class="st0" d="M104.6,30L104.6,30c-0.2,0-0.4-0.2-0.4-0.4c0.1-1.6,0.1-2.8,0.1-3.5c0-0.2,0.2-0.4,0.5-0.3
	c0.2,0,0.3,0.2,0.3,0.3c0,0.7,0,1.9-0.1,3.5C105,29.8,104.8,30,104.6,30z"/>
<path class="st0" d="M116.3,45.8h-1.4c-0.3,0-0.7-0.1-1-0.1l-0.6-0.1l-1.4-0.1c-1.4-0.1-2.8-0.5-4.2-1l-0.7-0.2
	c-0.9-0.3-1.8-0.8-2.5-1.4c-0.8-0.8-1.1-1.9-0.8-3c0.1-0.2,0.3-0.3,0.5-0.2c0.2,0.1,0.3,0.3,0.2,0.5c-0.2,0.8,0,1.6,0.6,2.2
	c0.6,0.6,1.4,1,2.2,1.2l0.7,0.3c1.2,0.5,2.6,0.9,3.9,1l1.4,0.1c0.2,0,0.5,0,0.7,0.1c0.3,0,0.6,0.1,0.9,0.1c2.5,0.1,4.9,0,7.4-0.3
	c2.5-0.4,3.1-1,3.4-1.2l0.1-0.1c0.1-0.1,0.2-0.3,0.2-0.5c0-0.2-0.1-0.4-0.2-0.5c-0.1-0.2-0.1-0.4,0-0.6c0.1-0.2,0.4-0.2,0.6-0.1
	c0.6,0.5,0.7,1.5,0.1,2.1c0,0-0.1,0.1-0.1,0.1h-0.1c-0.3,0.3-1.1,1-3.8,1.4C120.5,45.7,118.4,45.8,116.3,45.8z"/>
<path class="st0" d="M116.7,48.1c-2.7,0-5.4-0.3-8-0.8c-1.9-0.4-3.5-1.4-4.8-2.8c-0.7-0.7-1.1-1.7-1.1-2.8c0.2-0.8,0.5-1.4,1.1-2
	c0.1-0.2,0.4-0.3,0.5-0.2c0.2,0.1,0.3,0.4,0.2,0.5c0,0,0,0.1-0.1,0.1c-0.4,0.5-0.8,1-0.9,1.6c0,0.8,0.3,1.6,0.9,2.1
	c1.1,1.3,2.6,2.1,4.3,2.5c3.5,0.7,7.1,0.9,10.7,0.7c0.9-0.1,2-0.2,3-0.3c0.9-0.1,1.8-0.3,2.6-0.8c0.8-0.5,1.3-1.3,1.4-2.2
	c0.1-0.7-0.1-1.4-0.5-1.6c-0.2-0.1-0.3-0.3-0.3-0.5c0.1-0.2,0.3-0.3,0.5-0.3c0,0,0,0,0,0c0.9,0.3,1.1,1.5,1,2.4
	c-0.1,1.1-0.8,2.2-1.8,2.8c-0.9,0.5-1.9,0.8-2.9,0.9c-1,0.1-2.1,0.2-3,0.3S117.6,48.1,116.7,48.1z"/>
<path class="st0" d="M47.7,37.1c-0.8,0-1.6,0-2.3-0.1c-1.9-0.1-3.7-0.4-5.5-0.7c-1.3-0.3-2.5-0.8-3.7-1.5c-0.7-0.4-1.2-1.1-1.3-1.9
	c0-0.3,0-0.5,0.2-0.8c0.3-0.8,1.7-1.5,2.8-2.1l0.7-0.4c1.5-0.8,5.2-1.7,9.1-2.1c0.2,0,0.4,0.1,0.5,0.3c0,0.2-0.1,0.4-0.3,0.5
	c0,0-0.1,0-0.1,0c-3.8,0.4-7.4,1.2-8.8,2l-0.8,0.4c-0.8,0.4-2.2,1.1-2.4,1.6c-0.1,0.2-0.1,0.3-0.1,0.5c0,0.4,0.3,0.8,1,1.3
	c1,0.6,2.2,1.1,3.4,1.4c1.8,0.4,3.6,0.6,5.4,0.7c0.8,0,1.7,0.1,2.8,0l0,0c0.2,0,0.4,0.2,0.4,0.4S48.6,37,48.3,37L47.7,37.1z"/>
<path class="st0" d="M50.1,37c-0.2,0-0.4-0.2-0.4-0.4s0.2-0.4,0.4-0.4c2.2-0.1,4.5-0.2,6.8-0.3l1.5-0.1c0.2-0.1,0.4-0.1,0.6,0.1
	c0.1,0.1,0.1,0.3,0,0.5c-0.1,0.2-0.3,0.3-0.5,0.3l-1.5,0.1C54.6,36.8,52.3,36.9,50.1,37L50.1,37z"/>
<path class="st0" d="M49.5,28.2c-0.2,0-0.4-0.2-0.4-0.4c0-0.2,0.1-0.4,0.4-0.4c0,0,0,0,0,0c1.4-0.1,2.4-0.1,3.4-0.1
	c0.7,0,1.7,0,2.7,0s2,0,2.7,0c0.2,0,0.4,0.2,0.4,0.4s-0.2,0.4-0.4,0.4c0,0,0,0,0,0c-0.7,0-1.7,0-2.7,0s-2-0.1-2.7-0.1
	C51.9,28.1,50.8,28.1,49.5,28.2L49.5,28.2z"/>
<path class="st0" d="M50.2,38.4c-0.2,0-0.4-0.2-0.4-0.4c0-0.2,0.2-0.4,0.4-0.4c0,0,0,0,0,0c3.8-0.2,7.8-0.4,8.3-0.5
	c0.2-0.1,0.4,0,0.5,0.2c0,0.1,0,0.2,0,0.3C58.9,37.9,58.9,37.9,50.2,38.4L50.2,38.4z"/>
<path class="st0" d="M48,38.5c-1.6,0-3.1-0.1-4.1-0.2h-0.4c-1.3-0.1-2.7-0.4-4-0.7c-1.2-0.4-2.4-0.8-3.5-1.4
	c-0.3-0.1-0.5-0.3-0.7-0.5c-0.3-0.3-0.4-0.7-0.4-1.2c-0.1-0.6,0-1.2,0.1-1.8c0,0,0-0.1,0-0.1c0-0.2,0.1-0.5,0.2-0.7
	c0-0.2,0.2-0.4,0.5-0.3c0.2,0,0.4,0.2,0.3,0.5c0,0,0,0.1,0,0.1c-0.1,0.2-0.1,0.4-0.2,0.6l0,0c-0.1,0.5-0.2,1.1-0.2,1.6
	c0,0.2,0.1,0.5,0.2,0.7c0.1,0.1,0.3,0.2,0.5,0.3c1.1,0.5,2.2,1,3.3,1.3c1.3,0.3,2.6,0.6,3.9,0.7h0.4c1.1,0.1,2.8,0.2,4.6,0.2
	c0.2,0,0.4,0.2,0.4,0.4s-0.2,0.4-0.4,0.4L48,38.5z"/>
<path class="st0" d="M37.9,60.7c-0.2,0-0.4-0.2-0.4-0.3v-0.2c-0.1-0.5-0.1-1-0.1-1.1c-0.1-1.3-0.2-2.4-0.3-3.6
	c-0.2-2.6-0.4-5.1-0.5-8.2c0-1.6-0.2-3.6-0.3-5.7s-0.3-4.1-0.3-5.7c0-0.2,0.2-0.4,0.4-0.4c0.2,0,0.4,0.2,0.4,0.4
	c0,1.6,0.2,3.6,0.3,5.7s0.3,4.1,0.3,5.7c0.1,3,0.3,5.5,0.5,8.1c0.1,1.2,0.2,2.3,0.3,3.6c0,0.1,0.1,0.7,0.1,1v0.2
	C38.3,60.4,38.2,60.6,37.9,60.7C37.9,60.6,37.9,60.6,37.9,60.7L37.9,60.7z"/>
<path class="st0" d="M52.7,66.5h-0.8c-0.2,0-0.4-0.2-0.4-0.4c0,0,0,0,0,0c0-0.2,0.2-0.4,0.4-0.4c0,0,0,0,0,0c0.5,0,1.1,0,1.6,0
	c0.4,0,0.8-0.1,1.3-0.2c0.4-0.1,1-0.2,1.5-0.2s1-0.1,1.4-0.2l0.5-0.1c0.6-0.1,2.5-0.5,2.8-0.6c0.7-0.5,1.5-0.8,2.4-0.9
	c0.4-0.1,0.9-0.2,1.3-0.3c1-0.3,1.9-0.9,2.7-1.6c0.7-0.7,1-1.6,0.8-2.6c-0.1-0.2,0.1-0.4,0.3-0.5c0.2-0.1,0.4,0,0.5,0.2
	c0.3,1.2,0,2.5-0.9,3.4c-0.9,0.8-1.9,1.4-2.9,1.7c-0.5,0.2-0.9,0.3-1.4,0.4c-0.7,0.1-1.5,0.4-2.1,0.8c-0.2,0.1-0.5,0.3-3.2,0.7
	l-0.5,0.1c-0.4,0.1-1,0.2-1.5,0.2s-1.1,0.1-1.5,0.2s-0.9,0.2-1.3,0.2S53,66.5,52.7,66.5z"/>
<path class="st0" d="M50.2,66.4L50.2,66.4h-0.3h-0.6c-0.4,0-0.8,0-1.5-0.1l-0.9-0.1c-1.5-0.2-3.1-0.5-4.1-0.7
	c-1.3-0.2-2.6-0.8-3.6-1.6c-1-1.1-1.6-2.5-1.7-3.9c0-0.1-0.1-0.7-0.2-1.3c0-0.3-0.1-0.5-0.1-0.6c0-0.2,0.1-0.4,0.3-0.5c0,0,0,0,0,0
	c0.2,0,0.4,0.1,0.5,0.3c0,0.1,0,0.3,0.1,0.6c0.1,0.5,0.2,1.2,0.2,1.3c0.1,1.3,0.6,2.5,1.5,3.5c0.9,0.8,2,1.2,3.2,1.4
	c0.9,0.2,2.5,0.5,4,0.7l0.9,0.1c0.6,0.1,1.1,0.1,1.4,0.1s0.4,0,0.7,0h0.3c0.2,0,0.4,0.2,0.4,0.4S50.4,66.4,50.2,66.4L50.2,66.4z"/>
<path class="st0" d="M52,68.5c-0.2,0-0.4-0.2-0.4-0.4s0.2-0.4,0.4-0.4l0,0c2.7,0,5.4-0.4,8-1h0.1c3.8-1,5.4-1.8,6-2.3
	c0.3-0.3,0.7-0.5,1.1-0.7c0.3-0.1,0.5-0.3,0.8-0.5c0.4-0.2,0.8-0.6,1-1c0-0.1,0.1-0.2,0.1-0.2c0.1-0.3,0.1-0.7,0.1-1v-0.3
	c0-0.6-0.2-1.2-0.6-1.7c-0.2-0.1-0.2-0.4,0-0.6c0,0,0,0,0,0c0.2-0.2,0.4-0.2,0.6,0c0.5,0.6,0.8,1.4,0.9,2.2c0,0.1,0,0.3,0,0.4
	c0,0.4,0,0.8-0.1,1.2c0,0.1-0.1,0.3-0.1,0.4c-0.3,0.5-0.8,1-1.3,1.3c-0.3,0.2-0.5,0.3-0.8,0.5c-0.3,0.2-0.6,0.4-0.9,0.6
	c-1,0.8-3.2,1.7-6.3,2.5h-0.1C57.6,68.1,54.8,68.4,52,68.5L52,68.5z"/>
<path class="st0" d="M50.3,68.4L50.3,68.4c-0.6,0-1.1-0.1-1.5-0.1l-0.6-0.1c-2.4-0.3-4.8-0.8-7.1-1.6c-0.5-0.1-0.9-0.3-1.3-0.6
	c-1-0.2-1.8-0.9-2.2-1.9c-0.4-0.9-0.5-1.9-0.5-2.9c-0.1-0.6,0.2-1.2,0.6-1.7c0.2-0.2,0.4-0.2,0.6,0c0.1,0.2,0.1,0.4,0,0.6
	c-0.2,0.3-0.3,0.7-0.3,1.1c-0.1,0.9,0.1,1.7,0.4,2.6c0.3,0.7,0.9,1.3,1.7,1.5c0.1,0,0.2,0.1,0.3,0.1c0.3,0.2,0.7,0.3,1.1,0.4
	c2.3,0.8,4.6,1.3,6.9,1.6l0.6,0.1c0.5,0,0.9,0.1,1.5,0.1c0.2,0,0.4,0.2,0.4,0.4S50.5,68.4,50.3,68.4L50.3,68.4z"/>
<path class="st0" d="M68.7,59.3L68.7,59.3c-0.2,0-0.4-0.2-0.4-0.4l0.1-10.3c0-0.2,0.2-0.4,0.4-0.4l0,0c0.2,0,0.4,0.2,0.4,0.4
	c0,0,0,0,0,0l-0.1,10.2C69.1,59.1,68.9,59.2,68.7,59.3z"/>
<path class="st0" d="M64.9,92.1c-0.1,0-0.1,0-0.2,0c-0.2-0.1-0.3-0.3-0.2-0.5c0,0,0,0,0,0c2.8-6,5-10.8,6.7-14.8
	c0.1-0.2,0.3-0.3,0.5-0.3s0.3,0.3,0.3,0.5c0,0,0,0,0,0.1c-1.7,4-3.9,8.8-6.7,14.8C65.2,92.1,65.1,92.1,64.9,92.1z"/>
<path class="st0" d="M65.8,92.5c-0.1,0-0.1,0-0.2,0c-0.2-0.1-0.3-0.3-0.2-0.5c2-4.7,4.2-9.4,6.2-13.6c0.1-0.2,0.3-0.3,0.5-0.2
	c0.2,0.1,0.3,0.3,0.2,0.5c-2.1,4.2-4.2,8.9-6.2,13.6C66.1,92.4,65.9,92.5,65.8,92.5z"/>
<path class="st0" d="M65.9,92.9c-0.5,0-0.9-0.1-1.3-0.4c-0.2-0.1-0.4-0.4-0.3-0.7c0-0.2,0.1-0.3,0.3-0.4c0.2-0.1,0.5-0.2,0.8-0.1
	c0.1,0,0.2,0.1,0.2,0.1c0.1,0,0.2,0.1,0.3,0.2c0.3,0.2,0.6,0.5,0.6,0.8c0,0.2-0.2,0.4-0.4,0.4L65.9,92.9z"/>
<path class="st0" d="M64.8,95c-0.3,0-0.6-0.1-0.8-0.3c-0.4-0.3-0.7-0.8-0.7-1.3c0,0,0,0,0-0.1c0,0,0.5-0.9,1-1.7
	c0.1-0.2,0.4-0.2,0.5-0.1c0,0,0,0,0,0c0.2,0.1,0.2,0.4,0.1,0.6c-0.4,0.6-0.8,1.3-0.9,1.6c0.1,0.2,0.2,0.3,0.3,0.4
	c0.2,0.1,0.4,0.2,0.6,0.1c0.3-0.6,0.6-1.3,0.9-1.9c0.1-0.2,0.3-0.3,0.5-0.2c0.2,0.1,0.3,0.3,0.2,0.5c-1,2.3-1.1,2.3-1.4,2.3l0,0
	C65,95,64.9,95,64.8,95z"/>
<path class="st0" d="M130.1,94.3c-0.2,0-0.3-0.1-0.4-0.2c-1.2-2.6-3.2-6.1-5.1-9.6c-1.7-3-3.3-6.1-4.6-8.5c-0.1-0.2-0.1-0.4,0.1-0.6
	c0.2-0.1,0.4-0.1,0.6,0.1c0,0,0,0.1,0.1,0.1c1.2,2.4,2.9,5.5,4.5,8.4c1.9,3.5,3.9,7,5.1,9.6c0.1,0.2,0,0.4-0.2,0.5c0,0,0,0,0,0
	C130.2,94.3,130.1,94.3,130.1,94.3z"/>
<path class="st0" d="M129.2,94.7c-0.2,0-0.3-0.1-0.4-0.2c-1.1-2.6-3.2-6.2-5.2-9.8c-1.5-2.6-2.9-5.1-3.8-7c-0.1-0.2,0-0.4,0.2-0.5
	c0.2-0.1,0.4,0,0.5,0.2c0,0,0,0,0,0c0.9,1.9,2.3,4.3,3.8,7c2,3.6,4.1,7.2,5.2,9.8c0.1,0.2,0,0.4-0.2,0.5
	C129.3,94.7,129.3,94.7,129.2,94.7z"/>
<path class="st0" d="M129,95h-0.1c-0.2,0-0.4-0.2-0.4-0.4c0-0.4,0.5-0.7,0.6-0.8c0.1-0.1,0.2-0.1,0.3-0.1c0.1-0.1,0.1-0.1,0.2-0.2
	c0.3-0.1,0.5,0,0.8,0.1c0.1,0.1,0.2,0.2,0.3,0.4c0,0.3-0.1,0.6-0.4,0.7C129.9,94.9,129.5,95,129,95z"/>
<path class="st0" d="M131.5,96.6c-0.1,0-0.3-0.1-0.3-0.2c-0.5-0.7-0.9-1.5-1.2-2.3c0-0.2,0.1-0.4,0.3-0.5c0.2,0,0.3,0,0.4,0.2
	c0.3,0.7,0.7,1.5,1.1,2.1c0.1,0.2,0.1,0.4-0.1,0.6C131.7,96.6,131.6,96.6,131.5,96.6z"/>
<path class="st0" d="M130,97.4c-0.2,0-0.3-0.1-0.4-0.2l-1-2.4c-0.1-0.2,0-0.4,0.2-0.5c0.2-0.1,0.4,0,0.5,0.2l1.1,2.4
	c0.1,0.2,0,0.4-0.2,0.5C130.1,97.4,130.1,97.4,130,97.4z"/>
<path class="st0" d="M130.3,97.6L130.3,97.6c-0.3,0-0.5-0.1-0.7-0.3c-0.2-0.2-0.2-0.4,0-0.6c0.2-0.2,0.4-0.2,0.6,0c0,0,0,0,0.1,0.1
	c0,0,0,0,0.1,0c0.2,0,0.4-0.1,0.6-0.1c0.1-0.1,0.2-0.2,0.2-0.3c0,0,0-0.1,0-0.1c0-0.2,0.1-0.4,0.3-0.4c0.2-0.1,0.4,0.1,0.5,0.3
	c0,0.2,0,0.5-0.1,0.7c-0.1,0.2-0.3,0.4-0.5,0.6c-0.2,0.1-0.4,0.2-0.6,0.2C130.6,97.6,130.5,97.6,130.3,97.6z"/>
<path class="st0" d="M85,34.8c-0.2,0-0.4-0.2-0.4-0.4c0-0.1,0.1-0.3,0.2-0.3c0.8-0.4,1.7-0.6,2.6-0.7l0.1-3.2L85,30.1
	c-0.2,0-0.4-0.2-0.4-0.4c0,0,0,0,0,0c0-0.2,0.2-0.4,0.4-0.4c0,0,0,0,0,0l2.7,0.1c0.1,0,0.3,0,0.4,0.1c0.2,0.1,0.3,0.4,0.2,0.6
	l-0.1,3.6c0,0.2-0.2,0.4-0.4,0.4c-0.9,0.1-1.8,0.3-2.7,0.6C85.1,34.8,85.1,34.8,85,34.8z"/>
<path class="st0" d="M87.7,33.8c-0.2,0-0.4-0.1-0.4-0.3c0-0.2,0.1-0.4,0.3-0.5l1.3-0.3c-0.1-0.8-0.1-1.6,0-2.5c-0.3,0-0.6,0-0.9,0.1
	c-0.2,0-0.4-0.1-0.5-0.3s0.1-0.4,0.3-0.5c0.5-0.1,1-0.1,1.5-0.1c0.1,0,0.2,0.1,0.3,0.2c0.1,0.1,0.1,0.2,0.1,0.3
	c-0.2,1-0.2,2.1-0.1,3.1c0,0.2-0.1,0.4-0.3,0.4L87.7,33.8L87.7,33.8z"/>
<path class="st0" d="M93.1,34.6c-0.2,0-0.4-0.1-0.4-0.3c-0.2-1-0.5-2-0.8-3c-0.8,0.1-1.6,0.2-2.3,0.1c-0.2,0-0.4-0.2-0.4-0.4
	c0-0.2,0.2-0.4,0.4-0.4c0.8,0.1,1.6,0,2.4-0.1c0.2,0,0.4,0.1,0.5,0.3c0.4,1.1,0.7,2.2,1,3.4C93.5,34.3,93.4,34.5,93.1,34.6
	L93.1,34.6z"/>
<path class="st0" d="M89.7,35.5L89.7,35.5c-0.3-0.1-0.4-0.3-0.4-0.5c0.1-0.5,0.2-1,0.2-1.5h-0.3c-0.2,0-0.4-0.1-0.5-0.3
	c0-0.2,0.1-0.4,0.3-0.5c0,0,0.1,0,0.1,0h0.6c0.2,0,0.4,0.1,0.4,0.3c0.1,0.7,0,1.5-0.1,2.2C90.1,35.4,89.9,35.5,89.7,35.5z"/>
<path class="st0" d="M91.1,37.6c-0.1,0-0.2,0-0.3,0c-0.6-0.1-1-0.5-1.3-1.1c-0.2-0.5-0.2-1.2,0.2-1.7c0.1-0.2,0.3-0.4,0.5-0.5
	c0.2-0.1,0.3-0.3,0.5-0.4c0.5-0.4,1.1-0.6,1.8-0.5c0.7,0.2,1.3,0.8,1.4,1.5c0,0.8-0.4,1.6-1.1,2C92.3,37.3,91.7,37.5,91.1,37.6z
	 M91,34.6c-0.1,0.1-0.3,0.2-0.4,0.3c-0.1,0.1-0.2,0.2-0.3,0.3c-0.2,0.3-0.2,0.6-0.1,1c0.1,0.3,0.4,0.5,0.7,0.6c1,0,1.9-0.8,2.1-1.8
	c-0.1-0.4-0.4-0.7-0.7-0.8h-0.1c-0.1,0.1-0.2,0.1-0.3,0.1C91.6,34.3,91.3,34.4,91,34.6L91,34.6z"/>
<path class="st0" d="M92.8,43.9c-0.2,0-0.4-0.3-0.4-0.6c0-0.6,0-1.4,0-2.2c-0.1-1.6-0.1-3.1,0-4.7c0-0.3,0.3-0.5,0.5-0.5
	c0.2,0.1,0.4,0.4,0.3,0.7c-0.1,1.5-0.1,2.9,0,4.4c0,0.8,0,1.6,0,2.3C93.2,43.6,93,43.9,92.8,43.9z"/>
<path class="st0" d="M90.6,44.3L90.6,44.3c-0.2,0-0.4-0.2-0.4-0.5c0-0.9,0-1.8,0-2.7v-0.5c0-0.3,0-0.9,0-1.6s0-1.3,0-1.6
	c0-0.2,0.1-0.4,0.4-0.5c0.2,0,0.4,0.2,0.4,0.4c0,0,0,0,0,0c0,0.3,0,0.9,0,1.6s0,1.3,0,1.6v0.5c0.1,0.9,0.1,1.8,0,2.8
	C91,44.1,90.8,44.3,90.6,44.3C90.6,44.3,90.6,44.3,90.6,44.3z"/>
<path class="st0" d="M90.3,49.6c-0.1,0-0.3-0.1-0.4-0.2c-0.1-0.1-0.1-0.3-0.1-0.4c0-0.8,0-1.7,0-2.6s0-1.8,0-2.6
	c0-0.2,0.2-0.4,0.4-0.4l0,0c0.2,0,0.4,0.2,0.4,0.4c0,0,0,0,0,0c0,0.8,0,1.7,0,2.6s0,1.7,0,2.4c0.1,0.1,0.2,0.3,0.1,0.4
	C90.7,49.4,90.6,49.6,90.3,49.6L90.3,49.6z"/>
<path class="st0" d="M90.3,49.6c-0.2,0-0.4-0.1-0.4-0.3c0-0.2,0.1-0.4,0.3-0.5c0,0,0,0,0,0c1.4-0.2,2.7-0.2,4.1-0.2
	c1.1,0.1,2.2,0.1,3.2,0c0.4,0,0.7,0,1.1,0h1c-0.4-1.4-0.7-2.9-0.7-4.3c0-0.2,0.2-0.4,0.4-0.4c0,0,0,0,0,0c0.2,0,0.4,0.2,0.4,0.4
	c0,0,0,0,0,0c0,1.5,0.3,3,0.8,4.4c0.1,0.1,0.1,0.2,0,0.3c-0.1,0.1-0.2,0.2-0.3,0.2c-0.6,0.1-1.1,0.1-1.7,0.1c-0.3,0-0.7,0-1,0
	c-1.1,0.1-2.2,0.1-3.3,0c-1.3-0.1-2.6-0.1-3.9,0.1L90.3,49.6z"/>
<path class="st0" d="M97.2,44.3c-0.1,0-0.2,0-0.3-0.1c0,0-0.1,0-0.2,0h-3.3h-3.2l0,0c-0.2,0-0.4-0.2-0.4-0.4l0,0
	c0-0.2,0.2-0.4,0.4-0.4c0,0,0,0,0,0h3.2h3.3c0.3,0,0.5,0.1,0.7,0.2c0.2,0.2,0.2,0.4,0,0.6C97.4,44.3,97.3,44.3,97.2,44.3z"/>
<path class="st0" d="M105.2,34.8c-0.1,0-0.1,0-0.2,0c-0.3-0.1-0.6-0.2-0.9-0.2c-0.1,0-0.2,0-0.3-0.1c-0.6-0.2-1.3-0.3-2-0.4
	c-0.3,0-0.6-0.2-0.6-0.5c0,0,0-0.1,0-0.1c0-0.4,0.1-0.8,0.2-1.2c0.2-0.6,0.2-1.3,0.1-1.9c-0.2-0.3-0.2-0.7,0.1-1
	c0.1-0.1,0.3-0.2,0.4-0.2c0.8-0.2,1.7-0.2,2.5,0c0.1,0,0.2,0,0.3,0c0.3,0,0.8-0.1,1,0.3c0.1,0.2,0.1,0.4,0.1,0.5
	c0.1,1.5,0,3-0.3,4.4c0,0.1-0.1,0.2-0.2,0.3C105.3,34.7,105.2,34.7,105.2,34.8z M104.3,33.8c0.2,0,0.4,0,0.6,0.1
	c0.2-1.2,0.3-2.5,0.2-3.8c0,0,0-0.1,0-0.1h-0.3c-0.2,0-0.4,0-0.6,0c-0.7-0.2-1.4-0.2-2.1,0c0,0,0,0.1,0,0.1c0.2,0.8,0.2,1.6,0,2.3
	c-0.1,0.3-0.1,0.6-0.2,0.9c0.7,0.1,1.4,0.2,2.1,0.4L104.3,33.8L104.3,33.8z"/>
<path class="st0" d="M84.2,35.1c-0.2,0-0.3-0.1-0.5-0.2c-0.2-0.2-0.3-0.5-0.3-0.7c-0.1-1.3-0.1-2.6,0.1-3.9c0-0.1,0-0.3,0.1-0.4
	c0.3-0.6,1-0.6,1.3-0.6c0.2,0,0.4,0.2,0.4,0.4c0,0.2-0.2,0.4-0.4,0.4c0,0,0,0,0,0c-0.4,0-0.6,0.1-0.6,0.2c0,0.1,0,0.1,0,0.2
	c-0.2,1.2-0.2,2.5-0.1,3.7c0,0.1,0,0.1,0,0.2c0.1,0,0.2-0.1,0.3-0.1l1-0.5c0.2-0.1,0.4,0,0.5,0.2c0,0,0,0,0,0c0.1,0.2,0,0.4-0.2,0.5
	c0,0,0,0,0,0l-1,0.5C84.6,35,84.4,35.1,84.2,35.1z"/>
<path class="st0" d="M101.5,33.4L101.5,33.4c-0.4,0-0.8-0.1-1.2-0.2c-0.1,0-0.3-0.1-0.3-0.2c-0.1-0.1-0.1-0.2-0.1-0.3v-2.9
	c0-0.1,0-0.3,0.1-0.4c0.1-0.1,0.2-0.2,0.4-0.2c0.4-0.1,0.9-0.1,1.3,0.1c0.2,0.1,0.3,0.3,0.3,0.5c-0.1,0.2-0.3,0.3-0.5,0.3
	c-0.2-0.1-0.5-0.1-0.7-0.1v2.6c0.3,0.1,0.6,0.1,0.9,0.1c0.2,0,0.4,0.2,0.4,0.4c0,0,0,0,0,0C101.9,33.3,101.7,33.4,101.5,33.4
	C101.5,33.4,101.5,33.4,101.5,33.4z"/>
<path class="st0" d="M96.3,34.3L96.3,34.3c-0.3,0-0.4-0.3-0.4-0.5c0,0,0,0,0,0c0.2-1,0.6-2,1-3c0.2-0.4,0.6-0.7,1-0.7l2.1-0.1
	c0.2,0,0.4,0.2,0.4,0.4c0,0.2-0.2,0.4-0.4,0.4c0,0,0,0,0,0L98,31c-0.1,0-0.2,0-0.3,0c0,0-0.1,0.1-0.1,0.2c-0.4,0.9-0.8,1.9-1,2.8
	C96.6,34.1,96.5,34.3,96.3,34.3z"/>
<path class="st0" d="M99.4,34.5c-0.1,0-0.2,0-0.2-0.1c-0.2-0.1-0.2-0.4-0.1-0.6l0,0c0.1-0.1,0.1-0.3,0.1-0.4c0-0.1,0-0.2,0-0.3
	c0.1-0.5,0.5-1,1-0.9c0.2,0,0.4,0.2,0.3,0.4c0,0,0,0,0,0c0,0.2-0.2,0.4-0.4,0.3c-0.1,0.1-0.1,0.2-0.2,0.3c0,0.1,0,0.2,0,0.2
	c0,0.3-0.1,0.6-0.3,0.8C99.6,34.4,99.5,34.5,99.4,34.5z"/>
<path class="st0" d="M98,37c-0.4,0-0.8-0.1-1.1-0.3c-1-0.5-1.3-1.8-0.8-2.7c0.2-0.4,0.6-0.7,1-0.9c0.5-0.2,1-0.2,1.4-0.1
	c0.4,0,0.7,0.1,1,0.3c0.2,0.1,0.4,0.3,0.5,0.5c0.2,0.3,0.2,0.7,0.2,1c0,0.5-0.1,1-0.3,1.4c-0.4,0.5-0.9,0.8-1.5,0.8L98,37z M98,33.8
	c-0.2,0-0.4,0-0.7,0.1c-0.4,0.2-0.7,0.6-0.8,1c0,0.5,0.2,0.9,0.6,1.1c0.3,0.2,0.7,0.2,1,0.2c0.4,0,0.7-0.2,1-0.4
	c0.2-0.3,0.2-0.7,0.2-1c0-0.2,0-0.3,0-0.5c-0.1,0-0.1-0.1-0.2-0.2c0,0,0-0.1-0.1-0.1c-0.2-0.1-0.4-0.1-0.7-0.2c-0.1,0-0.1,0-0.2-0.1
	L98,33.8z"/>
<path class="st0" d="M98.1,44.3c-0.3,0-0.7,0-1-0.1c-0.2,0-0.3-0.1-0.4-0.3c-0.1-0.2-0.1-0.3-0.1-0.5c-0.1-2.3-0.2-5.3-0.2-6.8
	c0-0.3,0.2-0.6,0.4-0.6l0,0c0.2,0,0.4,0.2,0.4,0.5c0,1.4,0.1,4.3,0.2,6.5c0.4,0.1,0.7,0.1,1.1,0c0.1-2.2,0.1-4.4-0.1-6.6
	c0-0.3,0.1-0.5,0.4-0.6c0.2,0,0.4,0.2,0.4,0.5c0.1,2.4,0.1,4.8,0,7.2c0,0.2-0.1,0.4-0.3,0.5C98.6,44.2,98.4,44.3,98.1,44.3z"/>
<path class="st0" d="M46.3,6.4c-0.2,0-0.4-0.1-0.5-0.2c-0.1-0.2-0.2-0.4-0.2-0.7V4.9c0-0.2,0-0.5,0.2-0.7C45.8,4,46.1,3.9,46.3,4
	c0.1,0,0.3,0.1,0.3,0.2c0.1,0,0.2,0.1,0.2,0.2c0,0.1,0.1,0.2,0.1,0.3C47,4.8,47,5,47.1,5.1c0.1,0.3,0.1,0.7-0.1,1
	C46.8,6.3,46.5,6.4,46.3,6.4L46.3,6.4z M46.3,5.3v0.2C46.3,5.4,46.3,5.4,46.3,5.3L46.3,5.3z"/>
<path class="st0" d="M47.6,7.7L47.6,7.7l-1.8,0c-0.4,0-0.7-0.1-1-0.3c-0.2-0.2-0.2-0.4-0.2-0.7c0-0.3,0.2-0.6,0.4-0.8
	c0.1-0.1,0.2-0.1,0.3-0.2c0.1-0.1,0.1-0.1,0.2-0.1c0.4-0.1,0.8-0.1,1.2-0.1c0.2,0,0.4,0,0.6,0.1c0.4,0.2,0.6,0.5,0.7,0.9
	c0,0.3,0,0.6-0.1,0.9C48,7.6,47.8,7.7,47.6,7.7z M45.9,6.4c-0.1,0-0.2,0-0.3,0.1c-0.1,0-0.1,0.1-0.1,0.2c0,0,0,0,0,0.1
	s0.3,0.1,0.4,0.1h1.5c0-0.1,0-0.2,0-0.3c0-0.1-0.1-0.2-0.2-0.3c-0.1,0-0.2,0-0.3,0h-0.3c-0.1,0.1-0.3,0.2-0.4,0.2
	C46,6.4,46,6.4,45.9,6.4z"/>
<path class="st0" d="M46.3,13.7c-4.4,0-8.7-0.5-13-1.6c-1-0.2-1.9-0.5-2.8-1c-0.7-0.4-1.5-1.2-1.2-2.2c0.2-0.5,0.6-1,1.2-1.2
	c1.8-0.8,3.7-1.2,5.7-1.3l7.4-0.8c0.5,0,1,0,1.5,0c0.1-0.2,0.3-0.2,0.5-0.2c0.2,0.1,0.3,0.2,0.3,0.4c0,0.2-0.1,0.4-0.2,0.5
	c-0.1,0.1-0.3,0.1-0.5,0.1c-0.5,0-1.1,0-1.6,0l-7.4,0.8c-1.9,0.1-3.7,0.5-5.4,1.2c-0.5,0.2-0.7,0.4-0.8,0.7c-0.1,0.5,0.3,1,0.9,1.2
	c0.8,0.4,1.7,0.7,2.6,0.9c6.8,1.7,13.9,2,20.8,1c0.7-0.1,1.4-0.2,2.1-0.3c1.5-0.1,2.9-0.4,4.4-0.8c0.9-0.2,1.3-0.5,1.4-1
	c0.1-0.4-0.1-0.8-0.3-1c-0.3-0.3-0.7-0.5-1.1-0.7c-4.2-1.7-8.9-2-12.9-2.1c-0.2,0-0.4-0.2-0.4-0.4c0,0,0,0,0,0
	c0-0.2,0.2-0.4,0.4-0.4h0.4c0.1,0,0.2,0,0.2,0c4,0.1,8.5,0.5,12.6,2.1c0.5,0.2,1,0.5,1.4,0.8c0.5,0.4,0.7,1.1,0.5,1.8
	c-0.2,1-1.3,1.3-2,1.5c-1.5,0.4-3,0.6-4.5,0.8c-0.7,0.1-1.4,0.2-2.1,0.3C51.7,13.5,49,13.7,46.3,13.7z"/>
<path class="st0" d="M51.4,89.8L51.4,89.8c-0.2,0-0.4-0.2-0.4-0.4c0,0,0,0,0,0c0.1-3.9-4.2-72.8-4.7-76c0-0.2,0.2-0.4,0.4-0.4
	c0.2,0,0.3,0.1,0.4,0.3c0.6,3.5,4.9,71.8,4.8,76.1C51.8,89.6,51.6,89.8,51.4,89.8C51.4,89.8,51.4,89.8,51.4,89.8z"/>
<path class="st0" d="M53.1,89.7L53.1,89.7c-0.2,0-0.4-0.2-0.4-0.4c0,0,0,0,0,0c0.1-3.9-4.2-72.8-4.7-76c-0.1-0.2,0-0.4,0.3-0.5
	c0.2-0.1,0.4,0,0.5,0.3c0,0,0,0.1,0,0.1c0.6,3.5,4.9,71.8,4.8,76.1C53.6,89.5,53.4,89.7,53.1,89.7C53.2,89.7,53.1,89.7,53.1,89.7z"
	/>
<path class="st0" d="M23.8,97.2c-0.1,0-0.2,0-0.3-0.1c-0.1-0.1-0.3-0.2-0.4-0.2c-0.2-0.1-0.5-0.2-0.6-0.4c-0.2-0.1-0.2-0.4,0-0.6
	c0.8-0.9,1.5-1.7,2.4-2.5l1.1-1.1c4.8-4.8,9.5-7.4,16.7-11.3l1.8-1c2-1.2,4.2-2.2,6.3-3.1c0.2-0.1,0.4,0,0.5,0.2c0,0,0,0,0,0
	c0.1,0.2,0,0.4-0.2,0.5c-2.1,0.9-4.2,1.9-6.2,3.1l-1.8,1c-7.1,3.8-11.8,6.4-16.5,11.2L25.4,94c-0.7,0.7-1.4,1.3-2,2.1h0.1
	c0.1,0,0.2,0.1,0.4,0.2c0.9-0.8,1.4-1.3,2.1-1.9c0.9-0.9,2-2,4.4-4c3.8-3.3,8.4-5.7,12.9-8c1.5-0.8,3-1.5,4.4-2.3l0.2-0.1
	c1-0.6,2.1-1,3.2-1.1l0,0c0.2,0,0.4,0.2,0.4,0.4s-0.2,0.4-0.4,0.4c-1,0.1-2,0.4-2.9,1l-0.2,0.1c-1.5,0.8-3,1.6-4.4,2.3
	c-4.4,2.3-8.9,4.6-12.7,7.9c-2.3,2-3.4,3.1-4.3,4c-0.7,0.7-1.3,1.3-2.3,2.2C24,97.1,23.9,97.1,23.8,97.2z"/>
<path class="st0" d="M23.5,100.7c-0.1,0-0.2,0-0.4-0.1l-2-0.6c-0.2-0.1-0.9-0.3-1-0.9c0-0.2,0-0.5,0.1-0.7c0.3-0.7,0.8-1.4,1.3-2
	c0.3-0.5,0.8-0.8,1.4-0.8H23c0.8,0.1,1.4,0.7,1.6,1.4c0.1,0.4,0.2,0.9,0,1.3c-0.1,0.6-0.2,1.1-0.4,1.6c-0.1,0.2-0.2,0.4-0.4,0.5
	C23.7,100.7,23.6,100.7,23.5,100.7z M22.9,96.5c-0.2,0-0.4,0.2-0.7,0.5c-0.5,0.6-0.9,1.2-1.2,1.8c0,0.1-0.1,0.1-0.1,0.2
	c0,0,0,0.1,0.5,0.3l2,0.6h0.1c0,0,0-0.1,0-0.1c0.2-0.5,0.3-1,0.4-1.5c0.1-0.3,0.1-0.6,0-0.9C23.8,96.9,23.4,96.5,22.9,96.5
	L22.9,96.5L22.9,96.5z"/>
<path class="st0" d="M51.3,88.7L51.3,88.7l-1.1-0.2c-0.5-0.1-0.9-0.2-1.4-0.3L38,85.5c-0.2-0.1-0.3-0.3-0.3-0.5
	c0.1-0.2,0.3-0.3,0.5-0.3l10.9,2.8c0.5,0.1,0.9,0.2,1.3,0.3l1,0.2c0.2,0,0.4,0.2,0.3,0.5c0,0,0,0,0,0C51.7,88.6,51.5,88.7,51.3,88.7
	z"/>
<path class="st0" d="M53.2,90.1L53.2,90.1c-2.4-0.3-4.7-0.7-7-1.3c-3.7-0.9-7.5-1.8-10.5-1.4c-0.2,0-0.4-0.1-0.5-0.3
	c0-0.2,0.1-0.4,0.3-0.5c0,0,0.1,0,0.1,0c3.2-0.4,7.1,0.5,10.8,1.4c2.3,0.6,4.6,1.1,6.9,1.3c0.2,0,0.4,0.2,0.4,0.4c0,0,0,0,0,0
	C53.6,89.9,53.4,90.1,53.2,90.1C53.2,90.1,53.2,90.1,53.2,90.1z"/>
<path class="st0" d="M55.4,90.1c-0.8,0-1.5,0-2.2-0.1c-0.2,0-0.4-0.2-0.4-0.4c0-0.2,0.2-0.4,0.4-0.4c0,0,0,0,0,0
	c3.2,0.2,6.4,0,9.6-0.6c0.2,0,0.4,0.1,0.5,0.3c0,0.2-0.1,0.4-0.3,0.5c0,0,0,0,0,0C60.5,89.9,57.9,90.1,55.4,90.1z"/>
<path class="st0" d="M54.9,88.8c-0.6,0-1.1,0-1.7-0.2c-0.2,0-0.4-0.2-0.3-0.4c0,0,0,0,0,0c0-0.2,0.2-0.4,0.5-0.3
	c1.7,0.2,3.4,0.1,5-0.2c1.1-0.2,2.3-0.3,3.5-0.3l0,0c0.2,0,0.4,0.2,0.4,0.4c0,0.2-0.2,0.4-0.4,0.4h0c-1.1,0-2.2,0.2-3.3,0.3
	C57.2,88.6,56.1,88.7,54.9,88.8z"/>
<path class="st0" d="M61.5,87.9c-0.1,0-0.2,0-0.3-0.1c-0.5-0.5-1.1-1-1.7-1.7c-1.2-1.1-2.5-2.4-3.3-3.3L56,82.6
	c-0.2-0.2-0.4-0.5-0.6-0.7c-0.2-0.2-0.5-0.3-0.7-0.5c-0.2-0.1-0.3-0.2-0.5-0.3c-0.5-0.3-0.9-0.7-1.3-1.2c-0.1-0.2-0.1-0.4,0.1-0.6
	c0.2-0.1,0.4-0.1,0.5,0.1c0,0,0,0,0,0c0.3,0.4,0.7,0.8,1.1,1.1l0.5,0.3c0.3,0.2,0.6,0.4,0.8,0.6c0.3,0.2,0.5,0.5,0.7,0.8l0.2,0.3
	c0.8,0.9,2.1,2.2,3.3,3.3c0.6,0.6,1.2,1.2,1.7,1.7c0.2,0.2,0.2,0.4,0,0.6c0,0,0,0,0,0C61.7,87.9,61.6,87.9,61.5,87.9z"/>
<path class="st0" d="M73.5,102.6c-0.1,0-0.3-0.1-0.3-0.2c-0.2-0.4-1.1-1.4-2-2.5c-0.7-0.9-1.5-1.8-1.9-2.4l-3.9-5.2
	c-0.8-1.1-1.8-2.1-2.9-3c-0.2-0.1-0.2-0.4-0.1-0.6c0,0,0,0,0,0c0.1-0.2,0.4-0.2,0.5-0.1c0,0,0,0,0,0c1.2,0.9,2.2,2,3,3.2l3.9,5.2
	c0.5,0.6,1.2,1.5,1.9,2.3c0.9,1.1,1.8,2.1,2,2.6c0.1,0.2,0.1,0.4-0.1,0.5c0,0,0,0,0,0C73.6,102.6,73.6,102.6,73.5,102.6z"/>
<path class="st0" d="M74.4,102.1c-0.1,0-0.2-0.1-0.3-0.2c-0.9-1.3-2.5-3.3-4-5.3s-3.1-4.1-4-5.3c-0.1-0.2-0.1-0.4,0.1-0.6
	c0.2-0.1,0.4-0.1,0.6,0.1c0.9,1.3,2.5,3.3,4,5.3s3.1,4,4,5.3c0.1,0.2,0.1,0.4-0.1,0.6C74.5,102,74.5,102.1,74.4,102.1z"/>
<path class="st0" d="M65.3,90.8c-0.1,0-0.3-0.1-0.3-0.2c-1-1.3-2.1-2.6-3.3-3.8c-0.7-0.8-1.3-1.3-1.5-1.7c-0.4-0.5-0.9-1-1.4-1.4
	c-0.6-0.6-1.2-1.2-1.8-1.8c-0.2-0.3-0.5-0.5-0.7-0.8c-0.5-0.6-1.1-1-1.8-1.3h-0.1c-0.2-0.1-0.4-0.2-0.5-0.3
	c-0.5-0.4-0.7-1.1-0.5-1.8c0.1-0.2,0.3-0.3,0.5-0.2c0.2,0.1,0.3,0.3,0.2,0.5l0,0c-0.1,0.3,0,0.6,0.2,0.8c0.1,0.1,0.3,0.1,0.4,0.2
	h0.1c0.8,0.3,1.5,0.8,2.1,1.5l0.7,0.8c0.5,0.6,1.1,1.2,1.7,1.7c0.6,0.5,1.1,1,1.5,1.6c0.2,0.3,0.8,0.9,1.5,1.6
	c1.2,1.2,2.4,2.5,3.4,3.9c0.1,0.2,0.1,0.4-0.1,0.5c0,0,0,0,0,0C65.5,90.7,65.4,90.8,65.3,90.8z"/>
<path class="st0" d="M118.6,67.4c-0.1,0-0.2,0-0.2-0.1c-0.1-0.1-0.1-0.3,0-0.4c0.9-0.9,1.9-1.8,3-2.6c1.1-0.8,2.1-1.7,3-2.6l0.2-0.2
	c0.3-0.3,0.6-0.6,1-0.9c0.4-0.3,0.7-0.5,1.2-0.6c0.1,0,0.3,0,0.3,0.2c0,0,0,0,0,0c0,0.2,0,0.3-0.2,0.4c-0.4,0.1-0.7,0.3-1,0.5
	c-0.3,0.3-0.6,0.5-0.9,0.8l-0.2,0.2c-1,0.9-2,1.8-3.1,2.7c-1,0.8-2,1.7-3,2.6C118.7,67.3,118.6,67.4,118.6,67.4z"/>
<path class="st0" d="M118.2,65.9c-0.1,0-0.2-0.1-0.3-0.2c-0.1-0.1,0-0.3,0.1-0.4c1.9-1.2,3.7-2.5,5.4-4.1l0.4-0.4c1-1,2-2.1,3.4-2.2
	c0.2,0,0.3,0.1,0.3,0.3c0,0,0,0,0,0c0,0.2-0.1,0.3-0.3,0.3c-1.2,0.1-2.1,1.1-3,2.1l-0.4,0.4c-1.7,1.6-3.5,3-5.5,4.2
	C118.3,65.9,118.2,65.9,118.2,65.9z"/>
<path class="st0" d="M127.5,58.9L127.5,58.9c-0.2,0-0.4-0.2-0.4-0.4c0,0,0,0,0,0c0-1.1,0.4-7.3,0.8-11.8c0.1-2,0.3-3.5,0.3-4
	c0-0.2,0.2-0.4,0.4-0.4c0.2,0,0.4,0.2,0.4,0.4l0,0c0,0.5-0.1,2-0.3,4c-0.3,4.2-0.8,10.7-0.8,11.8C127.9,58.7,127.8,58.9,127.5,58.9
	C127.6,58.9,127.5,58.9,127.5,58.9z"/>
<path class="st0" d="M129.3,58.8c-0.2,0-0.4-0.1-0.4-0.3c-0.1-0.4,1-13.7,1-13.7c0-0.1,0-0.2,0-0.3l0.1-1.5c0-0.2,0.1-0.4,0.3-0.5
	c0.2,0,0.4,0.1,0.5,0.3c0,0,0,0.1,0,0.1l-0.1,1.5c0,0.2,0,0.3-0.1,0.5c-0.1,0.5-1,12.9-1,13.4C129.6,58.5,129.5,58.7,129.3,58.8
	L129.3,58.8z"/>
<path class="st0" d="M127.1,61.1L127.1,61.1c-0.2,0-0.4-0.2-0.4-0.4c0,0,0,0,0,0c0-0.5,0-1,0-1.5c0-0.1,0-0.3,0.2-0.4
	c0.1-0.1,0.3-0.1,0.4-0.1c0.4,0.1,0.7,0.3,1,0.6c0.1,0.1,0.2,0.1,0.3,0.2l0.1-0.1l0.7-0.7c0.2-0.1,0.4-0.1,0.6,0
	c0.1,0.2,0.1,0.4,0,0.5l-0.7,0.7c-0.1,0.2-0.3,0.3-0.6,0.3c-0.3,0-0.6-0.1-0.8-0.3l-0.2-0.2c0,0.3,0,0.7,0,1
	C127.6,61,127.4,61.1,127.1,61.1C127.1,61.1,127.1,61.1,127.1,61.1z"/>
<path class="st0" d="M46.6,93.6c-0.2,0-0.5-0.1-0.7-0.2c-0.2-0.1-0.3-0.3-0.3-0.4c0-0.2,0-0.4,0-0.6c0.1-0.9,0.3-1.8,0.9-1.9l0,0
	c0.1,0,0.1,0,0.2-0.1c0.3-0.2,0.6-0.2,0.9-0.1c0.3,0.2,0.4,0.4,0.5,0.7c0,0.2,0.1,0.4,0.1,0.7s0.1,0.5,0.1,0.7c0,0.2,0,0.3,0,0.5
	c-0.1,0.2-0.3,0.4-0.5,0.4C47.5,93.5,47,93.6,46.6,93.6z M46.4,92.8c0.4,0.1,0.8,0,1.1-0.2h0.1l0,0c0-0.2-0.1-0.4-0.1-0.7
	s-0.1-0.5-0.1-0.6c0-0.1,0-0.1,0-0.2c-0.1,0-0.1,0-0.2,0.1c-0.1,0.1-0.3,0.1-0.4,0.2c-0.2,0.4-0.3,0.8-0.3,1.2
	C46.4,92.5,46.4,92.7,46.4,92.8z"/>
<path class="st0" d="M46.9,87.7L46.9,87.7c-0.2,0-0.4-0.2-0.4-0.4c0,0,0,0,0,0c0-0.2,0.2-1.4,0.5-3.5c0.2-1.6,0.5-3.3,0.5-3.5
	c0-0.2,0.3-0.4,0.5-0.3c0.2,0,0.3,0.2,0.3,0.4c0,0.2-0.2,1.4-0.5,3.5c-0.2,1.6-0.5,3.3-0.5,3.5C47.3,87.5,47.1,87.7,46.9,87.7z"/>
<path class="st0" d="M47.6,87.9L47.6,87.9c-0.3,0-0.4-0.2-0.4-0.5c0,0,0,0,0,0c0-0.1,0.3-2.1,0.5-3.8c0.3-2.3,0.5-3.7,0.6-3.9
	c0-0.2,0.2-0.4,0.5-0.3c0,0,0,0,0,0c0.2,0,0.3,0.2,0.3,0.5c0,0.1-0.3,2.1-0.6,3.8C48.3,86,48,87.4,48,87.6
	C48,87.7,47.8,87.9,47.6,87.9z"/>
<path class="st0" d="M46.6,91.3c-0.2,0-0.4-0.1-0.4-0.3c-0.2-0.8-0.2-1.6,0-2.3c0-0.2,0.2-0.4,0.5-0.3c0.2,0,0.4,0.2,0.3,0.4
	c-0.1,0.7-0.1,1.4,0,2.1C47,91,46.9,91.2,46.6,91.3L46.6,91.3z"/>
<path class="st0" d="M47.3,91c-0.2,0-0.4-0.2-0.4-0.4c-0.1-0.6-0.1-1.2,0-1.8c0-0.2,0.2-0.4,0.5-0.3c0.2,0,0.4,0.2,0.3,0.4
	c-0.1,0.5-0.1,1.1,0,1.6C47.7,90.8,47.6,91,47.3,91L47.3,91z"/>
<path class="st0" d="M48,79c-0.2,0-0.3-0.1-0.4-0.2c-0.1-0.1-0.1-0.3,0-0.4c0.1-0.4,0.2-0.9,0.1-1.3c-0.5-2.9-0.8-5.8-0.9-8.8l0,0
	c0-0.5,0.1-0.5,0.3-0.5c0.2,0,0.4,0.1,0.5,0.3c0,0,0,0,0,0c0,0.1,0,0.1,0,0.2c0,0.6,0.3,3.7,0.9,8.7c0,0.6,0,1.2-0.2,1.7
	C48.4,78.8,48.3,79,48,79L48,79z"/>
<path class="st0" d="M49,78.4c-0.2,0-0.4-0.1-0.4-0.3c0-0.3,0-0.6,0-0.8c0-0.1,0-0.2,0-0.3c0-1.5-0.3-4-0.5-5.9
	c-0.2-1.1-0.3-2.2-0.3-3.3c0.1-0.2,0.3-0.3,0.5-0.3c0,0,0,0,0,0c0.2,0.1,0.3,0.3,0.3,0.5c0,0.3,0.1,1.7,0.3,3c0.2,2,0.5,4.4,0.5,6
	v0.3c0,0.3,0,0.5,0,0.8C49.4,78.2,49.3,78.4,49,78.4C49.1,78.4,49.1,78.4,49,78.4L49,78.4z"/>
<path class="st0" d="M47,68c-0.2,0-0.4-0.2-0.4-0.4L46,58.9c0-0.2,0.1-0.4,0.3-0.4c0,0,0,0,0,0c0.2,0,0.4,0.1,0.4,0.3c0,0,0,0,0,0
	l0.6,8.7C47.4,67.8,47.3,68,47,68C47.1,68,47.1,68,47,68L47,68z"/>
<path class="st0" d="M47.9,68.1c-0.2,0-0.4-0.2-0.4-0.4c-0.3-3-0.5-5.9-0.7-8.9c0-0.2,0.2-0.4,0.4-0.4c0.2,0,0.4,0.1,0.4,0.4
	c0,0,0,0,0,0c0.2,3,0.4,6,0.7,8.9C48.3,67.8,48.2,68,47.9,68.1L47.9,68.1z"/>
<path class="st0" d="M46.8,59.5c-0.3,0-0.5-0.1-0.7-0.3c-0.4-0.3-0.7-0.7-0.9-1.2c-0.2-0.6-0.1-1.2,0.3-1.6l0.1-0.1
	c-0.1-0.3-0.1-0.7,0-1c0-0.1,0-0.1,0-0.2c0-0.1,0.1-0.3,0.3-0.3c0.1-0.1,0.3-0.2,0.4-0.2c0.4,0,0.6,0.3,0.6,0.8c0,0.2,0,0.4,0,0.7
	c0,0.1,0,0.2,0,0.3c0.2,0.1,0.3,0.2,0.4,0.3c0.6,0.6,0.8,1.4,0.4,2.2C47.5,59.2,47.2,59.5,46.8,59.5L46.8,59.5z M45.9,57.3
	c0,0.2,0,0.3,0,0.5c0.1,0.3,0.4,0.6,0.6,0.8c0.2,0.1,0.2,0.1,0.2,0.1s0.1-0.1,0.2-0.2c0.2-0.4,0.1-1-0.3-1.3
	c-0.1-0.1-0.2-0.1-0.3-0.2c0,0-0.1,0-0.1,0C46.2,57.2,46,57.2,45.9,57.3L45.9,57.3z"/>
<path class="st0" d="M39.3,72.3c-0.1,0-0.3,0-0.4-0.1c-0.1-0.1-0.2-0.2-0.2-0.4c-0.1-0.5,0-0.9,0.1-1.4c0.1-0.3,0.3-0.5,0.5-0.8
	l2.5-3c0.1-0.2,0.4-0.2,0.5-0.1c0.2,0.1,0.2,0.3,0.1,0.5l0.1-0.1c0.2-0.1,0.4-0.1,0.6,0c0.1,0.1,0.1,0.3,0,0.5
	c-0.9,1.1-1.8,2.2-2.6,3.3c-0.1,0.2-0.2,0.4-0.3,0.6v0.2c0,0.2,0,0.5-0.2,0.7c-0.1,0.1-0.2,0.1-0.3,0.1L39.3,72.3L39.3,72.3z
	 M40.7,69.3l-0.7,0.9c-0.2,0.2-0.3,0.4-0.4,0.6c-0.1,0.3-0.1,0.6-0.1,0.8l0,0l0,0c0-0.1,0-0.1,0-0.2c0-0.4,0.2-0.7,0.4-1
	C40.2,70,40.4,69.6,40.7,69.3z"/>
<path class="st0" d="M39.8,74.2h-0.1h-0.5c-0.2,0-0.4-0.1-0.6-0.2c-0.2-0.2-0.2-0.5-0.2-0.8c0-0.1,0.1-0.2,0.1-0.3c0,0,0-0.1,0-0.1
	c0.1-0.3,0.2-0.6,0.1-0.8c0-0.2,0.2-0.4,0.4-0.4l0,0c0.2,0,0.4,0.2,0.4,0.4c0,0.4-0.1,0.8-0.2,1.2l-0.1,0.1l-0.1,0.1l0,0
	c0.2,0,0.3,0,0.5,0c0.1,0,0.1,0,0.2,0c-0.2-0.5-0.3-0.9-0.3-1.4c0-0.2,0.2-0.4,0.4-0.4c0,0,0,0,0,0l0,0c0.2,0,0.4,0.2,0.4,0.4
	c0,0,0,0,0,0c0,0.4,0.1,0.8,0.3,1.1c0.1,0.1,0.1,0.2,0.1,0.4c0,0.3-0.2,0.6-0.5,0.7C40.1,74.1,39.9,74.2,39.8,74.2z"/>
<path class="st0" d="M68.5,51.7L68.5,51.7c-0.2,0-0.3-0.2-0.4-0.3c0-0.2,0.1-0.4,0.3-0.5c0.1,0,0.1,0,0.2,0l1.9-0.6l0,0l0.1-1.8
	c0-0.2,0.2-0.4,0.5-0.3c0.2,0,0.3,0.2,0.3,0.3l-0.1,1.8c0,0.2-0.1,0.4-0.2,0.5C71,50.9,70.9,51,70.8,51l-2,0.6l0,0
	C68.7,51.7,68.6,51.7,68.5,51.7z"/>
<path class="st0" d="M72,68.3c-0.8,0-1.5-0.5-1.9-1.2c-0.4-0.8-0.5-1.7-0.4-2.6l0.3-13.6c0-0.2,0.2-0.4,0.4-0.4c0,0,0,0,0,0
	c0.2,0,0.4,0.2,0.4,0.4l-0.3,13.6c-0.1,0.8,0,1.5,0.3,2.3c0.3,0.6,0.9,0.9,1.6,0.7c0.2-0.1,0.4-0.1,0.5,0.1c0.1,0.2,0.1,0.4-0.1,0.5
	c0,0,0,0-0.1,0C72.5,68.3,72.2,68.3,72,68.3z"/>
<path class="st0" d="M71.4,69c-1.2-0.1-2.1-0.9-2.4-2.1c-0.2-1-0.2-2.1,0-3.1l0.1-0.5c0.2-2,0.2-4.1,0.1-6.1
	c-0.1-2.1-0.1-4.2,0.1-6.2c0-0.2,0.3-0.4,0.5-0.3c0.2,0,0.3,0.2,0.3,0.4c-0.2,2-0.2,4.1-0.1,6.1c0.1,2.1,0,4.2-0.2,6.2L69.7,64
	c-0.2,0.9-0.2,1.9,0,2.8c0.3,0.9,1.2,1.7,2,1.4c0.2-0.1,0.4,0.1,0.5,0.3c0,0,0,0,0,0c0.1,0.2-0.1,0.4-0.3,0.5
	C71.8,69,71.6,69,71.4,69z"/>
<path class="st0" d="M93,36.5c-0.2,0-0.4-0.2-0.4-0.4s0.2-0.4,0.4-0.4l3.7-0.1c0.2,0,0.4,0.2,0.4,0.4c0,0.2-0.2,0.4-0.4,0.4L93,36.5
	z"/>
<path class="st0" d="M130.6,18.7c-0.1,0-0.3,0-0.4-0.1c-0.2-0.1-0.2-0.3-0.3-0.5l-0.2-1.5c0-0.2,0.1-0.4,0.4-0.4
	c0.2,0,0.4,0.1,0.4,0.3c0,0,0,0,0,0l0.1,1.4l1.4-0.2h0.1l0,0c0-0.4,0-0.8-0.2-1.2c-0.1-0.2,0-0.4,0.3-0.5c0.2-0.1,0.4,0,0.5,0.2
	c0.2,0.5,0.2,1,0.2,1.5c0,0.2-0.1,0.4-0.2,0.5c-0.1,0.1-0.3,0.2-0.5,0.2l-1.4,0.2L130.6,18.7z"/>
<path class="st0" d="M128.6,43.5c-0.2,0-0.4-0.2-0.4-0.3c-0.1-0.7,2.1-24.4,2.2-24.6c0-0.2,0.3-0.4,0.5-0.3c0.2,0,0.3,0.2,0.3,0.4
	c0,0.2-2.2,23.6-2.2,24.4C129,43.3,128.9,43.5,128.6,43.5L128.6,43.5z"/>
<path class="st0" d="M130.4,43.4c-0.2,0-0.4-0.2-0.4-0.4c-0.1-1.1,1.8-24.2,2-25c0.1-0.2,0.3-0.3,0.5-0.3c0.2,0.1,0.3,0.3,0.3,0.5
	c0,0,0,0,0,0c-0.2,0.8-2,23.7-1.9,24.7C130.8,43.1,130.7,43.3,130.4,43.4C130.4,43.3,130.4,43.3,130.4,43.4L130.4,43.4z"/>
<path class="st0" d="M132.5,7.8c-0.1,0-0.2,0-0.2,0h-0.1c-0.2,0-0.5-0.1-0.6-0.3c-0.1-0.1-0.1-0.3-0.1-0.4l0.1-1
	c0-0.1,0.1-0.3,0.2-0.3h0.1l0,0c0.2-0.1,0.4-0.1,0.6-0.1c0.1,0,0.3,0.1,0.4,0.1C133,6,133,6.1,133,6.3l-0.1,1.1
	c0,0.2-0.1,0.4-0.3,0.5L132.5,7.8z"/>
<path class="st0" d="M132.6,10.8L132.6,10.8c-0.5,0-0.9,0-1.3-0.1c-0.2,0-0.4-0.1-0.6-0.3c-0.1-0.1-0.1-0.2-0.1-0.3
	c-0.1-0.8-0.1-1.6,0.1-2.3c0-0.2,0.1-0.4,0.3-0.5c0.1-0.1,0.2-0.1,0.4-0.2c0.2-0.1,0.5-0.1,0.7-0.1h0.6c0.1,0,0.2,0,0.4,0.1
	c0.1,0.1,0.2,0.2,0.2,0.4c0.2,0.9,0.2,1.8,0,2.7c0,0.2-0.1,0.4-0.3,0.5C132.8,10.8,132.7,10.9,132.6,10.8z M131.4,10
	c0.3,0,0.7,0.1,1,0.1c0.1-0.7,0.1-1.5,0-2.2h-0.6l0,0c-0.1,0-0.2,0-0.3,0l0,0c0,0,0,0,0,0.1C131.4,8.6,131.3,9.3,131.4,10z"/>
<path class="st0" d="M135.7,14.9l-6.9-0.2c-1,0-1.7-0.1-2.5-0.1c-2,0-4-0.5-5.8-1.4c-0.3-0.1-1-0.5-1-1.3c0-0.4,0.2-0.8,0.6-1.1
	c0.6-0.4,1.2-0.7,1.9-0.9c2.9-0.7,5.9-1.1,8.9-1.1c0.2,0,0.4,0.2,0.4,0.4c0,0,0,0,0,0c0,0.2-0.2,0.4-0.4,0.4c-2.9,0-5.9,0.4-8.7,1.1
	c-0.6,0.1-1.1,0.4-1.6,0.7c-0.1,0.1-0.3,0.3-0.3,0.4c0,0.2,0.2,0.4,0.6,0.6c1.7,0.8,3.6,1.3,5.4,1.3c1,0,1.7,0,2.5,0.1l6.8,0.2
	c1.3,0,2.6-0.2,3.9-0.4l1.3-0.2c0.8-0.1,1.5-0.2,2.3-0.4c0.3-0.1,0.6-0.3,0.8-0.6c0.1-0.4,0-0.8-0.3-1.1c-0.4-0.3-0.9-0.5-1.4-0.6
	h-0.1l-1.3-0.3c-0.7-0.1-1.1-0.2-1.3-0.3l0,0c-2.3-0.3-3.8-0.4-5.2-0.5c-0.5,0-1.1-0.1-1.7-0.1c-0.2,0-0.4-0.2-0.4-0.4c0,0,0,0,0,0
	c0-0.2,0.2-0.4,0.4-0.4l1.7,0.1c1.4,0.1,3,0.2,5.3,0.5h0.1l1.3,0.3c0.7,0.1,1.1,0.2,1.4,0.3l0,0c0.6,0.1,1.2,0.4,1.7,0.8
	c0.5,0.5,0.7,1.3,0.4,2c-0.3,0.5-0.7,0.8-1.3,1c-0.8,0.2-1.6,0.4-2.4,0.5l-1.4,0.2C138.4,14.7,137,14.8,135.7,14.9z"/>
<path class="st0" d="M132.7,16.8c-2,0-4-0.1-6-0.4c-2.4-0.3-5.1-0.6-7.4-2c-0.1-0.1-0.3-0.2-0.4-0.3c-0.3-0.4-0.3-1,0.1-1.4
	c0.3-0.3,0.6-0.5,1-0.6c0.2-0.1,0.4,0,0.5,0.2c0,0,0,0,0,0c0.1,0.2,0,0.4-0.2,0.5c-0.2,0.1-0.5,0.2-0.7,0.4
	c-0.1,0.1-0.1,0.2-0.1,0.4c0,0,0.1,0.1,0.2,0.1c2.1,1.3,4.7,1.6,7,1.9c2.7,0.3,5.3,0.4,8,0.3c0.7,0,6.2-0.6,7.9-1.2l0.2-0.1
	c0.4-0.1,0.7-0.3,0.9-0.5c0.2-0.2,0.3-0.7,0-0.8c-0.2-0.2-0.2-0.4,0-0.6c0.2-0.2,0.4-0.2,0.6,0c0.5,0.5,0.5,1.4,0.1,2
	c-0.3,0.4-0.8,0.6-1.3,0.8l-0.2,0.1c-2,0.8-8.1,1.3-8.1,1.3C134.1,16.8,133.4,16.8,132.7,16.8z"/>
<path class="st0" d="M144.3,88.2c0.1,0,0.2,0,0.3,0c0.2,0,0.3,0,0.5,0c0.2,0,0.5,0,0.7,0c0.2-0.1,0.3-0.3,0.3-0.5
	c-0.3-1.1-0.6-2.2-1-3.3c-0.2-0.5-0.4-1-0.5-1.5c-2.1-6.5-5.2-10.9-9.8-17.6l-1.1-1.6c-1.3-2-2.7-3.8-4.3-5.6
	c-0.1-0.2-0.4-0.2-0.6,0c0,0,0,0,0,0c-0.2,0.2-0.2,0.4,0,0.6c1.5,1.8,2.9,3.6,4.2,5.5l1.1,1.7c4.6,6.6,7.7,11,9.7,17.3
	c0.2,0.5,0.3,1,0.5,1.5c0.3,0.9,0.6,1.8,0.9,2.8h-0.1h-0.4c-0.4-1-0.7-1.8-1-2.7c-0.4-1.2-0.9-2.7-2.1-5.6c-1.9-4.7-5-8.9-7.9-12.9
	c-1-1.3-2-2.7-2.9-4l-0.1-0.2c-0.6-1-1.4-1.8-2.4-2.4l0,0c-0.2-0.1-0.4,0-0.5,0.3c-0.1,0.2,0,0.4,0.2,0.5c0.9,0.5,1.6,1.3,2.1,2.2
	l0.1,0.2c1,1.4,2,2.7,2.9,4.1c2.9,4,5.9,8.1,7.8,12.7c1.2,2.8,1.7,4.3,2.1,5.5c0.3,1,0.6,1.8,1.1,3
	C144.2,88.2,144.3,88.2,144.3,88.2z"/>
<path class="st0" d="M142.7,91.3c-0.1-0.2-0.2-0.4-0.1-0.7c0.1-0.6,0.2-1.1,0.3-1.7c0.1-0.4,0.3-0.8,0.6-1.2
	c0.5-0.6,1.3-0.8,2.1-0.6h0.1l0,0c0.5,0.3,0.8,0.8,0.9,1.3c0.2,0.8,0.3,1.6,0.2,2.4c0,0.2,0,0.5-0.2,0.7c-0.4,0.5-1.1,0.4-1.3,0.4
	l-2-0.4c-0.1,0-0.2-0.1-0.4-0.1C142.9,91.5,142.8,91.4,142.7,91.3z M145.4,88.1L145.4,88.1c-0.5-0.1-1,0-1.3,0.4
	c-0.2,0.2-0.3,0.5-0.4,0.8c-0.1,0.5-0.2,1-0.3,1.5c0,0,0,0.1,0,0.1h0.1l2,0.4c0.4,0.1,0.5,0,0.5,0c0-0.1,0-0.2,0-0.2
	c0-0.7,0-1.5-0.2-2.2C145.7,88.4,145.6,88.2,145.4,88.1L145.4,88.1z"/>
<path class="st0" d="M128.9,71.6c-0.8,0-1.5,0-2.3-0.1c-0.2,0-0.4-0.2-0.4-0.4c0,0,0,0,0,0c0-0.2,0.2-0.4,0.4-0.4c0,0,0,0,0,0
	c3.2,0.2,6.4,0,9.6-0.7c0.2,0,0.4,0.1,0.5,0.3c0,0.2-0.1,0.4-0.3,0.5c0,0,0,0,0,0C134,71.3,131.4,71.6,128.9,71.6z"/>
<path class="st0" d="M126.9,70.2c-0.7,0-1.3,0-2-0.1c-0.2,0-0.4-0.2-0.4-0.4c0,0,0,0,0,0c0.1-0.2,0.3-0.4,0.6-0.3c2,0.2,4,0.1,6-0.2
	c1.4-0.2,2.8-0.3,4.2-0.3l0,0c0.2,0,0.5,0.2,0.5,0.4c0,0,0,0,0,0c0,0.2-0.2,0.4-0.5,0.4c-1.3,0-2.7,0.1-4,0.3
	C129.8,70.1,128.4,70.2,126.9,70.2z"/>
<path class="st0" d="M125,69.4l-1-0.2c-0.5-0.1-0.9-0.2-1.3-0.3l-4.3-1.1c0.2,0.3,0.3,0.6,0.4,0.9l3.7,0.9c0.5,0.1,0.9,0.2,1.4,0.3
	l1,0.2h0.1c0.2,0,0.4-0.1,0.4-0.3C125.4,69.6,125.2,69.4,125,69.4z"/>
<path class="st0" d="M126.7,70.7c-2.3-0.3-4.7-0.7-6.9-1.3l-1-0.2c0,0.2,0,0.4,0,0.6c0,0.1,0,0.2,0,0.3l0.8,0.2
	c2.3,0.6,4.6,1.1,7,1.4l0,0c0.2,0,0.4-0.2,0.4-0.4s-0.2-0.4-0.4-0.4H126.7z"/>
</svg>
