<?xml version="1.0" encoding="utf-8"?>
<!-- Generator: Adobe Illustrator 22.0.1, SVG Export Plug-In . SVG Version: 6.00 Build 0)  -->
<svg version="1.1" id="Layer_1" xmlns="http://www.w3.org/2000/svg" xmlns:xlink="http://www.w3.org/1999/xlink" x="0px" y="0px"
	 width="167px" height="110px" viewBox="0 0 167 110" style="enable-background:new 0 0 167 110;" xml:space="preserve">
<style type="text/css">
	.st0{fill:#F8CA11;}
	.st1{fill:none;stroke:#F8CA11;stroke-miterlimit:10;}
	.st2{fill:none;stroke:#F8CA11;stroke-width:0.5;stroke-miterlimit:10;}
</style>
<title>guitar</title>
<rect x="31.3" y="62.1" transform="matrix(0.9205 -0.3907 0.3907 0.9205 -24.4625 17.7835)" class="st0" width="0.4" height="13.9"/>
<rect x="140.3" y="19.1" transform="matrix(0.9205 -0.3907 0.3907 0.9205 2.3302 56.7756)" class="st0" width="0.7" height="7.1"/>
<path class="st1" d="M150.2,26.5c0.2,0.4,0.9,0.5,1.5,0.3s1-0.8,0.9-1.3c-0.2-0.3-0.5-0.4-0.8-0.4l-0.4-0.8c0.6-0.5,1.3-1.1,2-1.6
	l0.1,0.4c-0.3,0.2-0.4,0.5-0.3,0.7s0.8,0.4,1.4,0.1s1.1-0.8,0.9-1.1s-0.4-0.3-0.7-0.3l-0.3-0.6c0.7-0.4,1.4-0.9,2.2-1.3l0.1,0.3
	c-0.3,0.2-0.4,0.5-0.3,0.7s0.8,0.3,1.4,0s1.1-0.7,1-1s-0.3-0.3-0.7-0.2l-0.2-0.4c1.3-0.6,2.6-1.1,3.9-1.5c-2.4-2-3.7-5-3.4-8.1
	c-1.2,0.7-2.5,1.2-3.8,1.8l-0.2-0.4c0.3-0.2,0.4-0.5,0.3-0.7s-0.8-0.3-1.4,0s-1.1,0.7-1,1s0.3,0.3,0.7,0.2l0.1,0.3
	c-0.8,0.3-1.6,0.5-2.4,0.7l-0.3-0.6c0.3-0.2,0.4-0.5,0.3-0.7s-0.8-0.4-1.4-0.1s-1.1,0.8-0.9,1.1s0.4,0.3,0.7,0.3l0.1,0.4
	c-0.9,0.2-1.8,0.3-2.6,0.3l-0.4-0.8c0.2-0.2,0.3-0.5,0.2-0.8c-0.2-0.4-0.9-0.5-1.5-0.3s-1,0.8-0.9,1.3c0.2,0.3,0.4,0.4,0.8,0.4
	l0.1,0.3c-0.8,0-1.6,0-2.4-0.1c-0.3,2.2-1.5,4.3-3.4,5.5l1.4,3.2l1.4,3.3c2.2-0.5,4.5,0.1,6.4,1.4c0.5-0.6,1-1.2,1.5-1.8l0.1,0.3
	C150.2,25.9,150.1,26.2,150.2,26.5z"/>
<path class="st1" d="M60.7,33.2c0,0-5.5,8.9-20.3,6.7s-20.9-0.5-28.2,4.3S4.4,62.9,5.1,66s4.3,16.9,12,25.3s16.7,9.4,21.8,8
	s11.5-3.9,17.7-13s7.2-13.7,18.7-12.8s9.9-5.8,9.9-5.8c-0.3-1.2-1.1-2.2-2.2-2.6c-1.8-0.7-6.2-0.4-11.3-12.6s1.2-17.9,1.2-17.9
	c1.6-1.7,3.5-3.2,5.6-4.3c3.2-1.6,0.2-6.1-5.4-5.5S60.7,33.2,60.7,33.2z"/>
<path class="st1" d="M44.2,87.1c1.1-0.5,1.6-1.7,1.1-2.8s-1.7-1.6-2.8-1.1c-1.1,0.5-1.6,1.7-1.1,2.8C41.8,87.1,43.1,87.6,44.2,87.1z
	"/>
<path class="st1" d="M38.3,89.2c-0.5-1.1-1.7-1.6-2.8-1.1s-1.6,1.7-1.1,2.8c0.5,1.1,1.7,1.6,2.8,1.1C38.2,91.5,38.7,90.3,38.3,89.2
	C38.3,89.2,38.3,89.2,38.3,89.2z"/>
<path class="st1" d="M27.7,89.1c1.4,0.2,2.6-0.8,2.8-2.2s-0.8-2.6-2.2-2.8c-1.4-0.2-2.6,0.8-2.8,2.2c-0.1,0.9,0.3,1.8,1,2.3
	c-0.2,0.1-0.3,0.3-0.4,0.4c-0.2,0.5,0,1,0.5,1.1c0.4,0.2,0.9,0,1.1-0.4C27.8,89.5,27.8,89.3,27.7,89.1z"/>
<path class="st1" d="M60.1,65.6c-0.2,0.1-0.4,0-0.5-0.2c0,0,0,0,0,0l-6-14.2c-0.1-0.2,0-0.4,0.2-0.5c0,0,0,0,0,0l7.3-3.1
	c0.2-0.1,0.4,0,0.5,0.2l6,14.2c0.1,0.2,0,0.4-0.2,0.5c0,0,0,0,0,0L60.1,65.6z"/>
<path class="st0" d="M64.8,61.1l-4.5-10.6c-0.1-0.2-0.3-0.3-0.5-0.2l-3.3,1.4c-0.2,0.1-0.2,0.3-0.2,0.5l4.5,10.6
	c0.1,0.2,0.3,0.3,0.5,0.2h0l3.3-1.4C64.8,61.5,64.9,61.3,64.8,61.1z M57.2,52.5c-0.1-0.3,0-0.6,0.3-0.8c0,0,0,0,0,0
	c0.3-0.1,0.6,0,0.8,0.3s0,0.6-0.3,0.8l0,0C57.6,52.9,57.3,52.8,57.2,52.5C57.2,52.5,57.2,52.5,57.2,52.5z M58.9,51.8
	c-0.1-0.3,0-0.6,0.3-0.8c0,0,0,0,0,0c0.3-0.1,0.6,0,0.8,0.3c0.1,0.3,0,0.6-0.3,0.8C59.4,52.2,59,52,58.9,51.8
	C58.9,51.7,58.9,51.7,58.9,51.8L58.9,51.8z M58,54.4c-0.1-0.3,0-0.6,0.3-0.8c0,0,0,0,0,0c0.3-0.1,0.6,0,0.8,0.3c0,0,0,0,0,0
	c0.1,0.3,0,0.6-0.3,0.8S58.1,54.7,58,54.4L58,54.4z M59.8,53.6c-0.1-0.3,0-0.6,0.3-0.8c0.3-0.1,0.6,0,0.8,0.3c0.1,0.3,0,0.6-0.3,0.8
	C60.2,54.1,59.9,54,59.8,53.6C59.7,53.7,59.7,53.6,59.8,53.6L59.8,53.6z M58.8,56.3c-0.1-0.3,0-0.6,0.3-0.8c0.3-0.1,0.6,0,0.8,0.3
	c0.1,0.3,0,0.6-0.3,0.8c0,0,0,0,0,0C59.3,56.7,59,56.6,58.8,56.3C58.8,56.3,58.8,56.3,58.8,56.3L58.8,56.3z M60.6,55.6
	c-0.1-0.3,0-0.6,0.3-0.8c0,0,0,0,0,0c0.3-0.1,0.6,0,0.7,0.3c0,0,0,0,0,0c0.1,0.3,0,0.6-0.3,0.8c0,0,0,0,0,0
	C61,56,60.7,55.9,60.6,55.6C60.5,55.6,60.5,55.6,60.6,55.6L60.6,55.6z M59.6,58.2c-0.1-0.3,0-0.6,0.3-0.7c0.3-0.1,0.6,0,0.8,0.3
	c0,0,0,0,0,0c0.1,0.3,0,0.6-0.3,0.8C60.1,58.7,59.7,58.5,59.6,58.2C59.6,58.2,59.6,58.2,59.6,58.2L59.6,58.2z M61.3,57.5
	c-0.1-0.3,0-0.6,0.3-0.8c0.3-0.1,0.6,0,0.8,0.3c0.1,0.3,0,0.6-0.3,0.8S61.5,57.8,61.3,57.5L61.3,57.5z M60.4,60.2
	c-0.1-0.3,0-0.6,0.3-0.8c0.3-0.1,0.6,0,0.8,0.3c0.1,0.3,0,0.6-0.3,0.8C60.9,60.6,60.5,60.5,60.4,60.2C60.4,60.2,60.4,60.1,60.4,60.2
	L60.4,60.2z M62.2,59.4c-0.1-0.3,0-0.6,0.3-0.8c0.3-0.1,0.6,0,0.8,0.3c0,0,0,0,0,0c0.1,0.3,0,0.6-0.3,0.8c0,0,0,0,0,0
	C62.6,59.8,62.3,59.7,62.2,59.4L62.2,59.4z M61.2,62.1c-0.1-0.3,0-0.6,0.3-0.8c0.3-0.1,0.6,0.1,0.7,0.4c0.1,0.2,0,0.5-0.2,0.6
	C61.7,62.5,61.4,62.4,61.2,62.1C61.2,62.1,61.2,62.1,61.2,62.1L61.2,62.1z M63,61.3c-0.1-0.3,0-0.6,0.3-0.8c0,0,0,0,0,0
	c0.3-0.1,0.6,0,0.8,0.3c0.1,0.3,0,0.6-0.3,0.8C63.5,61.7,63.1,61.6,63,61.3z"/>
<path class="st1" d="M40.5,74c-0.2,0.1-0.4,0-0.5-0.2c0,0,0,0,0,0l-6-14.2c-0.1-0.2,0-0.4,0.2-0.5l7.3-3.1c0.2-0.1,0.4,0,0.5,0.2
	l6,14.2c0.1,0.2,0,0.4-0.2,0.5c0,0,0,0,0,0L40.5,74z"/>
<path class="st0" d="M45.2,69.4l-4.5-10.6c-0.1-0.2-0.3-0.3-0.5-0.2c0,0,0,0,0,0l-3.3,1.4c-0.2,0.1-0.2,0.3-0.2,0.5l4.5,10.6
	c0.1,0.2,0.3,0.3,0.5,0.2h0l3.3-1.4C45.2,69.8,45.3,69.6,45.2,69.4z M37.5,60.8c-0.1-0.3,0-0.6,0.3-0.8c0.3-0.1,0.6,0,0.8,0.3
	c0.1,0.3,0,0.6-0.3,0.8C38,61.2,37.6,61.1,37.5,60.8C37.5,60.8,37.5,60.8,37.5,60.8z M39.3,60c-0.1-0.3,0-0.6,0.3-0.8
	c0.3-0.1,0.6,0,0.8,0.3c0.1,0.3,0,0.6-0.3,0.8C39.7,60.5,39.4,60.3,39.3,60C39.3,60.1,39.3,60,39.3,60z M38.3,62.7
	c-0.1-0.3,0-0.6,0.3-0.8c0,0,0,0,0,0c0.3-0.1,0.6,0,0.8,0.3c0.1,0.3,0,0.6-0.3,0.8S38.4,63,38.3,62.7z M40.1,62
	c-0.1-0.3,0-0.6,0.3-0.8c0.3-0.1,0.6,0,0.8,0.3c0,0,0,0,0,0c0.1,0.3,0,0.6-0.3,0.8C40.5,62.4,40.2,62.3,40.1,62
	C40.1,62,40.1,62,40.1,62z M39.1,64.6c-0.1-0.3,0-0.6,0.3-0.8c0.3-0.1,0.6,0,0.8,0.3s0,0.6-0.3,0.8c0,0,0,0,0,0
	C39.6,65.1,39.3,64.9,39.1,64.6z M40.9,63.9c-0.1-0.3,0-0.7,0.3-0.8c0.3-0.1,0.7,0,0.8,0.3l0,0c0.1,0.3,0,0.6-0.3,0.8
	S41.1,64.2,40.9,63.9L40.9,63.9L40.9,63.9z M40,66.6c-0.1-0.3,0-0.6,0.3-0.8c0.3-0.1,0.6,0,0.8,0.3c0.1,0.3,0,0.6-0.3,0.8
	C40.5,67,40.1,66.9,40,66.6C40,66.6,40,66.6,40,66.6z M41.8,65.8c-0.1-0.3,0-0.6,0.3-0.8c0.3-0.1,0.6,0,0.8,0.3s0,0.6-0.3,0.8
	c0,0,0,0,0,0C42.2,66.3,41.9,66.1,41.8,65.8C41.7,65.8,41.7,65.8,41.8,65.8L41.8,65.8z M40.8,68.5c-0.1-0.3,0-0.6,0.3-0.8
	c0.3-0.1,0.6,0,0.8,0.3s0,0.6-0.3,0.8c0,0,0,0,0,0C41.2,68.9,40.9,68.8,40.8,68.5z M42.5,67.8c-0.1-0.3,0-0.6,0.3-0.8s0.6,0,0.8,0.3
	c0.1,0.3,0,0.6-0.3,0.8c0,0,0,0,0,0C43,68.2,42.6,68,42.5,67.8C42.5,67.7,42.5,67.7,42.5,67.8L42.5,67.8z M41.6,70.4
	c-0.1-0.3,0-0.6,0.3-0.8c0,0,0,0,0,0c0.3-0.1,0.6,0,0.8,0.3c0,0,0,0,0,0c0.1,0.3,0,0.6-0.3,0.8C42,70.9,41.7,70.7,41.6,70.4z
	 M43.3,69.7c-0.1-0.3,0-0.6,0.3-0.8c0.3-0.1,0.6,0,0.8,0.3s0,0.6-0.3,0.8c0,0,0,0,0,0C43.8,70.1,43.5,70,43.3,69.7L43.3,69.7z"/>
<path class="st1" d="M26,60.2l3.9-1.7c0.2-0.1,0.4,0,0.5,0.2l7.7,18.2c0.1,0.2,0,0.4-0.2,0.5L34,79.1c-0.2,0.1-0.4,0-0.5-0.2
	l-7.7-18.2C25.7,60.5,25.8,60.3,26,60.2z"/>
<path class="st1" d="M29.9,64c-0.7,0.3-1.5,0-1.8-0.7c-0.3-0.7,0-1.5,0.7-1.8c0.7-0.3,1.5,0,1.8,0.7C31,62.9,30.6,63.7,29.9,64
	C29.9,64,29.9,64,29.9,64z"/>
<path class="st1" d="M35.1,76.1c-0.7,0.3-1.5,0-1.8-0.7c0,0,0,0,0,0c-0.3-0.7-0.1-1.5,0.6-1.8c0.7-0.3,1.5-0.1,1.8,0.6
	c0,0,0,0.1,0.1,0.1C36.1,75,35.8,75.8,35.1,76.1C35.1,76.1,35.1,76.1,35.1,76.1z"/>
<path class="st0" d="M137.3,28.1c-0.1,0-0.1,0-0.2-0.1c0,0,0,0,0,0l-2.8-6.5c0,0,0-0.1,0-0.2c0,0,0,0,0,0l0,0c0.1,0,0.1,0,0.2,0.1
	c0,0,0,0,0,0l2.8,6.5C137.4,28,137.4,28.1,137.3,28.1C137.3,28.1,137.3,28.1,137.3,28.1L137.3,28.1z"/>
<path class="st0" d="M131.5,30.6c-0.1,0-0.1,0-0.1-0.1l-2.8-6.6c0-0.1,0-0.1,0-0.2c0,0,0,0,0,0l0,0c0.1,0,0.1,0,0.2,0.1l2.8,6.6
	C131.6,30.5,131.6,30.5,131.5,30.6C131.6,30.6,131.6,30.6,131.5,30.6L131.5,30.6z"/>
<path class="st0" d="M120.7,35.2c-0.1,0-0.1,0-0.1-0.1c0,0,0,0,0,0l-2.8-6.6c0-0.1,0-0.2,0-0.2l0,0c0.1,0,0.1,0,0.2,0.1l2.8,6.6
	C120.7,35.1,120.7,35.1,120.7,35.2C120.7,35.2,120.7,35.2,120.7,35.2L120.7,35.2z"/>
<path class="st0" d="M115.2,37.6c-0.1,0-0.1,0-0.2-0.1l-2.9-6.7c0-0.1,0-0.1,0-0.2l0,0c0.1,0,0.1,0,0.2,0.1l2.9,6.7
	C115.2,37.5,115.2,37.6,115.2,37.6L115.2,37.6z"/>
<path class="st0" d="M126.3,32.8c-0.1,0-0.1,0-0.2-0.1l-2.8-6.5c0-0.1,0-0.1,0-0.2l0,0c0.1,0,0.1,0,0.2,0.1l2.8,6.5
	C126.3,32.7,126.3,32.7,126.3,32.8L126.3,32.8z"/>
<path class="st0" d="M108.3,40.6c-0.1,0-0.1,0-0.2-0.1l-2.9-6.9c0-0.1,0-0.2,0-0.2l0,0c0.1,0,0.1,0,0.2,0.1l2.9,6.9
	C108.3,40.5,108.3,40.6,108.3,40.6L108.3,40.6z"/>
<path class="st0" d="M102.5,43.2c-0.1,0-0.1,0-0.2-0.1l-3-7c0-0.1,0-0.2,0-0.2l0,0c0.1,0,0.1,0,0.2,0.1l3,7
	C102.5,43.1,102.5,43.1,102.5,43.2L102.5,43.2z"/>
<path class="st0" d="M96.7,45.7c-0.1,0-0.1,0-0.2-0.1l-3-7.2c0-0.1,0-0.1,0-0.2l0,0c0.1,0,0.1,0,0.2,0.1l3,7.2
	C96.7,45.6,96.7,45.7,96.7,45.7L96.7,45.7z"/>
<path class="st0" d="M92.2,47.7c-0.1,0-0.1,0-0.2-0.1L89,40.3c0-0.1,0-0.1,0.1-0.2l0,0c0.1,0,0.1,0,0.2,0.1l3.1,7.3
	C92.3,47.5,92.3,47.6,92.2,47.7C92.3,47.7,92.3,47.7,92.2,47.7L92.2,47.7z"/>
<path class="st0" d="M87.7,49.6c-0.1,0-0.1,0-0.2-0.1l-3.1-7.3c0-0.1,0-0.2,0-0.2l0,0c0.1,0,0.1,0,0.2,0.1l3.1,7.3
	C87.8,49.5,87.8,49.6,87.7,49.6z"/>
<path class="st0" d="M83.8,51.3c0,0-0.1,0-0.2-0.1l-3.2-7.4c0-0.1,0-0.2,0-0.2l0,0c0.1,0,0.1,0,0.2,0.1l3.2,7.4
	C83.8,51.2,83.8,51.3,83.8,51.3L83.8,51.3z"/>
<path class="st0" d="M81.1,52.5c-0.1,0-0.1,0-0.2-0.1L77.7,45c0-0.1,0-0.1,0-0.2l0,0c0.1,0,0.1,0,0.2,0.1l3.2,7.4
	C81.1,52.4,81.1,52.4,81.1,52.5L81.1,52.5z"/>
<path class="st0" d="M78.2,53.8c-0.1,0-0.1,0-0.2-0.1l-3.2-7.5c0-0.1,0-0.1,0-0.2l0,0c0.1,0,0.1,0,0.2,0.1l3.2,7.5
	C78.2,53.7,78.2,53.8,78.2,53.8z"/>
<path class="st0" d="M75.5,55c-0.1,0-0.1,0-0.2-0.1l-3.2-7.6c0-0.1,0-0.2,0-0.2l0,0c0.1,0,0.1,0,0.2,0.1l3.2,7.6
	C75.5,54.9,75.5,54.9,75.5,55L75.5,55z"/>
<path class="st0" d="M72.7,56.3c-0.1,0-0.2,0-0.2-0.1c0,0,0,0,0,0l-3.3-7.8c0-0.1,0-0.2,0-0.2l0,0c0.1,0,0.1,0,0.2,0.1l3.3,7.8
	C72.7,56.2,72.7,56.3,72.7,56.3z"/>
<path class="st0" d="M70.7,57.2c-0.1,0-0.1,0-0.2-0.1l-3.3-7.8c0-0.1,0-0.2,0-0.2l0,0c0,0,0.1,0,0.2,0.1l3.3,7.8
	C70.7,57.1,70.7,57.2,70.7,57.2z"/>
<path class="st0" d="M68.8,58c-0.1,0-0.1,0-0.2-0.1L65.3,50c0-0.1,0-0.1,0-0.2l0,0c0.1,0,0.1,0,0.2,0.1l3.3,7.8
	C68.8,57.9,68.8,58,68.8,58L68.8,58z"/>
<rect x="25.2" y="46.8" transform="matrix(0.9205 -0.3907 0.3907 0.9205 -11.5353 37.044)" class="st2" width="120.2" height="0.1"/>
<rect x="25.6" y="48" transform="matrix(0.9205 -0.3907 0.3907 0.9205 -11.9535 37.3315)" class="st2" width="120.2" height="0.1"/>
<rect x="26.1" y="49.2" transform="matrix(0.9205 -0.3907 0.3907 0.9205 -12.3695 37.6193)" class="st2" width="120.2" height="0.1"/>
<rect x="23.7" y="43.3" transform="matrix(0.9205 -0.3907 0.3907 0.9205 -10.2813 36.1805)" class="st2" width="120.2" height="0.1"/>
<rect x="24.2" y="44.5" transform="matrix(0.9205 -0.3907 0.3907 0.9205 -10.6949 36.4711)" class="st2" width="120.2" height="0.1"/>
<rect x="24.7" y="45.7" transform="matrix(0.9205 -0.3907 0.3907 0.9205 -11.1148 36.7598)" class="st2" width="120.2" height="0.1"/>
</svg>
