<?xml version="1.0" encoding="utf-8"?>
<!-- Generator: Adobe Illustrator 22.0.1, SVG Export Plug-In . SVG Version: 6.00 Build 0)  -->
<svg version="1.1" id="Layer_1" xmlns="http://www.w3.org/2000/svg" xmlns:xlink="http://www.w3.org/1999/xlink" x="0px" y="0px"
	 width="204px" height="110px" viewBox="0 0 204 110" style="enable-background:new 0 0 204 110;" xml:space="preserve">
<style type="text/css">
	.st0{fill:none;stroke:#F8CA11;stroke-miterlimit:10;}
</style>
<title>sopro</title>
<path class="st0" d="M40.7,50.5c0,0.8-1.1,1.4-2.5,1.4H15.1c-1.4,0-2.5-0.7-2.5-1.4v-2.2c0-0.8,1.1-1.5,2.5-1.4h23.1
	c1.4,0,2.5,0.7,2.5,1.5V50.5z"/>
<path class="st0" d="M62.7,51.9c0,0.7-1,1.2-2.3,1.2H36.2c-1.3,0-2.3-0.5-2.3-1.2v-5c0-0.7,1-1.2,2.3-1.2h24.1
	c1.3,0,2.3,0.5,2.3,1.2V51.9z"/>
<path class="st0" d="M16.8,49.4c0,2.3-1.9,4.2-4.2,4.2s-4.2-1.9-4.2-4.2c0-2.3,1.9-4.2,4.2-4.2c0,0,0,0,0,0
	C14.9,45.2,16.8,47.1,16.8,49.4z"/>
<path class="st0" d="M14,53.6c-0.1,0.7-0.7,1.3-1.4,1.2h-3c-0.7,0.1-1.4-0.5-1.4-1.2c0,0,0,0,0,0v-8.3c0.1-0.7,0.7-1.3,1.5-1.2h3.1
	c0.7,0,1.3,0.5,1.4,1.2V53.6z"/>
<path class="st0" d="M89.8,86.3c1.2,0.1,2.3-0.8,2.4-2h-4.8C87.5,85.5,88.6,86.4,89.8,86.3z"/>
<path class="st0" d="M89.8,37c-3.3,0-6,2.3-6,5.2h12C95.8,39.3,93.1,37,89.8,37z"/>
<path class="st0" d="M106.2,86.3c1.2,0.1,2.3-0.8,2.4-2h-4.8C103.9,85.5,105,86.4,106.2,86.3C106.2,86.3,106.2,86.3,106.2,86.3z"/>
<path class="st0" d="M106.2,36.3c-3.3,0-6,2.3-6,5.2h11.9C112.2,38.6,109.5,36.3,106.2,36.3z"/>
<path class="st0" d="M122.6,86.3c1.2,0.1,2.3-0.8,2.4-2h-4.8C120.3,85.5,121.4,86.4,122.6,86.3z"/>
<path class="st0" d="M122.6,35.6c-3.3,0-6,2.3-6,5.2h11.9C128.6,37.9,125.9,35.6,122.6,35.6z"/>
<path class="st0" d="M63.1,53.9c8.3,0,72.3,0,72.3,0v-8.2H63.1c0,0-16.2,0-16.2,15.9s16.2,15.9,16.2,15.9h72.3v-8.2H63.1
	c-8.3,0-8-7.7-8-7.7S54.8,53.9,63.1,53.9z"/>
<path class="st0" d="M183.8,28.8c-9.3,9.6-14.5,10.7-21,12.9s-29.6,4.2-29.6,4.2v7.8c0,0,23,1.9,29.6,4.1s11.8,3.3,21,12.9
	s9.6,2.8,9.6,2.8V26C193.4,26,193,19.3,183.8,28.8z"/>
<path class="st0" d="M196,49.8c0,14.4-1.7,26-3.8,26s-3.8-11.6-3.8-26s1.7-26,3.8-26S195.9,35.5,196,49.8z"/>
<path class="st0" d="M147,77.8c0,1.2-1.3,2.2-2.9,2.2H82.7c-1.6,0-2.9-1-2.9-2.2v-8.5c0-1.2,1.3-2.2,2.9-2.2h61.5
	c1.6,0,2.9,1,2.9,2.2L147,77.8z"/>
<path class="st0" d="M125,53.9h-4.7v15.4h4.7V53.9z"/>
<path class="st0" d="M120.2,77.5v6.9c0,0.1,0.1,0.3,0.2,0.3h4.4c0.1,0,0.2-0.1,0.2-0.3v-6.9H120.2z"/>
<path class="st0" d="M125,45.7v-6.3c0-0.1-0.1-0.3-0.1-0.3h-4.4c-0.1,0-0.1,0.1-0.1,0.3v6.3L125,45.7z"/>
<path class="st0" d="M108.6,45.7v-6.3c0-0.1-0.1-0.3-0.2-0.3H104c-0.1,0-0.2,0.1-0.1,0.3v6.3L108.6,45.7z"/>
<path class="st0" d="M108.6,53.9h-4.7v15.4h4.7L108.6,53.9z"/>
<path class="st0" d="M103.8,77.5v6.8c0,0.2,0.1,0.3,0.2,0.3h4.4c0.1,0,0.1-0.1,0.1-0.3v-6.8H103.8z"/>
<path class="st0" d="M92.2,45.7v-6.3c0-0.1-0.1-0.3-0.2-0.3h-4.4c-0.1,0-0.2,0.1-0.2,0.3v6.3L92.2,45.7z"/>
<path class="st0" d="M92.2,53.9h-4.7v15.4h4.7V53.9z"/>
<path class="st0" d="M87.4,77.5v6.9c0,0.1,0.1,0.3,0.2,0.3H92c0.1,0,0.2-0.1,0.2-0.3v-6.9H87.4z"/>
<path class="st0" d="M139.9,50.5V67h2.1V52.8c6.6,0,11.9,4.3,11.9,9.7c0,3.9-2.8,7.2-6.8,8.7v2c5.3-2,8.9-6,8.9-10.7
	C155.9,55.9,148.7,50.5,139.9,50.5z"/>
</svg>
