<?xml version="1.0" encoding="utf-8"?>
<!-- Generator: Adobe Illustrator 22.0.1, SVG Export Plug-In . SVG Version: 6.00 Build 0)  -->
<svg version="1.1" id="Layer_1" xmlns="http://www.w3.org/2000/svg" xmlns:xlink="http://www.w3.org/1999/xlink" x="0px" y="0px"
	 width="204px" height="111px" viewBox="0 0 204 111" style="enable-background:new 0 0 204 111;" xml:space="preserve">
<style type="text/css">
	.st0{fill:none;stroke:#F8CA11;stroke-miterlimit:10;}
	.st1{fill:#F8CA11;}
</style>
<title>teclado</title>
<path class="st0" d="M185.7,72.9c0,3.2-2.3,5.8-5.1,5.8H23.5c-2.8,0-5.1-2.6-5.1-5.8V38.1c0-3.2,2.3-5.8,5.1-5.8h157.1
	c2.8,0,5.1,2.6,5.1,5.8V72.9z"/>
<path class="st0" d="M180.6,32.3H23.5c-2.8,0-5.1,2.6-5.1,5.8V41c0,0,2.4-4.2,15.9-4.2h143.2c0,0,5.3,0.3,8.3,4.2v-2.9
	C185.7,34.9,183.4,32.3,180.6,32.3z"/>
<rect x="45" y="42.1" class="st0" width="5.3" height="26.8"/>
<rect x="50.8" y="42.1" class="st0" width="5.3" height="26.8"/>
<rect x="56.5" y="42.1" class="st0" width="5.3" height="26.8"/>
<rect x="62.3" y="42.1" class="st0" width="5.3" height="26.8"/>
<rect x="68" y="42.1" class="st0" width="5.3" height="26.8"/>
<rect x="73.8" y="42.1" class="st0" width="5.3" height="26.8"/>
<rect x="79.5" y="42.1" class="st0" width="5.3" height="26.8"/>
<rect x="85.3" y="42.1" class="st0" width="5.3" height="26.8"/>
<rect x="91" y="42.1" class="st0" width="5.3" height="26.8"/>
<rect x="96.8" y="42.1" class="st0" width="5.3" height="26.8"/>
<rect x="102.5" y="42.1" class="st0" width="5.3" height="26.8"/>
<rect x="108.3" y="42.1" class="st0" width="5.3" height="26.8"/>
<rect x="114" y="42.1" class="st0" width="5.3" height="26.8"/>
<rect x="119.8" y="42.1" class="st0" width="5.3" height="26.8"/>
<rect x="125.5" y="42.1" class="st0" width="5.3" height="26.8"/>
<rect x="131.2" y="42.1" class="st0" width="5.3" height="26.8"/>
<rect x="136.6" y="42.1" class="st0" width="5.3" height="26.8"/>
<rect x="142.3" y="42.1" class="st0" width="5.3" height="26.8"/>
<rect x="148.1" y="42.1" class="st0" width="5.3" height="26.8"/>
<rect x="153.8" y="42.1" class="st0" width="5.3" height="26.8"/>
<rect x="159.6" y="42.1" class="st0" width="5.3" height="26.8"/>
<rect x="165.3" y="42.1" class="st0" width="5.3" height="26.8"/>
<rect x="171" y="42.1" class="st0" width="5.3" height="26.8"/>
<rect x="48.6" y="42.1" class="st1" width="3.1" height="16.7"/>
<rect x="55.6" y="42.1" class="st1" width="3.1" height="16.7"/>
<rect x="66" y="42.1" class="st1" width="3.1" height="16.7"/>
<rect x="72.7" y="42.1" class="st1" width="3.1" height="16.7"/>
<rect x="78.6" y="42.1" class="st1" width="3.1" height="16.7"/>
<rect x="89.8" y="42.1" class="st1" width="3.1" height="16.7"/>
<rect x="95.7" y="42.1" class="st1" width="3.1" height="16.7"/>
<rect x="106.7" y="42.1" class="st1" width="3.1" height="16.7"/>
<rect x="112.9" y="42.1" class="st1" width="3.1" height="16.7"/>
<rect x="123.5" y="42.1" class="st1" width="3.1" height="16.7"/>
<rect x="130.4" y="42.1" class="st1" width="3.1" height="16.7"/>
<rect x="140.3" y="42.1" class="st1" width="3.1" height="16.7"/>
<rect x="151.5" y="42.1" class="st1" width="3.1" height="16.7"/>
<rect x="158" y="42.1" class="st1" width="3.1" height="16.7"/>
<rect x="164.1" y="42.1" class="st1" width="3.1" height="16.7"/>
<rect x="26.4" y="43.9" class="st0" width="4.1" height="14.2"/>
<rect x="34.7" y="43.9" class="st0" width="4.1" height="14.2"/>
<path class="st0" d="M30.3,64.5c-0.1,1.1-1.1,1.9-2.2,1.7s-1.9-1.1-1.7-2.2c0.1-1,1-1.8,2-1.8C29.5,62.3,30.4,63.3,30.3,64.5
	C30.3,64.5,30.3,64.5,30.3,64.5z"/>
<path class="st0" d="M38.7,64.5c-0.1,1.1-1.1,1.9-2.2,1.7s-1.9-1.1-1.7-2.2c0.1-1,1-1.8,2-1.8C37.9,62.3,38.8,63.3,38.7,64.5
	C38.7,64.5,38.7,64.5,38.7,64.5z"/>
</svg>
