<?xml version="1.0" encoding="utf-8"?>
<!-- Generator: Adobe Illustrator 22.0.1, SVG Export Plug-In . SVG Version: 6.00 Build 0)  -->
<svg version="1.1" id="Layer_1" xmlns="http://www.w3.org/2000/svg" xmlns:xlink="http://www.w3.org/1999/xlink" x="0px" y="0px"
	 width="167px" height="111px" viewBox="0 0 167 111" style="enable-background:new 0 0 167 111;" xml:space="preserve">
<style type="text/css">
	.st0{fill:none;stroke:#F8CA11;stroke-miterlimit:10;}
	.st1{fill:#F8CA11;}
	.st2{fill:none;stroke:#F8CA11;stroke-width:0.5;stroke-miterlimit:10;}
</style>
<title>violao</title>
<path class="st0" d="M88.8,44.4c0,0-3-10.7-7.1-14.3s-10-5.5-14.8-3s-6.4,4.7-8.9,6.2s-4.4,3.9-14.2,1.5S19,31,10.3,40.3
	S4.9,63.4,6.5,68.6s1.2,3.5,1.2,3.5s4.9,15.2,13.1,21.1s22.6,3.7,29.3-3S63,75.1,64.7,74.2s6.1-2.5,8.4-2.1s9.3,1.7,12-1.8
	c1.5-1.9,1.3-4.6-0.6-6.1c0,0,0,0-0.1,0c0,0-4.6-3.2-4.8-7.2s4.7-7.1,4.7-7.1l5.6-2.2L88.8,44.4z"/>
<path class="st0" d="M32.5,74.4c-0.1,0.1-0.3,0-0.3-0.1L26,56.4c0-0.1,0.1-0.3,0.2-0.3l3.8-1.3c0.1,0,0.3,0,0.3,0.1l6.1,17.9
	c0,0.1-0.1,0.3-0.2,0.3L32.5,74.4z"/>
<path class="st1" d="M33.4,71c-0.1,0.1-0.3,0-0.3-0.2c0,0,0,0,0,0l-4.2-12.3c-0.1-0.1,0-0.3,0.2-0.3c0,0,0,0,0,0l0,0
	c0.1,0,0.3,0,0.4,0.2l4.2,12.3C33.6,70.8,33.5,71,33.4,71z"/>
<path class="st1" d="M136.7,32.3c-0.1,0-0.1,0-0.1-0.1c0,0,0,0,0,0l-2.1-6.3c0-0.1,0-0.1,0-0.2c0,0,0,0,0,0l0,0c0.1,0,0.1,0,0.1,0.1
	l2.1,6.3C136.8,32.2,136.8,32.3,136.7,32.3C136.7,32.3,136.7,32.3,136.7,32.3z"/>
<path class="st1" d="M130.8,34.3c-0.1,0-0.1,0-0.1-0.1l-2.2-6.3c0-0.1,0-0.1,0.1-0.2l0,0c0.1,0,0.1,0,0.1,0.1c0,0,0,0,0,0l2.2,6.3
	C130.9,34.2,130.9,34.3,130.8,34.3L130.8,34.3z"/>
<path class="st1" d="M119.9,38.1c-0.1,0-0.1,0-0.1-0.1c0,0,0,0,0,0l-2.2-6.4c0,0,0-0.1,0-0.2l0,0c0.1,0,0.1,0,0.1,0.1c0,0,0,0,0,0
	l2.2,6.4C119.9,38,119.9,38,119.9,38.1L119.9,38.1z"/>
<path class="st1" d="M114.3,40c0,0-0.1,0-0.1-0.1l-2.2-6.4c0-0.1,0-0.1,0.1-0.2l0,0c0.1,0,0.1,0,0.1,0.1l2.2,6.5
	C114.4,39.9,114.4,40,114.3,40C114.4,40,114.4,40,114.3,40L114.3,40z"/>
<path class="st1" d="M125.5,36.1c-0.1,0-0.1,0-0.1-0.1c0,0,0,0,0,0l-2.1-6.3c0-0.1,0-0.1,0-0.2c0,0,0,0,0,0l0,0c0.1,0,0.1,0,0.2,0.1
	l2.1,6.3C125.6,36,125.6,36.1,125.5,36.1C125.5,36.1,125.5,36.1,125.5,36.1z"/>
<path class="st1" d="M107.3,42.5c-0.1,0-0.1,0-0.2-0.1l-2.3-6.6c0-0.1,0-0.1,0.1-0.2l0,0c0.1,0,0.1,0,0.1,0.1c0,0,0,0,0,0l2.3,6.6
	C107.4,42.4,107.4,42.5,107.3,42.5C107.3,42.5,107.3,42.5,107.3,42.5z"/>
<path class="st1" d="M101.5,44.6c0,0-0.1,0-0.2-0.1L99,37.7c0-0.1,0-0.1,0.1-0.2l0,0c0.1,0,0.1,0,0.1,0.1c0,0,0,0,0,0l2.3,6.8
	C101.5,44.5,101.5,44.5,101.5,44.6L101.5,44.6z"/>
<path class="st1" d="M95.6,46.7c0,0-0.1,0-0.2-0.1l-2.3-6.9c0,0,0-0.1,0-0.2l0,0c0.1,0,0.1,0,0.2,0.1l2.4,6.9
	C95.7,46.6,95.6,46.6,95.6,46.7L95.6,46.7z"/>
<path class="st1" d="M91.1,48.2c-0.1,0-0.1,0-0.2-0.1l-2.4-7c0-0.1,0-0.1,0-0.2l0,0c0.1,0,0.1,0,0.2,0.1l2.4,7
	C91.1,48.1,91.1,48.2,91.1,48.2L91.1,48.2z"/>
<path class="st1" d="M86.5,49.8c0,0-0.1,0-0.2-0.1l-2.4-7c0-0.1,0-0.2,0.1-0.2l0,0c0.1,0,0.1,0,0.2,0.1l2.4,7
	C86.6,49.7,86.6,49.8,86.5,49.8z"/>
<path class="st1" d="M82.6,51.3c-0.1,0-0.1,0-0.2-0.1L80,44c0-0.1,0-0.2,0.1-0.2l0,0c0.1,0,0.1,0,0.2,0.1l2.4,7.2
	C82.7,51.1,82.7,51.2,82.6,51.3L82.6,51.3z"/>
<path class="st1" d="M79.8,52.2c-0.1,0-0.1,0-0.1-0.1c0,0,0,0,0,0L77.2,45c0-0.1,0-0.1,0.1-0.2c0,0,0,0,0,0l0,0c0.1,0,0.1,0,0.1,0.1
	c0,0,0,0,0,0l2.4,7.1C79.8,52.1,79.8,52.2,79.8,52.2L79.8,52.2z"/>
<path class="st1" d="M76.8,53.2c-0.1,0-0.1,0-0.1-0.1c0,0,0,0,0,0l-2.5-7.2c0-0.1,0-0.2,0-0.2l0,0c0.1,0,0.1,0,0.2,0.1l2.5,7.2
	C76.8,53.1,76.8,53.2,76.8,53.2L76.8,53.2z"/>
<path class="st1" d="M74.2,54.2c-0.1,0-0.1,0-0.2-0.1l-2.5-7.3c0-0.1,0-0.1,0-0.2l0,0c0.1,0,0.1,0,0.2,0.1l2.6,7.3
	C74.2,54.1,74.2,54.2,74.2,54.2L74.2,54.2z"/>
<path class="st1" d="M71.3,55.3c-0.1,0-0.1,0-0.2-0.1l-2.6-7.5c0-0.1,0-0.2,0.1-0.2l0,0c0,0,0.1,0,0.2,0.1l2.6,7.5
	C71.3,55.2,71.3,55.3,71.3,55.3L71.3,55.3z"/>
<path class="st1" d="M69.2,56c-0.1,0-0.1,0-0.1-0.1c0,0,0,0,0,0l-2.6-7.5c0-0.1,0-0.2,0-0.2l0,0c0,0,0.1,0,0.2,0.1l2.6,7.5
	C69.3,55.9,69.2,56,69.2,56L69.2,56z"/>
<path class="st1" d="M67.3,56.7c-0.1,0-0.1,0-0.2-0.1L64.6,49c0-0.1,0-0.1,0.1-0.2c0,0,0,0,0,0l0,0c0.1,0,0.1,0,0.1,0.1c0,0,0,0,0,0
	l2.6,7.5C67.4,56.6,67.4,56.6,67.3,56.7L67.3,56.7z"/>
<rect x="139.9" y="24" transform="matrix(0.9465 -0.3228 0.3228 0.9465 -1.3327 46.7523)" class="st1" width="0.8" height="6.8"/>
<path class="st1" d="M148,18.2c-0.8,0.3-1.5,0.2-1.6-0.2s0.4-0.9,1.2-1.1s1.5-0.2,1.6,0.2S148.8,17.9,148,18.2z"/>
<path class="st1" d="M152.5,31.4c-0.8,0.3-1.5,0.2-1.6-0.2s0.4-0.9,1.2-1.2s1.5-0.2,1.6,0.2S153.3,31.1,152.5,31.4z"/>
<path class="st1" d="M142.7,20.8c-0.8,0.3-1.5,0.2-1.6-0.2s0.4-0.9,1.2-1.2s1.5-0.2,1.7,0.2S143.5,20.5,142.7,20.8z"/>
<path class="st1" d="M146.7,32.5c-0.8,0.3-1.5,0.2-1.6-0.2s0.4-0.9,1.2-1.2s1.5-0.2,1.6,0.2S147.5,32.3,146.7,32.5z"/>
<path class="st1" d="M153.4,16c-0.8,0.3-1.5,0.2-1.7-0.2s0.4-0.9,1.2-1.2s1.5-0.2,1.6,0.2S154.1,15.7,153.4,16z"/>
<path class="st1" d="M158.1,29.8c-0.8,0.3-1.5,0.2-1.7-0.2s0.4-0.9,1.2-1.2s1.5-0.2,1.6,0.2S158.9,29.6,158.1,29.8z"/>
<path class="st0" d="M162.1,24.3c0.2-0.9,0.3-1.9,0.3-2.8c-0.1-0.5-0.3-1-0.5-1.5c-0.1-0.5-0.3-1-0.5-1.5c-0.6-0.7-1.3-1.4-2-2.1
	c-0.9-0.9-3.1-1.2-3.1-1.2l-13,5.6c-1.4,0.8-2.7,1.9-3.6,3.2l1,3l1,3.1c1.6,0.4,3.2,0.5,4.8,0.3l13.8-3.5
	C160.3,27.1,162,25.5,162.1,24.3z"/>
<path class="st1" d="M154.1,15.3l-1.7,0.6l4.5,13.2l1.7-0.6L154.1,15.3z M153.8,19.5c-0.1-0.4,0.1-0.7,0.4-0.9
	c0.4-0.1,0.7,0.1,0.9,0.4c0.1,0.4-0.1,0.7-0.4,0.9c0,0,0,0,0,0C154.3,20.1,153.9,19.9,153.8,19.5C153.8,19.5,153.8,19.5,153.8,19.5z
	 M155.8,25.4c-0.1-0.4,0.1-0.7,0.4-0.9c0.4-0.1,0.7,0.1,0.9,0.4c0.1,0.4-0.1,0.7-0.4,0.9c0,0,0,0,0,0
	C156.3,26,155.9,25.8,155.8,25.4L155.8,25.4z"/>
<path class="st1" d="M148.7,17.5l-1.7,0.6l4.3,12.6l1.7-0.6L148.7,17.5z M148.5,21.3c-0.1-0.4,0.1-0.7,0.4-0.9
	c0.4-0.1,0.7,0.1,0.9,0.4c0.1,0.4-0.1,0.7-0.4,0.9c0,0,0,0,0,0C149,21.9,148.6,21.7,148.5,21.3z M150.5,27.2
	c-0.1-0.3,0.1-0.7,0.4-0.9c0,0,0,0,0,0c0.4-0.1,0.7,0.1,0.9,0.4c0.1,0.4-0.1,0.7-0.4,0.8c0,0,0,0,0,0
	C151,27.8,150.7,27.6,150.5,27.2L150.5,27.2z"/>
<path class="st1" d="M143.3,19.8l-1.7,0.6l4,11.8l1.7-0.6L143.3,19.8z M143.1,23.8c-0.1-0.3,0.1-0.7,0.4-0.9c0,0,0,0,0,0
	c0.4-0.1,0.7,0.1,0.9,0.4c0.1,0.4-0.1,0.7-0.4,0.9C143.6,24.3,143.2,24.1,143.1,23.8z M144.7,28.6c-0.1-0.4,0.1-0.7,0.4-0.9
	s0.7,0.1,0.9,0.4c0.1,0.4-0.1,0.7-0.4,0.9C145.2,29.1,144.8,28.9,144.7,28.6z"/>
<path class="st1" d="M67.4,52.3c-1.8-5.4-7.6-8.3-13-6.4c-5.4,1.8-8.3,7.6-6.4,13s7.6,8.3,13,6.4c0,0,0,0,0,0
	C66.4,63.4,69.3,57.6,67.4,52.3z M48.6,58.7c-1.7-5.1,0.9-10.6,6-12.3s10.6,0.9,12.3,6s-0.9,10.6-6,12.3c0,0,0,0,0,0
	C55.8,66.4,50.3,63.7,48.6,58.7z"/>
<path class="st0" d="M60.5,63.8C56,65.4,51,63,49.5,58.4c-1.6-4.6,0.9-9.5,5.5-11.1c4.6-1.6,9.5,0.9,11.1,5.4
	C67.6,57.3,65.1,62.3,60.5,63.8C60.6,63.8,60.6,63.8,60.5,63.8z"/>
<rect x="28.3" y="46.6" transform="matrix(0.9465 -0.3228 0.3228 0.9465 -10.4444 30.2092)" class="st2" width="115.1" height="0.1"/>
<rect x="28.7" y="47.7" transform="matrix(0.9465 -0.3228 0.3228 0.9465 -10.7876 30.3935)" class="st2" width="115.1" height="0.1"/>
<rect x="29.1" y="48.8" transform="matrix(0.9465 -0.3228 0.3228 0.9465 -11.13 30.5765)" class="st2" width="115.1" height="0.1"/>
<rect x="27.2" y="43.2" transform="matrix(0.9465 -0.3228 0.3228 0.9465 -9.4157 29.6574)" class="st2" width="115.1" height="0.1"/>
<rect x="27.6" y="44.3" transform="matrix(0.9465 -0.3228 0.3228 0.9465 -9.7559 29.8402)" class="st2" width="115.1" height="0.1"/>
<rect x="27.9" y="45.9" transform="matrix(0.9477 -0.3192 0.3192 0.9477 -10.1971 29.7217)" class="st2" width="115.4" height="0.1"/>
</svg>
