<svg id="Layer_1" data-name="Layer 1" xmlns="http://www.w3.org/2000/svg" width="167" height="109" viewBox="0 0 167 109"><defs><style>.cls-1{fill:#f8ca11;}</style></defs><title>vocal</title><path class="cls-1" d="M41.37,81.83a.59.59,0,0,1-.49-.26L39,79a.6.6,0,0,1,.11-.84l6.63-5.42a.61.61,0,0,1,.39-.13.62.62,0,0,1,.47.22.64.64,0,0,1-.08.86l-6.19,5,1.2,1.6L48.05,76a.59.59,0,0,1,.34-.1.61.61,0,0,1,.5.26.62.62,0,0,1-.16.86l-7,4.75A.57.57,0,0,1,41.37,81.83Zm12.24-5.69A4.39,4.39,0,0,1,51,74.74a.59.59,0,0,1-.19-.43.6.6,0,0,1,.16-.44.64.64,0,0,1,.45-.19.67.67,0,0,1,.42.16,3.59,3.59,0,0,0,1.8,1.07h.09l2.1-1.5a.61.61,0,0,1,.71,1L54.41,75.9A1.33,1.33,0,0,1,53.61,76.14Zm7.31-1.72a4.83,4.83,0,0,1-2.5-.92,16.88,16.88,0,0,1-4-4,16.43,16.43,0,0,1-2.67-5.09c-.46-1.68-.27-2.93.53-3.53l35.42-29a.62.62,0,0,1,.39-.14.6.6,0,0,1,.48.23.58.58,0,0,1,.13.44.69.69,0,0,1-.22.42L53,61.89c-.28.21-.46.92-.08,2.27a15,15,0,0,0,2.46,4.65,15.49,15.49,0,0,0,3.7,3.66,3.78,3.78,0,0,0,1.82.73.64.64,0,0,0,.4-.11l7.93-5.36a.59.59,0,0,1,.34-.1.61.61,0,0,1,.35,1.11L62,74.09A1.81,1.81,0,0,1,60.92,74.42ZM49,71.68a.61.61,0,0,1-.55-.35c-.83-1.72-.87-3-.09-3.62l2-1.58a.65.65,0,0,1,.38-.13.63.63,0,0,1,.48.23.64.64,0,0,1,.13.46.62.62,0,0,1-.24.41l-2,1.59c-.13.09-.17.83.45,2.11a.61.61,0,0,1-.28.82h0A.46.46,0,0,1,49,71.68Zm7.29-8.21a.58.58,0,0,1-.47-.23.61.61,0,0,1,.08-.86h0L78.14,44.1a.62.62,0,0,1,.39-.14.63.63,0,0,1,.48.23.62.62,0,0,1-.09.86L56.66,63.33a.62.62,0,0,1-.39.14Zm30-5.87A.61.61,0,0,1,86,56.48l13.39-9a.52.52,0,0,1,.34-.1.61.61,0,0,1,.51.27.62.62,0,0,1-.17.85l-13.39,9a.58.58,0,0,1-.38.1ZM82,42.35a.64.64,0,0,1-.48-.22.61.61,0,0,1-.13-.45.64.64,0,0,1,.22-.41l5.18-4.21a.62.62,0,0,1,.39-.14A.61.61,0,0,1,87.56,38L82.4,42.22A.58.58,0,0,1,82,42.35Z"/><path class="cls-1" d="M41.37,81.43a.22.22,0,0,1-.17-.09L39.31,78.8a.21.21,0,0,1,0-.29L46,73.09a.22.22,0,0,1,.3,0,.21.21,0,0,1,0,.29l-6.48,5.29,1.65,2.22,6.85-4.64a.2.2,0,0,1,.28,0h0a.21.21,0,0,1,0,.29l-7,4.76A.26.26,0,0,1,41.37,81.43Zm12.24-5.7a4,4,0,0,1-2.38-1.29.21.21,0,0,1,0-.29.22.22,0,0,1,.3,0h0c1,1,2,1.38,2.41,1.08L56,73.73a.21.21,0,0,1,.28.09.2.2,0,0,1,0,.25l-2.09,1.49A.83.83,0,0,1,53.61,75.73ZM60.92,74a4.52,4.52,0,0,1-2.28-.86,15.93,15.93,0,0,1-3.91-3.86c-2.62-3.5-3.59-7-2.23-8.06l35.44-29a.21.21,0,0,1,.29,0,.22.22,0,0,1,0,.3h0l-35.44,29c-1,.76-.33,3.94,2.3,7.48a16,16,0,0,0,3.81,3.76c1.18.77,2.16,1,2.68.6L69.5,68a.21.21,0,0,1,.29.06.2.2,0,0,1,0,.28h0l-7.9,5.34A1.42,1.42,0,0,1,60.92,74ZM49,71.28a.22.22,0,0,1-.19-.12c-.73-1.51-.81-2.68-.21-3.13l2-1.58a.21.21,0,0,1,.3,0,.21.21,0,0,1,0,.29h0l-2,1.59c-.41.3-.27,1.35.34,2.61a.21.21,0,0,1-.09.28A.14.14,0,0,1,49,71.28Zm7.29-8.21a.22.22,0,0,1-.22-.2.21.21,0,0,1,.09-.18L78.39,44.41a.21.21,0,0,1,.27.33L56.4,63a.21.21,0,0,1-.13.07Zm30-5.88a.2.2,0,0,1-.17-.09.21.21,0,0,1,0-.29l13.39-9a.2.2,0,0,1,.28,0h0a.21.21,0,0,1,0,.29l-13.39,9a.26.26,0,0,1-.16.09ZM82,42a.21.21,0,0,1-.16-.08.2.2,0,0,1,0-.28h0L87,37.42a.21.21,0,0,1,.27.33L82.1,42A.14.14,0,0,1,82,42Z"/><path class="cls-1" d="M41.37,81.73a.52.52,0,0,1-.41-.21L39.07,79a.51.51,0,0,1,.09-.71l6.63-5.41a.53.53,0,0,1,.72.07.51.51,0,0,1-.07.72h0l-6.26,5.11,1.31,1.76L48.1,76a.52.52,0,0,1,.38-.09.57.57,0,0,1,.33.22.49.49,0,0,1,.08.39.47.47,0,0,1-.21.32l-7,4.76A.51.51,0,0,1,41.37,81.73Zm7.08-5.2ZM53.61,76A4.33,4.33,0,0,1,51,74.67a.48.48,0,0,1-.16-.36.47.47,0,0,1,.14-.37.48.48,0,0,1,.35-.16.47.47,0,0,1,.37.14c1.09,1,1.85,1.18,2,1.06l2.1-1.5a.49.49,0,0,1,.37-.09.51.51,0,0,1,.34.21.52.52,0,0,1-.12.72L54.3,75.81a1.22,1.22,0,0,1-.69.19Zm7.31-1.72a4.62,4.62,0,0,1-2.44-.91,18.23,18.23,0,0,1-6.65-9c-.45-1.63-.28-2.85.49-3.42L87.75,32a.53.53,0,0,1,.38-.12.58.58,0,0,1,.34.19.56.56,0,0,1,.11.37.52.52,0,0,1-.18.35L53,61.81c-.41.3-.45,1.21-.12,2.38A17.43,17.43,0,0,0,59,72.56c1,.67,1.93.91,2.33.61l7.93-5.36a.51.51,0,0,1,.58.85L62,74A1.72,1.72,0,0,1,60.92,74.32ZM49,71.58a.5.5,0,0,1-.46-.29c-.81-1.67-.86-3-.12-3.5l2-1.58a.52.52,0,0,1,.72.09.47.47,0,0,1,.11.38A.57.57,0,0,1,51,67l-2,1.59c-.2.14-.2,1,.42,2.24a.49.49,0,0,1-.22.67h0A.44.44,0,0,1,49,71.58Zm7.29-8.21a.53.53,0,0,1-.4-.19.51.51,0,0,1,.08-.72h0L78.2,44.18a.5.5,0,0,1,.39-.11.47.47,0,0,1,.34.19.52.52,0,0,1,.11.36.48.48,0,0,1-.19.35L56.6,63.25a.5.5,0,0,1-.33.12ZM78.47,44.5Zm7.78,13a.5.5,0,0,1-.43-.24.48.48,0,0,1-.07-.37.52.52,0,0,1,.21-.33l13.39-9a.49.49,0,0,1,.39-.08.45.45,0,0,1,.32.22.44.44,0,0,1,.08.37.47.47,0,0,1-.21.33l-13.39,9A.63.63,0,0,1,86.25,57.5Zm.06-.45Zm13.27-9.14ZM82,42.25a.51.51,0,0,1-.51-.51v-.05a.49.49,0,0,1,.19-.35l5.17-4.2a.51.51,0,0,1,.72.07h0a.46.46,0,0,1,.11.37.48.48,0,0,1-.18.35l-5.18,4.21A.52.52,0,0,1,82,42.25Z"/><path class="cls-1" d="M76.45,98.27a.61.61,0,0,1-.61-.61h0V68.17C73.93,67.78,67.78,66,66,60a.58.58,0,0,1,.2-.65l6.73-5.48a.61.61,0,0,1,.39-.13.6.6,0,0,1,.47.22.62.62,0,0,1-.09.86h0L67.3,60c2.1,6,9.21,7,9.28,7a.6.6,0,0,1,.53.61V97H84.5V67.66a.6.6,0,0,1,.28-.52s3-2,3.51-7.66a.6.6,0,0,1,.62-.55.6.6,0,0,1,.6.6v.07c-.49,5.32-3,7.72-3.79,8.37V97.65a.61.61,0,0,1-.6.62H76.45ZM82,60.46h-.07a11.94,11.94,0,0,1-6.31-2.91.58.58,0,0,1-.2-.41.62.62,0,0,1,.16-.45A.66.66,0,0,1,76,56.5a.59.59,0,0,1,.42.17,11.32,11.32,0,0,0,5.64,2.58.56.56,0,0,1,.41.22.62.62,0,0,1-.11.87.59.59,0,0,1-.36.13Zm26.56-12.53A15.69,15.69,0,0,1,95.8,41.16l-2-2.79a15.68,15.68,0,0,1-2.63-14.19,16.75,16.75,0,0,1,10.46-10.71l5.78-2a12.53,12.53,0,0,1,4.16-.7A15.79,15.79,0,0,1,124,17.28l1,1.42c3.93,5.36,4.17,12.75.56,17.56l-3.69,4.9a16.73,16.73,0,0,1-13.26,6.77Zm3-36a11.1,11.1,0,0,0-3.75.63l-5.78,2a15.49,15.49,0,0,0-9.7,9.91,14.52,14.52,0,0,0,2.45,13.11l2,2.78a14.5,14.5,0,0,0,11.77,6.27h.08a15.5,15.5,0,0,0,12.29-6.27l3.68-4.91c3.29-4.39,3.05-11.16-.57-16.1L123,18a14.55,14.55,0,0,0-11.48-6ZM98.1,36.68a.63.63,0,0,1-.49-.24,12.55,12.55,0,0,1,.65-16.12.63.63,0,0,1,.46-.2.59.59,0,0,1,.4.15.61.61,0,0,1,.06.86,11.2,11.2,0,0,0-.58,14.58.61.61,0,0,1-.5,1Zm23.13-2a.65.65,0,0,1-.38-.13.63.63,0,0,1-.11-.86c2.57-3.41,2.38-8.69-.44-12.55a.61.61,0,0,1,.13-.85h0a.58.58,0,0,1,.36-.12.59.59,0,0,1,.49.26c3.13,4.28,3.31,10.17.42,14A.62.62,0,0,1,121.23,34.63ZM103.44,18.58a.59.59,0,0,1-.57-.41.62.62,0,0,1,.37-.78l4.63-1.63H108a.61.61,0,0,1,.62.6.59.59,0,0,1-.42.59l-4.63,1.63Z"/><path class="cls-1" d="M85.11,97.86H76.45a.21.21,0,0,1-.21-.21V67.84c-1.21-.21-8-1.7-9.9-7.93a.2.2,0,0,1,.06-.23l6.73-5.48a.21.21,0,0,1,.27.33l-6.62,5.39c2,6.41,9.55,7.51,9.7,7.54a.19.19,0,0,1,.18.21V97.44H84.9V67.66a.19.19,0,0,1,.1-.17c.08-.06,3.15-2.15,3.69-8a.22.22,0,0,1,.24-.19.2.2,0,0,1,.18.22h0c-.51,5.58-3.23,7.81-3.79,8.21V97.62a.21.21,0,0,1-.18.24ZM82,60.05a11.76,11.76,0,0,1-6.12-2.8.21.21,0,1,1,.26-.33l0,0A11.56,11.56,0,0,0,82,59.64a.21.21,0,0,1,.19.23h0A.19.19,0,0,1,82,60.05Zm26.64-12.52h-.09a15.34,15.34,0,0,1-12.42-6.61l-2-2.79A15.33,15.33,0,0,1,91.5,24.3a16.32,16.32,0,0,1,10.21-10.45l5.78-2c5.51-2,12.3.44,16.13,5.66L124.69,19c3.84,5.22,4.07,12.4.56,17.08L121.57,41a16.35,16.35,0,0,1-12.94,6.57Zm-6.78-33.28a15.92,15.92,0,0,0-10,10.18,15,15,0,0,0,2.51,13.46l2,2.78A14.89,14.89,0,0,0,108.5,47.1h.08a15.9,15.9,0,0,0,12.61-6.43l3.68-4.91c3.4-4.52,3.16-11.5-.57-16.57l-1.07-1.47c-3.73-5.08-10.31-7.39-15.65-5.51l-5.78,2Zm-3.75,22a.21.21,0,0,1-.17-.08,12.15,12.15,0,0,1,.63-15.61.22.22,0,0,1,.3,0h0a.22.22,0,0,1,0,.3A11.61,11.61,0,0,0,98.27,36a.21.21,0,0,1,0,.29.2.2,0,0,1-.17,0Zm23.12-2.06a.24.24,0,0,1-.12,0,.21.21,0,0,1,0-.29c2.67-3.56,2.49-9-.44-13a.2.2,0,0,1,0-.28h0a.21.21,0,0,1,.29,0c3,4.15,3.22,9.84.43,13.54a.19.19,0,0,1-.17.07Zm-17.77-16a.22.22,0,0,1-.2-.14.21.21,0,0,1,.13-.27h0L108,16.17a.21.21,0,0,1,.14.4l-4.56,1.61Z"/></svg>