<?xml version="1.0" encoding="utf-8"?>
<!-- Generator: Adobe Illustrator 22.0.1, SVG Export Plug-In . SVG Version: 6.00 Build 0)  -->
<svg version="1.2" baseProfile="tiny" id="Layer_1" xmlns="http://www.w3.org/2000/svg" xmlns:xlink="http://www.w3.org/1999/xlink"
	 x="0px" y="0px" width="254.5px" height="277.3px" viewBox="0 0 254.5 277.3" xml:space="preserve">
<path fill="#F8CA11" d="M121.2,192l7.9,16.4l-13.3,6.4l-1.5-3c-0.7-1.4-1.5-2.1-2.3-2c-0.9,0-1.8,0.2-2.8,0.6c0,0-0.1,0-0.1,0.1
	c0,0-0.1,0-0.2,0.1c-0.2,0-0.3,0.1-0.5,0.2c-0.2,0.1-0.4,0.1-0.5,0.1l4.3,9l9.3-4.5l4.4,9.1l-9.3,4.5l2.9,6c0.4,0.9,0.9,1.6,1.3,2.3
	c0.5,0.6,1.2,1.1,2.1,1.5l4.1,8.6l-18.2,8.8l-4.2-8.6c0.5-0.7,0.7-1.5,0.6-2.3c-0.1-0.8-0.3-1.6-0.7-2.4l-10.9-22.5
	c-0.5-1-1.1-1.7-1.7-2c-0.7-0.3-1.4-0.4-2.2-0.3l-4.2-8.7L121.2,192z"/>
<path fill="#F8CA11" d="M141.9,182l3.9,8.2c-0.5,1.1-0.7,2.1-0.4,3c0.2,0.9,0.6,1.8,1,2.7l10,20.7c0.7,1.4,1.2,2.3,1.7,2.8
	c0.4,0.5,0.9,0.9,1.5,1.2c0.2,0.1,0.3,0.1,0.5,0.2c0.2,0.1,0.4,0.1,0.6,0.2l3.9,8.2l-19.1,9.2l-4-8.2c0.6-1.2,0.8-2.2,0.6-3
	c-0.2-0.8-0.6-1.7-1-2.5c-0.1-0.1-0.1-0.3-0.2-0.4c-0.1-0.1-0.1-0.3-0.2-0.4l-9.8-20.3c0-0.1-0.1-0.2-0.1-0.3
	c-0.1-0.1-0.1-0.3-0.2-0.4c-0.3-0.7-0.7-1.4-1.2-2.1c-0.5-0.6-1.3-1-2.6-1.1l-4-8.2L141.9,182z"/>
<path fill="#F8CA11" d="M169.5,183.5c-0.4-0.9-1-1.5-1.8-1.7c-0.7-0.2-1.4-0.2-2.1,0.1c0,0-0.1,0-0.1,0c0,0,0,0-0.1,0
	c-0.7,0.3-1.1,0.9-1.4,1.8c-0.3,0.9-0.1,1.9,0.5,3.1l10.4,21.5c0.5,1,1.2,1.7,2,2c0.8,0.3,1.6,0.3,2.3,0c0,0,0.1,0,0.1,0
	c0,0,0,0,0.1,0c0.6-0.3,1.1-0.8,1.4-1.6c0.3-0.8,0.1-1.7-0.4-2.8l-3.6-7.4l15.1-7.3l7.3,15.1c-0.2,2.1-1.7,4.4-4.4,6.7
	c-2.7,2.3-5.8,4.4-9.2,6.3c-0.3,0.1-0.5,0.3-0.8,0.4s-0.6,0.3-0.8,0.4c-5.1,2.5-9.9,3.5-14.5,3.1c-4.6-0.4-8.1-3.3-10.6-8.4
	l-9.4-19.5c-2.4-4.9-2.8-9.3-1.3-13c1.5-3.7,5.1-6.9,10.7-9.6c4-1.9,7.7-3.3,11.2-4c3.4-0.8,7-1,10.7-0.6l6.4,13.3l-15.1,7.3
	L169.5,183.5z"/>
<path fill="#F8CA11" d="M196.6,196l-9.4-19.4c-2.3-4.7-2.5-9-0.6-12.8c1.9-3.8,6-7.3,12.4-10.4c6.4-3.1,11.5-4.2,15.3-3.3
	c3.8,0.9,6.8,3.8,9.1,8.5l10.2,21.1c2.2,4.6,2.6,8.6,1.1,12.2c-1.5,3.6-5.5,7-12.2,10.2c-6.7,3.2-12.1,4.3-16.2,3.1
	C202.3,204.1,199.1,201,196.6,196L196.6,196z M218.2,186.1l-9.6-19.8c-0.6-1.2-1.2-2.1-1.7-2.7c-0.5-0.6-1.5-0.5-2.8,0.1
	c-1.1,0.5-1.7,1.2-1.9,2.1c-0.2,0.9,0.1,2,0.7,3.3l9.6,19.8c0,0.1,0.1,0.1,0.1,0.1c0,0,0,0,0,0.1c0.5,1,1.2,1.9,2,2.6
	c0.8,0.7,1.9,0.7,3.1,0.1c1.1-0.5,1.6-1.3,1.6-2.2C219.2,188.6,218.8,187.4,218.2,186.1L218.2,186.1z"/>
<path fill="#F8CA11" d="M145.1,61.4c-0.1,0.2-2.1,11.1-2,11.6c0,0.6,1.5,7.9,1.6,8.1c0.1,0.2,1,5.6,1,5.6s-1.6-0.8-2.4-1.1
	c-0.8-0.3-0.8-0.5-0.9-1c-0.1-0.4-0.7-3.3-1-3.2c-0.2,0.1-7.4-3.2-7.8-3.5c-0.4-0.3-6.4-1-6.7-0.9c-0.4,0.1-1.5,0-2.7,0.9
	c-1.2,0.9-3,1.8-5.4,3.7c-2.4,2-4,2.7-4.2,5.9c-0.2,3.2,0.3,2.2-0.8,5.2c-1.1,2.9-2,7.3-1.8,8.9c0.1,1.6-0.6,3.5,0.3,4.1
	c0.9,0.6,4.3,3.6,4.1,4.6c-0.2,0.9-0.1,0.5,0.7,2.5c0.8,2,0.3,3,0.9,3.1c0.6,0.2,4.1-0.8,3.9-0.2c-0.2,0.6,0.7,1.8,0.3,3.2
	c-0.4,1.4-4.6,3.5-4.8,3.5c-0.3-0.1-1.5-1.9-2.4-2.1c-0.9-0.2-0.8,0-0.5-0.9c0.3-0.9,0-1.7-1.6-3.1c-1.7-1.4-2.2-2.2-2.8-3.4
	c-0.6-1.2-2.2-2.6-4-4c-1.8-1.3-4.9-2.5-4.9-3.7c0-1.2,2.1-2,0.2-3.6c-1.9-1.5-7.5-4.7-8.7-7c-1.3-2.3-0.3-2.3-0.7-2.5
	c-0.4-0.2-1.9,1-1.5-0.5c0.4-1.5,1.4-2.9,0.1-3.3c-1.3-0.5-0.4,0.1-1.7-1.3c-1.3-1.4-1.3-1.4-1.7-1.7c-0.4-0.3,0.5-1.1-0.6-1.3
	c-1.1-0.2-3.1-0.2-3.9-0.5c-0.8-0.2-11.6-11-11.6-11.2c0.1-0.2-1.6-5.8-1.6-5.8L112.3,54c0,0-8.6,9.6-8.6,13.4c0,0-0.5,0.4,2.3,0
	c2.7-0.4,3.6-1.4,5.7-2.6c2.1-1.1,3.8-1.6,5.8-2.6c2-1,6.7-4,6.7-4L125,58l14.8-1.2l3.7,1.6C143.6,58.3,145.2,61.2,145.1,61.4z
	 M162.3,163.9c0.2-0.4-0.5-2.8-1.2-4.8c-0.7-2,0.4-2.9,0.4-2.9s2.6-1.3,2.5-2.7c-0.1-1.4-0.2-3.3-0.1-3.6c0.1-0.2,2.9-3.5,2.4-6
	c-0.6-2.5-0.3-3.5-0.3-3.5s-1.3-2.7-1.3-4.7c0.1-2.1,0.5-2.6,1-3c0.5-0.4,0.6-6.7,0.6-7.6c0-0.9-0.1-1.8-0.1-1.8s-4.4-6.5-4-6.3
	c0.4,0.2,2.9-1.2,2.9-1.2s-3-2.8-3.2-3.5c-0.3-0.7,3.4-0.7,3.9-1.5c0.5-0.9-2-5-2.1-5.5c-0.1-0.5,1.5-3.7,1.8-4.1
	c0.3-0.4-2.9-2-2.9-2.9c0-0.9,0.4-1.7,0.4-1.7l1.7-0.5c0,0-1.1-1.7-1.8-1.8c-0.8-0.1,0.1,0.3-0.1-1.2c-0.2-1.5-0.7-2-1.4-2.9
	c-0.7-0.9-1-3-0.8-4.1c0.2-1.1,0.7-0.7-0.9-1.5c-1.6-0.9-1.9-0.1-1.1-2.6c0.9-2.6,1.1-2.9,1.1-3.9c0.1-0.9,1.1-3.7,1.2-4
	c0.1-0.2,1.5,0.1,2.4-1.3c0.9-1.5,1.6-1.5,1.1-2.3c-0.5-0.8-2.4-3.7-2.6-4.8c-0.2-1.1-1.9-0.8-3-2.1c-1-1.3-1.8-2.5-1.5-4.3
	c0.3-1.8-1.2-2.8-1.2-4.4c0.1-1.6-0.2-3-0.2-3s8.5-3.8,6.6-9.2c-1.9-5.4-3.5-7.3-3.5-7.3s-1.6-13.3-9.7-14.5
	c-8.1-1.2-12.2,3.6-13.7,4.9c-1.6,1.3-3.4,3.6-8,2.9c-4.6-0.7-15.9-0.4-18.8,2.1c-2.8,2.5-5,7.9-4.9,8.5c0.1,0.6,1.2,0.8,3.1-0.3
	c1.9-1.2,3.4-2.4,3.5-1.7c0.1,0.6-3.2,2.5-2.7,3.9c0.5,1.4,1.1,3.4,0.9,3.7c-0.2,0.3-4.6,2.1-4.6,2.1L67.3,59.8c0,0-1.3-1.9-2.2-2
	c-0.9-0.1-2.2-0.1-2.5,0c-0.4,0.1-1.9-0.3-2.5,0.3c-0.6,0.6-0.7,1.5-0.7,1.5s-2.8,1.4-2.7,1.9c0.1,0.5-2.7,1.4-2.8,2.3
	c-0.2,0.9,0.1,1.7,0.1,1.7l-4.7,1.4l-4.1-0.4l-2.8,0.7l0.9,3.2l-13.6,6.6c0,0-1.2,1.5-0.6,3.6c0.6,2.1,2.5,4.9,2.8,6.7
	c0.3,1.8,0,5.8,0,5.8s4-0.3,4-0.5c0.1-0.2-0.2-4.5,0.3-4.5c0.5,0,9.6-5.6,10.6-6.1c1-0.5,1.3-1.8,1.8-2.7c0.5-1,3.2-6.5,3.7-6.8
	c0.5-0.3,2.9-1.2,2.9-1.2s0.7,2.6,2,3.9c1.3,1.3,3.3,1.9,3.9,2.7c0.7,0.8,12.1,12,12.1,12l-2.2,3.6l4.2,6.2l3.4-0.7
	c0,0-0.2,2.7,3,6.9c3.3,4.2,1.3,5.6,1.2,6.3c-0.1,0.8,1.1,1.3,1.9,1.8c0.8,0.5,1.6,0.8,1.3,2.2c-0.3,1.4,1.5,2.3,2.4,3.2
	c0.9,0.9,0.7,1.6,0.8,3c0.1,1.4,2.8,1.3,4.9,3.4c2.1,2,4.9,7.8,5.1,8.5c0.1,0.6,1.9,0.6,2.4,0.1c0.5-0.5,1-0.2,1-0.2
	s1.3,7.9,0.7,9.3c-0.6,1.4-0.1,1.2,0.2,1.7c0.3,0.5,2.7,3.2,3.1,5.5c0.3,2.3,2.7,10.5,2.9,11.3c0.2,0.7,0.1,2.2,1.1,4
	c1,1.8,1.2,2.1,1,4.6c-0.1,2.5,0.2,5.7,1,6.7c0.8,1.1,3.7,0.4,4.4,0.5c0.7,0.1,4.3,3.4,4.7,6.7"/>
<g>
	<path fill="#F8CA11" d="M35,231.2l-13,6c-0.7,0.3-2.1,1-3.2-1.5c-0.7-1.5-0.5-2.6-0.1-4.1l5.2-24.4l0.1-0.1l2.4,5.3l-4.1,20l11-5
		L35,231.2z M25.2,202l2-9.2c0.6-1.7,0.6-2.8,2-3.4l3.7-1.7c1.8-0.8,1.8-1.3,3.2,1.7L50,219.8l4.6-2.1c0.5-0.2,1.7-0.8,2.5,1.1
		c0.8,1.8-0.3,2.4-0.9,2.6l-4.6,2.1l2,4.3c0.8,1.8,1.1,2,4,1.6c1.1-0.4,2-0.1,2.5,1c0.9,2-1.7,3.1-2.3,3.3l-16.3,7.5
		c-0.6,0.3-3.1,1.5-4-0.5c-0.5-1.1-0.1-1.9,0.9-2.6c2.2-1.9,2.2-2.2,1.4-4L25.2,202z"/>
	<path fill="#F8CA11" d="M47.8,186.5c2.4-4.9,3-7.4,8.4-9.9c2.9-1.3,5-1.4,8.1-1.9c1.3-0.1,4.2-0.5,5.3-1c1-0.5,1.3-1.1,1.8-2
		c0.2-0.5,0.3-1,0.9-1.2c0.9-0.4,1.7,0.1,2,0.8c0.7,1.5,0.7,5.5,0.5,7.1c-0.4,3.4-3.2,6.2-7.1,8c-4.6,2.1-11.1,2.1-15.4,4.9
		c-2.9,1.9-2.3,3.9-1.3,6.3l0.2,0.5l-2.7,1.3l-4.5-15.9l2.6-1.2L47.8,186.5z M70.3,189.3c1.5-0.8,2.8-2.1,4-3.3
		c-0.6,11.4,0.9,16.6,5.1,22.3c1.3,1.8,2.4,3.1,3.3,5.2c1.9,4.1,0.9,9.5-3.9,11.7c-5.5,2.5-10.1-0.9-12.3-5.7
		C62,209.4,69.2,199.3,70.3,189.3z"/>
	<g>
		<path fill="#F8CA11" d="M87.6,165.6c-1.1,1.2-0.8,2-0.5,2.6l6.5,14.2c0.3,0.7,0.8,1.5,2.3,1.3l0.7,1.5c-6.2,2.3-11.1-1.1-13.6-6.6
			c-2.5-5.4-1.9-11.4,3.9-14.6L87.6,165.6z M98.1,182.9c1.1-1.2,0.8-2,0.5-2.6l-6.5-14.2c-0.3-0.7-0.8-1.5-2.3-1.3l-0.7-1.5
			c6.2-2.3,11.1,1.1,13.6,6.6c2.5,5.4,1.9,11.4-3.9,14.6L98.1,182.9z"/>
	</g>
	<path fill="#F8CA11" d="M104.8,185.8c0.3,0.6,0,1.4-0.7,1.7l-9.2,4.1c-0.7,0.3-1.4,0-1.7-0.6l-0.1-0.1c-0.3-0.6,0-1.4,0.7-1.7
		l9.2-4.1c0.7-0.3,1.4,0,1.7,0.6L104.8,185.8z"/>
</g>
</svg>
